<mxfile host="Electron" agent="Mozilla/5.0 (Windows NT 10.0; Win64; x64) AppleWebKit/537.36 (KHTML, like Gecko) draw.io/24.7.17 Chrome/128.0.6613.36 Electron/32.0.1 Safari/537.36" version="24.7.17">
  <diagram name="Page-1" id="822b0af5-4adb-64df-f703-e8dfc1f81529">
    <mxGraphModel dx="5053" dy="3220" grid="0" gridSize="10" guides="1" tooltips="1" connect="1" arrows="1" fold="1" page="0" pageScale="1" pageWidth="1100" pageHeight="850" background="none" math="0" shadow="0">
      <root>
        <mxCell id="0" />
        <mxCell id="1" parent="0" />
        <mxCell id="IF7U_VyuJhsHZCORkD-T-123" value="" style="rounded=0;whiteSpace=wrap;html=1;fillColor=#485665;strokeColor=#314354;fontColor=#ffffff;strokeWidth=1;perimeterSpacing=0;" parent="1" vertex="1">
          <mxGeometry x="-1228" y="238" width="968" height="609" as="geometry" />
        </mxCell>
        <mxCell id="soyHDLQrWCftBUpEwsDa-52" value="" style="rounded=0;whiteSpace=wrap;html=1;fillColor=#485665;strokeColor=#314354;fontColor=#ffffff;strokeWidth=1;perimeterSpacing=0;" parent="1" vertex="1">
          <mxGeometry x="67" y="238" width="958" height="609" as="geometry" />
        </mxCell>
        <mxCell id="soyHDLQrWCftBUpEwsDa-49" value="" style="rounded=0;whiteSpace=wrap;html=1;fillColor=#485665;strokeColor=#314354;" parent="1" vertex="1">
          <mxGeometry x="-451.5" y="-331" width="720" height="383" as="geometry" />
        </mxCell>
        <mxCell id="soyHDLQrWCftBUpEwsDa-13" style="edgeStyle=orthogonalEdgeStyle;rounded=0;orthogonalLoop=1;jettySize=auto;html=1;entryX=0.5;entryY=0;entryDx=0;entryDy=0;entryPerimeter=0;endArrow=none;endFill=0;strokeWidth=2;strokeColor=#FFCCFF;curved=0;dashed=1;comic=0;snapToPoint=0;fixDash=0;backgroundOutline=0;" parent="1" source="soyHDLQrWCftBUpEwsDa-1" target="soyHDLQrWCftBUpEwsDa-7" edge="1">
          <mxGeometry relative="1" as="geometry">
            <mxPoint x="148.5" y="397" as="targetPoint" />
            <Array as="points">
              <mxPoint x="149" y="577" />
              <mxPoint x="269" y="577" />
            </Array>
          </mxGeometry>
        </mxCell>
        <mxCell id="soyHDLQrWCftBUpEwsDa-14" style="edgeStyle=orthogonalEdgeStyle;rounded=0;orthogonalLoop=1;jettySize=auto;html=1;endArrow=none;endFill=0;strokeWidth=2;strokeColor=#FFCCFF;curved=0;dashed=1;comic=0;snapToPoint=0;fixDash=0;backgroundOutline=0;" parent="1" source="soyHDLQrWCftBUpEwsDa-1" target="soyHDLQrWCftBUpEwsDa-10" edge="1">
          <mxGeometry relative="1" as="geometry">
            <Array as="points">
              <mxPoint x="149" y="577" />
              <mxPoint x="389" y="577" />
            </Array>
          </mxGeometry>
        </mxCell>
        <mxCell id="soyHDLQrWCftBUpEwsDa-15" style="edgeStyle=orthogonalEdgeStyle;rounded=0;orthogonalLoop=1;jettySize=auto;html=1;endArrow=none;endFill=0;strokeWidth=2;strokeColor=#FFCCFF;curved=0;dashed=1;comic=0;snapToPoint=0;fixDash=0;backgroundOutline=0;" parent="1" source="soyHDLQrWCftBUpEwsDa-1" target="soyHDLQrWCftBUpEwsDa-11" edge="1">
          <mxGeometry relative="1" as="geometry">
            <Array as="points">
              <mxPoint x="149" y="577" />
              <mxPoint x="509" y="577" />
            </Array>
          </mxGeometry>
        </mxCell>
        <mxCell id="soyHDLQrWCftBUpEwsDa-23" style="edgeStyle=orthogonalEdgeStyle;rounded=0;orthogonalLoop=1;jettySize=auto;html=1;dashed=1;strokeColor=#E6FFCC;strokeWidth=2;endArrow=none;endFill=0;entryX=0;entryY=0.5;entryDx=0;entryDy=0;entryPerimeter=0;" parent="1" source="soyHDLQrWCftBUpEwsDa-1" target="6ivqhQxys0qo0ZL2RCj_-38" edge="1">
          <mxGeometry relative="1" as="geometry">
            <Array as="points">
              <mxPoint x="646" y="345" />
              <mxPoint x="646" y="392" />
              <mxPoint x="724" y="392" />
            </Array>
            <mxPoint x="767" y="402" as="targetPoint" />
          </mxGeometry>
        </mxCell>
        <mxCell id="soyHDLQrWCftBUpEwsDa-24" style="edgeStyle=orthogonalEdgeStyle;rounded=0;orthogonalLoop=1;jettySize=auto;html=1;entryX=0;entryY=0.5;entryDx=0;entryDy=0;entryPerimeter=0;dashed=1;strokeColor=#E6FFCC;strokeWidth=2;endArrow=none;endFill=0;exitX=0.98;exitY=0.5;exitDx=0;exitDy=0;exitPerimeter=0;" parent="1" source="soyHDLQrWCftBUpEwsDa-1" target="6ivqhQxys0qo0ZL2RCj_-37" edge="1">
          <mxGeometry relative="1" as="geometry">
            <Array as="points">
              <mxPoint x="646" y="345" />
              <mxPoint x="646" y="558" />
            </Array>
            <mxPoint x="724" y="597" as="targetPoint" />
          </mxGeometry>
        </mxCell>
        <mxCell id="GTzlq-Ta59_qip9z7J02-10" style="edgeStyle=orthogonalEdgeStyle;rounded=0;orthogonalLoop=1;jettySize=auto;html=1;strokeWidth=2;dashed=1;endArrow=none;endFill=0;" edge="1" parent="1" source="soyHDLQrWCftBUpEwsDa-1" target="GTzlq-Ta59_qip9z7J02-9">
          <mxGeometry relative="1" as="geometry">
            <Array as="points">
              <mxPoint x="-91" y="141" />
              <mxPoint x="763" y="141" />
            </Array>
          </mxGeometry>
        </mxCell>
        <mxCell id="soyHDLQrWCftBUpEwsDa-1" value="" style="shape=mxgraph.cisco.switches.workgroup_switch;sketch=0;html=1;pointerEvents=1;dashed=0;fillColor=#036897;strokeColor=#ffffff;strokeWidth=2;verticalLabelPosition=bottom;verticalAlign=top;align=center;outlineConnect=0;" parent="1" vertex="1">
          <mxGeometry x="-142" y="320" width="101" height="50" as="geometry" />
        </mxCell>
        <mxCell id="soyHDLQrWCftBUpEwsDa-7" value="" style="shape=mxgraph.cisco.computers_and_peripherals.workstation;sketch=0;html=1;pointerEvents=1;dashed=0;fillColor=#036897;strokeColor=#ffffff;strokeWidth=2;verticalLabelPosition=bottom;verticalAlign=top;align=center;outlineConnect=0;" parent="1" vertex="1">
          <mxGeometry x="227" y="677" width="83" height="62" as="geometry" />
        </mxCell>
        <mxCell id="soyHDLQrWCftBUpEwsDa-8" value="" style="shape=mxgraph.cisco.computers_and_peripherals.workstation;sketch=0;html=1;pointerEvents=1;dashed=0;fillColor=#036897;strokeColor=#ffffff;strokeWidth=2;verticalLabelPosition=bottom;verticalAlign=top;align=center;outlineConnect=0;" parent="1" vertex="1">
          <mxGeometry x="587" y="677" width="83" height="62" as="geometry" />
        </mxCell>
        <mxCell id="soyHDLQrWCftBUpEwsDa-9" value="" style="shape=mxgraph.cisco.computers_and_peripherals.workstation;sketch=0;html=1;pointerEvents=1;dashed=0;fillColor=#036897;strokeColor=#ffffff;strokeWidth=2;verticalLabelPosition=bottom;verticalAlign=top;align=center;outlineConnect=0;" parent="1" vertex="1">
          <mxGeometry x="107" y="677" width="80" height="62" as="geometry" />
        </mxCell>
        <mxCell id="soyHDLQrWCftBUpEwsDa-10" value="" style="shape=mxgraph.cisco.computers_and_peripherals.workstation;sketch=0;html=1;pointerEvents=1;dashed=0;fillColor=#036897;strokeColor=#ffffff;strokeWidth=2;verticalLabelPosition=bottom;verticalAlign=top;align=center;outlineConnect=0;" parent="1" vertex="1">
          <mxGeometry x="347" y="677" width="83" height="62" as="geometry" />
        </mxCell>
        <mxCell id="soyHDLQrWCftBUpEwsDa-11" value="" style="shape=mxgraph.cisco.computers_and_peripherals.workstation;sketch=0;html=1;pointerEvents=1;dashed=0;fillColor=#036897;strokeColor=#ffffff;strokeWidth=2;verticalLabelPosition=bottom;verticalAlign=top;align=center;outlineConnect=0;" parent="1" vertex="1">
          <mxGeometry x="467" y="677" width="83" height="62" as="geometry" />
        </mxCell>
        <mxCell id="soyHDLQrWCftBUpEwsDa-12" style="edgeStyle=orthogonalEdgeStyle;rounded=0;orthogonalLoop=1;jettySize=auto;html=1;entryX=0.5;entryY=0;entryDx=0;entryDy=0;entryPerimeter=0;endArrow=none;endFill=0;strokeColor=#FFCCFF;strokeWidth=2;startArrow=none;startFill=0;dashed=1;comic=0;snapToPoint=0;fixDash=0;backgroundOutline=0;" parent="1" source="soyHDLQrWCftBUpEwsDa-1" target="soyHDLQrWCftBUpEwsDa-9" edge="1">
          <mxGeometry relative="1" as="geometry">
            <Array as="points">
              <mxPoint x="149" y="345" />
              <mxPoint x="149" y="677" />
            </Array>
          </mxGeometry>
        </mxCell>
        <mxCell id="soyHDLQrWCftBUpEwsDa-16" style="edgeStyle=orthogonalEdgeStyle;rounded=0;orthogonalLoop=1;jettySize=auto;html=1;entryX=0.5;entryY=0;entryDx=0;entryDy=0;entryPerimeter=0;strokeWidth=2;strokeColor=#FFCCFF;endArrow=none;endFill=0;curved=0;targetPerimeterSpacing=0;jumpSize=0;dashed=1;comic=0;snapToPoint=0;fixDash=0;backgroundOutline=0;exitX=0.98;exitY=0.5;exitDx=0;exitDy=0;exitPerimeter=0;" parent="1" source="soyHDLQrWCftBUpEwsDa-1" edge="1">
          <mxGeometry relative="1" as="geometry">
            <mxPoint x="148.78692307692287" y="367" as="sourcePoint" />
            <mxPoint x="628.2099999999996" y="677" as="targetPoint" />
            <Array as="points">
              <mxPoint x="149" y="345" />
              <mxPoint x="149" y="577" />
              <mxPoint x="628" y="577" />
            </Array>
          </mxGeometry>
        </mxCell>
        <mxCell id="soyHDLQrWCftBUpEwsDa-25" value="" style="shape=mxgraph.cisco.servers.fileserver;sketch=0;html=1;pointerEvents=1;dashed=0;fillColor=#036897;strokeColor=#ffffff;strokeWidth=2;verticalLabelPosition=bottom;verticalAlign=top;align=center;outlineConnect=0;" parent="1" vertex="1">
          <mxGeometry x="-402.5" y="-238" width="63" height="80" as="geometry" />
        </mxCell>
        <mxCell id="soyHDLQrWCftBUpEwsDa-31" value="&lt;div&gt;&lt;b&gt;&lt;font color=&quot;#000000&quot;&gt;&lt;u&gt;Windows Server&lt;/u&gt;&lt;/font&gt;&lt;/b&gt;&lt;/div&gt;&lt;b&gt;&lt;font color=&quot;#000000&quot;&gt;dc.hopital.lan&lt;/font&gt;&lt;/b&gt;&lt;div&gt;&lt;b style=&quot;background-color: initial; color: rgb(0, 0, 0);&quot;&gt;172.20.0.1&lt;/b&gt;&lt;b&gt;&lt;font color=&quot;#000000&quot;&gt;&lt;br&gt;&lt;/font&gt;&lt;/b&gt;&lt;/div&gt;" style="rounded=1;whiteSpace=wrap;html=1;fillColor=#EEEEEE;strokeColor=#36393D;" parent="1" vertex="1">
          <mxGeometry x="-320.5" y="-213.5" width="120" height="60" as="geometry" />
        </mxCell>
        <mxCell id="soyHDLQrWCftBUpEwsDa-32" value="&lt;div&gt;&lt;b&gt;&lt;font color=&quot;#000000&quot;&gt;&lt;u&gt;Windows Server&lt;/u&gt;&lt;/font&gt;&lt;/b&gt;&lt;/div&gt;&lt;b&gt;&lt;font color=&quot;#000000&quot;&gt;winServG4.hopital.lan&lt;/font&gt;&lt;/b&gt;&lt;div&gt;&lt;b style=&quot;color: rgb(0, 0, 0);&quot;&gt;172.19.0.1&lt;/b&gt;&lt;br&gt;&lt;/div&gt;" style="rounded=1;whiteSpace=wrap;html=1;fillColor=#EEEEEE;strokeColor=#36393D;" parent="1" vertex="1">
          <mxGeometry x="813" y="356" width="160" height="60" as="geometry" />
        </mxCell>
        <mxCell id="soyHDLQrWCftBUpEwsDa-33" value="&lt;div&gt;&lt;b&gt;&lt;font color=&quot;#000000&quot;&gt;&lt;u&gt;Linux Server&lt;/u&gt;&lt;/font&gt;&lt;/b&gt;&lt;/div&gt;&lt;b&gt;&lt;font color=&quot;#000000&quot;&gt;reabilitation.hopital.lan&lt;/font&gt;&lt;/b&gt;&lt;div&gt;&lt;b style=&quot;color: rgb(0, 0, 0);&quot;&gt;172.19.0.2&lt;/b&gt;&lt;br&gt;&lt;/div&gt;" style="rounded=1;whiteSpace=wrap;html=1;fillColor=#EEEEEE;strokeColor=#36393D;" parent="1" vertex="1">
          <mxGeometry x="813" y="511" width="160" height="60" as="geometry" />
        </mxCell>
        <mxCell id="soyHDLQrWCftBUpEwsDa-35" value="&lt;div&gt;&lt;b style=&quot;&quot;&gt;&lt;font color=&quot;#ff8000&quot;&gt;Dev 1&lt;/font&gt;&lt;/b&gt;&lt;/div&gt;&lt;b style=&quot;color: rgb(0, 0, 0);&quot;&gt;172.19.0.3&lt;/b&gt;" style="rounded=1;whiteSpace=wrap;html=1;fillColor=#eeeeee;strokeColor=#36393d;" parent="1" vertex="1">
          <mxGeometry x="87" y="777" width="100" height="50" as="geometry" />
        </mxCell>
        <mxCell id="soyHDLQrWCftBUpEwsDa-36" value="&lt;div&gt;&lt;b style=&quot;&quot;&gt;&lt;font color=&quot;#ff8000&quot;&gt;Dev 2&lt;/font&gt;&lt;/b&gt;&lt;/div&gt;&lt;div&gt;&lt;b style=&quot;color: rgb(0, 0, 0);&quot;&gt;172.19.0.4&lt;/b&gt;&lt;br&gt;&lt;/div&gt;" style="rounded=1;whiteSpace=wrap;html=1;fillColor=#eeeeee;strokeColor=#36393d;" parent="1" vertex="1">
          <mxGeometry x="208" y="777" width="100" height="50" as="geometry" />
        </mxCell>
        <mxCell id="soyHDLQrWCftBUpEwsDa-37" value="&lt;div&gt;&lt;b style=&quot;&quot;&gt;&lt;font color=&quot;#007fff&quot;&gt;Sec 1&lt;/font&gt;&lt;/b&gt;&lt;/div&gt;&lt;div&gt;&lt;b style=&quot;color: rgb(0, 0, 0);&quot;&gt;172.19.0.5&lt;/b&gt;&lt;br&gt;&lt;/div&gt;" style="rounded=1;whiteSpace=wrap;html=1;fillColor=#eeeeee;strokeColor=#36393d;" parent="1" vertex="1">
          <mxGeometry x="328" y="777" width="100" height="50" as="geometry" />
        </mxCell>
        <mxCell id="soyHDLQrWCftBUpEwsDa-38" value="&lt;div&gt;&lt;b style=&quot;&quot;&gt;&lt;font color=&quot;#007fff&quot;&gt;Sec 2&lt;/font&gt;&lt;/b&gt;&lt;/div&gt;&lt;div&gt;&lt;b style=&quot;color: rgb(0, 0, 0);&quot;&gt;172.19.0.6&lt;/b&gt;&lt;br&gt;&lt;/div&gt;" style="rounded=1;whiteSpace=wrap;html=1;fillColor=#eeeeee;strokeColor=#36393d;" parent="1" vertex="1">
          <mxGeometry x="450" y="777" width="100" height="50" as="geometry" />
        </mxCell>
        <mxCell id="soyHDLQrWCftBUpEwsDa-39" value="&lt;div&gt;&lt;b style=&quot;&quot;&gt;&lt;font color=&quot;#007fff&quot;&gt;Sec 3&lt;/font&gt;&lt;/b&gt;&lt;/div&gt;&lt;div&gt;&lt;b style=&quot;color: rgb(0, 0, 0);&quot;&gt;172.19.0.7&lt;/b&gt;&lt;br&gt;&lt;/div&gt;" style="rounded=1;whiteSpace=wrap;html=1;fillColor=#EEEEEE;strokeColor=#36393D;" parent="1" vertex="1">
          <mxGeometry x="570" y="777" width="100" height="50" as="geometry" />
        </mxCell>
        <mxCell id="vWI4zveBEEdujr9KzqbE-9" style="edgeStyle=orthogonalEdgeStyle;rounded=0;orthogonalLoop=1;jettySize=auto;html=1;endArrow=none;endFill=0;strokeWidth=2;dashed=1;" parent="1" source="soyHDLQrWCftBUpEwsDa-46" target="soyHDLQrWCftBUpEwsDa-1" edge="1">
          <mxGeometry relative="1" as="geometry" />
        </mxCell>
        <mxCell id="soyHDLQrWCftBUpEwsDa-46" value="" style="shape=mxgraph.cisco.servers.fileserver;sketch=0;html=1;pointerEvents=1;dashed=0;fillColor=#036897;strokeColor=#ffffff;strokeWidth=2;verticalLabelPosition=bottom;verticalAlign=top;align=center;outlineConnect=0;" parent="1" vertex="1">
          <mxGeometry x="-146.5" y="-238" width="63" height="80" as="geometry" />
        </mxCell>
        <mxCell id="soyHDLQrWCftBUpEwsDa-47" value="&lt;font color=&quot;#000000&quot;&gt;&lt;b&gt;&lt;u&gt;Linux&lt;/u&gt;&lt;/b&gt;&lt;/font&gt;&lt;div&gt;&lt;font color=&quot;#000000&quot;&gt;&lt;b&gt;web.hopital.lan&lt;/b&gt;&lt;/font&gt;&lt;/div&gt;&lt;div&gt;&lt;b style=&quot;background-color: initial; color: rgb(0, 0, 0);&quot;&gt;172.20.0.2&lt;/b&gt;&lt;font color=&quot;#000000&quot;&gt;&lt;b&gt;&lt;br&gt;&lt;/b&gt;&lt;/font&gt;&lt;/div&gt;" style="rounded=1;whiteSpace=wrap;html=1;fillColor=#EEEEEE;strokeColor=#36393D;" parent="1" vertex="1">
          <mxGeometry x="-47.5" y="-213.5" width="120" height="60" as="geometry" />
        </mxCell>
        <mxCell id="soyHDLQrWCftBUpEwsDa-50" value="&lt;b&gt;&lt;font style=&quot;font-size: 19px;&quot; color=&quot;#000000&quot;&gt;&lt;u&gt;VLAN 100&lt;/u&gt;&lt;/font&gt;&lt;/b&gt;&lt;div&gt;&lt;b style=&quot;background-color: initial; color: rgb(0, 0, 0);&quot;&gt;172.20.0.254&lt;/b&gt;&lt;b&gt;&lt;font style=&quot;font-size: 19px;&quot; color=&quot;#000000&quot;&gt;&lt;u&gt;&lt;br&gt;&lt;/u&gt;&lt;/font&gt;&lt;/b&gt;&lt;/div&gt;" style="rounded=0;whiteSpace=wrap;html=1;fillColor=#D0A5C0;strokeColor=#A50040;fontColor=#ffffff;" parent="1" vertex="1">
          <mxGeometry x="-451.5" y="-331" width="120" height="60" as="geometry" />
        </mxCell>
        <mxCell id="soyHDLQrWCftBUpEwsDa-54" value="&lt;b&gt;&lt;font style=&quot;font-size: 19px;&quot; color=&quot;#000000&quot;&gt;&lt;u&gt;VLAN 40&lt;/u&gt;&lt;/font&gt;&lt;/b&gt;&lt;div&gt;&lt;b style=&quot;color: rgb(77, 77, 77);&quot;&gt;172.19.255.254&lt;/b&gt;&lt;b&gt;&lt;font style=&quot;font-size: 19px;&quot; color=&quot;#000000&quot;&gt;&lt;u&gt;&lt;br&gt;&lt;/u&gt;&lt;/font&gt;&lt;/b&gt;&lt;/div&gt;" style="rounded=0;whiteSpace=wrap;html=1;fillColor=#D0A5C0;strokeColor=#A50040;fontColor=#ffffff;" parent="1" vertex="1">
          <mxGeometry x="874" y="245" width="120" height="60" as="geometry" />
        </mxCell>
        <mxCell id="IF7U_VyuJhsHZCORkD-T-10" value="" style="shape=mxgraph.cisco.servers.fileserver;html=1;pointerEvents=1;fillColor=#036897;strokeColor=#ffffff;strokeWidth=2;verticalLabelPosition=bottom;verticalAlign=top;align=center;outlineConnect=0;comic=0;snapToPoint=0;fixDash=0;backgroundOutline=0;" parent="1" vertex="1">
          <mxGeometry x="-992.5" y="518" width="63" height="80" as="geometry" />
        </mxCell>
        <mxCell id="IF7U_VyuJhsHZCORkD-T-11" value="" style="shape=mxgraph.cisco.servers.fileserver;sketch=0;html=1;pointerEvents=1;dashed=0;fillColor=#036897;strokeColor=#ffffff;strokeWidth=2;verticalLabelPosition=bottom;verticalAlign=top;align=center;outlineConnect=0;" parent="1" vertex="1">
          <mxGeometry x="-992.5" y="351.5" width="63" height="80" as="geometry" />
        </mxCell>
        <mxCell id="IF7U_VyuJhsHZCORkD-T-12" value="" style="shape=mxgraph.cisco.computers_and_peripherals.workstation;sketch=0;html=1;pointerEvents=1;dashed=0;fillColor=#036897;strokeColor=#ffffff;strokeWidth=2;verticalLabelPosition=bottom;verticalAlign=top;align=center;outlineConnect=0;" parent="1" vertex="1">
          <mxGeometry x="-756" y="684" width="83" height="62" as="geometry" />
        </mxCell>
        <mxCell id="IF7U_VyuJhsHZCORkD-T-14" value="" style="shape=mxgraph.cisco.computers_and_peripherals.workstation;sketch=0;html=1;pointerEvents=1;dashed=0;fillColor=#036897;strokeColor=#ffffff;strokeWidth=2;verticalLabelPosition=bottom;verticalAlign=top;align=center;outlineConnect=0;" parent="1" vertex="1">
          <mxGeometry x="-876" y="684" width="80" height="62" as="geometry" />
        </mxCell>
        <mxCell id="IF7U_VyuJhsHZCORkD-T-15" value="" style="shape=mxgraph.cisco.computers_and_peripherals.workstation;sketch=0;html=1;pointerEvents=1;dashed=0;fillColor=#036897;strokeColor=#ffffff;strokeWidth=2;verticalLabelPosition=bottom;verticalAlign=top;align=center;outlineConnect=0;" parent="1" vertex="1">
          <mxGeometry x="-636" y="684" width="83" height="62" as="geometry" />
        </mxCell>
        <mxCell id="IF7U_VyuJhsHZCORkD-T-16" value="" style="shape=mxgraph.cisco.computers_and_peripherals.workstation;sketch=0;html=1;pointerEvents=1;dashed=0;fillColor=#036897;strokeColor=#ffffff;strokeWidth=2;verticalLabelPosition=bottom;verticalAlign=top;align=center;outlineConnect=0;" parent="1" vertex="1">
          <mxGeometry x="-516" y="684" width="83" height="62" as="geometry" />
        </mxCell>
        <mxCell id="IF7U_VyuJhsHZCORkD-T-21" value="&lt;div&gt;&lt;b&gt;&lt;font color=&quot;#000000&quot;&gt;&lt;u&gt;Windows Server&lt;/u&gt;&lt;/font&gt;&lt;/b&gt;&lt;/div&gt;&lt;b&gt;&lt;font color=&quot;#000000&quot;&gt;winServG1.hopital.lan&lt;/font&gt;&lt;/b&gt;&lt;div&gt;&lt;b&gt;&lt;font color=&quot;#000000&quot;&gt;172.16.0.1&lt;/font&gt;&lt;/b&gt;&lt;/div&gt;" style="rounded=1;whiteSpace=wrap;html=1;fillColor=#EEEEEE;strokeColor=#36393D;" parent="1" vertex="1">
          <mxGeometry x="-1165" y="361.5" width="160" height="60" as="geometry" />
        </mxCell>
        <mxCell id="IF7U_VyuJhsHZCORkD-T-22" value="&lt;div&gt;&lt;b&gt;&lt;font color=&quot;#000000&quot;&gt;&lt;u&gt;Linux Server&lt;/u&gt;&lt;/font&gt;&lt;/b&gt;&lt;/div&gt;&lt;b&gt;&lt;font color=&quot;#000000&quot;&gt;general.hopital.lan&lt;/font&gt;&lt;/b&gt;&lt;div&gt;&lt;b&gt;&lt;font color=&quot;#000000&quot;&gt;172.16.0.2&lt;/font&gt;&lt;/b&gt;&lt;b&gt;&lt;font color=&quot;#000000&quot;&gt;&lt;br&gt;&lt;/font&gt;&lt;/b&gt;&lt;/div&gt;" style="rounded=1;whiteSpace=wrap;html=1;fillColor=#EEEEEE;strokeColor=#36393D;" parent="1" vertex="1">
          <mxGeometry x="-1165" y="528" width="160" height="60" as="geometry" />
        </mxCell>
        <mxCell id="IF7U_VyuJhsHZCORkD-T-23" value="&lt;div&gt;&lt;b style=&quot;&quot;&gt;&lt;font color=&quot;#ff8000&quot;&gt;Dev 1&lt;/font&gt;&lt;/b&gt;&lt;/div&gt;&lt;b&gt;&lt;font color=&quot;#000000&quot;&gt;172.16.0.3&lt;/font&gt;&lt;/b&gt;" style="rounded=1;whiteSpace=wrap;html=1;fillColor=#eeeeee;strokeColor=#36393d;" parent="1" vertex="1">
          <mxGeometry x="-896" y="784" width="100" height="50" as="geometry" />
        </mxCell>
        <mxCell id="IF7U_VyuJhsHZCORkD-T-24" value="&lt;div&gt;&lt;b style=&quot;&quot;&gt;&lt;font color=&quot;#ff8000&quot;&gt;Dev 2&lt;/font&gt;&lt;/b&gt;&lt;/div&gt;&lt;div&gt;&lt;b&gt;&lt;font color=&quot;#000000&quot;&gt;172.16.0.4&lt;/font&gt;&lt;/b&gt;&lt;br&gt;&lt;/div&gt;" style="rounded=1;whiteSpace=wrap;html=1;fillColor=#eeeeee;strokeColor=#36393d;" parent="1" vertex="1">
          <mxGeometry x="-775" y="784" width="100" height="50" as="geometry" />
        </mxCell>
        <mxCell id="IF7U_VyuJhsHZCORkD-T-25" value="&lt;div&gt;&lt;b style=&quot;&quot;&gt;&lt;font color=&quot;#007fff&quot;&gt;Sec 1&lt;/font&gt;&lt;/b&gt;&lt;/div&gt;&lt;div&gt;&lt;b&gt;&lt;font color=&quot;#000000&quot;&gt;172.16.0.5&lt;/font&gt;&lt;/b&gt;&lt;br&gt;&lt;/div&gt;" style="rounded=1;whiteSpace=wrap;html=1;fillColor=#eeeeee;strokeColor=#36393d;" parent="1" vertex="1">
          <mxGeometry x="-655" y="784" width="100" height="50" as="geometry" />
        </mxCell>
        <mxCell id="IF7U_VyuJhsHZCORkD-T-26" value="&lt;div&gt;&lt;b style=&quot;&quot;&gt;&lt;font color=&quot;#007fff&quot;&gt;Sec 2&lt;/font&gt;&lt;/b&gt;&lt;/div&gt;&lt;div&gt;&lt;b&gt;&lt;font color=&quot;#000000&quot;&gt;172.16.0.6&lt;/font&gt;&lt;/b&gt;&lt;br&gt;&lt;/div&gt;" style="rounded=1;whiteSpace=wrap;html=1;fillColor=#eeeeee;strokeColor=#36393d;" parent="1" vertex="1">
          <mxGeometry x="-533" y="784" width="100" height="50" as="geometry" />
        </mxCell>
        <mxCell id="IF7U_VyuJhsHZCORkD-T-33" value="&lt;b&gt;&lt;font style=&quot;font-size: 19px;&quot; color=&quot;#000000&quot;&gt;&lt;u&gt;VLAN 10&lt;/u&gt;&lt;/font&gt;&lt;/b&gt;&lt;div&gt;&lt;b style=&quot;color: rgb(77, 77, 77);&quot;&gt;172.16.255.254&lt;/b&gt;&lt;b&gt;&lt;font style=&quot;font-size: 19px;&quot; color=&quot;#000000&quot;&gt;&lt;u&gt;&lt;br&gt;&lt;/u&gt;&lt;/font&gt;&lt;/b&gt;&lt;/div&gt;" style="rounded=0;whiteSpace=wrap;html=1;fillColor=#D0A5C0;strokeColor=#A50040;fontColor=#ffffff;" parent="1" vertex="1">
          <mxGeometry x="-380" y="787" width="120" height="60" as="geometry" />
        </mxCell>
        <mxCell id="IF7U_VyuJhsHZCORkD-T-66" value="" style="rounded=0;whiteSpace=wrap;html=1;fillColor=#485665;strokeColor=#314354;fontColor=#ffffff;strokeWidth=1;perimeterSpacing=0;" parent="1" vertex="1">
          <mxGeometry x="67" y="925" width="857" height="544" as="geometry" />
        </mxCell>
        <mxCell id="IF7U_VyuJhsHZCORkD-T-67" style="edgeStyle=orthogonalEdgeStyle;rounded=0;orthogonalLoop=1;jettySize=auto;html=1;entryX=0.5;entryY=0;entryDx=0;entryDy=0;entryPerimeter=0;endArrow=none;endFill=0;strokeWidth=2;strokeColor=#FFCCFF;curved=0;dashed=1;comic=0;snapToPoint=0;fixDash=0;backgroundOutline=0;exitX=0.5;exitY=0.98;exitDx=0;exitDy=0;exitPerimeter=0;" parent="1" source="soyHDLQrWCftBUpEwsDa-1" target="IF7U_VyuJhsHZCORkD-T-76" edge="1">
          <mxGeometry relative="1" as="geometry">
            <mxPoint x="148.5" y="1019" as="targetPoint" />
            <Array as="points">
              <mxPoint x="-91" y="1064" />
              <mxPoint x="149" y="1064" />
              <mxPoint x="149" y="1228" />
              <mxPoint x="269" y="1228" />
            </Array>
            <mxPoint x="149.07692307692287" y="988.9999999999998" as="sourcePoint" />
          </mxGeometry>
        </mxCell>
        <mxCell id="IF7U_VyuJhsHZCORkD-T-68" style="edgeStyle=orthogonalEdgeStyle;rounded=0;orthogonalLoop=1;jettySize=auto;html=1;endArrow=none;endFill=0;strokeWidth=2;strokeColor=#FFCCFF;curved=0;dashed=1;comic=0;snapToPoint=0;fixDash=0;backgroundOutline=0;exitX=0.5;exitY=0.98;exitDx=0;exitDy=0;exitPerimeter=0;" parent="1" source="soyHDLQrWCftBUpEwsDa-1" target="IF7U_VyuJhsHZCORkD-T-79" edge="1">
          <mxGeometry relative="1" as="geometry">
            <Array as="points">
              <mxPoint x="-91" y="1064" />
              <mxPoint x="149" y="1064" />
              <mxPoint x="149" y="1228" />
              <mxPoint x="389" y="1228" />
            </Array>
            <mxPoint x="149.07692307692287" y="988.9999999999998" as="sourcePoint" />
          </mxGeometry>
        </mxCell>
        <mxCell id="IF7U_VyuJhsHZCORkD-T-69" style="edgeStyle=orthogonalEdgeStyle;rounded=0;orthogonalLoop=1;jettySize=auto;html=1;endArrow=none;endFill=0;strokeWidth=2;strokeColor=#FFCCFF;curved=0;dashed=1;comic=0;snapToPoint=0;fixDash=0;backgroundOutline=0;exitX=0.5;exitY=0.98;exitDx=0;exitDy=0;exitPerimeter=0;" parent="1" source="soyHDLQrWCftBUpEwsDa-1" target="IF7U_VyuJhsHZCORkD-T-80" edge="1">
          <mxGeometry relative="1" as="geometry">
            <Array as="points">
              <mxPoint x="-91" y="1064" />
              <mxPoint x="149" y="1064" />
              <mxPoint x="149" y="1228" />
              <mxPoint x="509" y="1228" />
            </Array>
            <mxPoint x="149.07692307692287" y="988.9999999999998" as="sourcePoint" />
          </mxGeometry>
        </mxCell>
        <mxCell id="IF7U_VyuJhsHZCORkD-T-70" style="edgeStyle=orthogonalEdgeStyle;rounded=0;orthogonalLoop=1;jettySize=auto;html=1;dashed=1;strokeColor=#E6FFCC;strokeWidth=2;endArrow=none;endFill=0;exitX=0.5;exitY=0.98;exitDx=0;exitDy=0;exitPerimeter=0;entryX=0;entryY=0.5;entryDx=0;entryDy=0;entryPerimeter=0;" parent="1" target="6ivqhQxys0qo0ZL2RCj_-42" edge="1">
          <mxGeometry relative="1" as="geometry">
            <Array as="points">
              <mxPoint x="-91" y="370" />
              <mxPoint x="-91" y="1064" />
            </Array>
            <mxPoint x="-97" y="370" as="sourcePoint" />
            <mxPoint x="624" y="1064" as="targetPoint" />
          </mxGeometry>
        </mxCell>
        <mxCell id="IF7U_VyuJhsHZCORkD-T-71" style="edgeStyle=orthogonalEdgeStyle;rounded=0;orthogonalLoop=1;jettySize=auto;html=1;entryX=0;entryY=0.5;entryDx=0;entryDy=0;entryPerimeter=0;dashed=1;strokeColor=#E6FFCC;strokeWidth=2;endArrow=none;endFill=0;exitX=0.5;exitY=0.98;exitDx=0;exitDy=0;exitPerimeter=0;" parent="1" source="soyHDLQrWCftBUpEwsDa-1" target="6ivqhQxys0qo0ZL2RCj_-41" edge="1">
          <mxGeometry relative="1" as="geometry">
            <Array as="points">
              <mxPoint x="-92" y="1064" />
              <mxPoint x="545" y="1064" />
              <mxPoint x="545" y="1180" />
            </Array>
            <mxPoint x="147.53846153846143" y="988.9999999999998" as="sourcePoint" />
            <mxPoint x="624" y="1219" as="targetPoint" />
          </mxGeometry>
        </mxCell>
        <mxCell id="IF7U_VyuJhsHZCORkD-T-76" value="" style="shape=mxgraph.cisco.computers_and_peripherals.workstation;sketch=0;html=1;pointerEvents=1;dashed=0;fillColor=#036897;strokeColor=#ffffff;strokeWidth=2;verticalLabelPosition=bottom;verticalAlign=top;align=center;outlineConnect=0;" parent="1" vertex="1">
          <mxGeometry x="227" y="1299" width="83" height="62" as="geometry" />
        </mxCell>
        <mxCell id="IF7U_VyuJhsHZCORkD-T-78" value="" style="shape=mxgraph.cisco.computers_and_peripherals.workstation;sketch=0;html=1;pointerEvents=1;dashed=0;fillColor=#036897;strokeColor=#ffffff;strokeWidth=2;verticalLabelPosition=bottom;verticalAlign=top;align=center;outlineConnect=0;" parent="1" vertex="1">
          <mxGeometry x="107" y="1299" width="80" height="62" as="geometry" />
        </mxCell>
        <mxCell id="IF7U_VyuJhsHZCORkD-T-79" value="" style="shape=mxgraph.cisco.computers_and_peripherals.workstation;sketch=0;html=1;pointerEvents=1;dashed=0;fillColor=#036897;strokeColor=#ffffff;strokeWidth=2;verticalLabelPosition=bottom;verticalAlign=top;align=center;outlineConnect=0;" parent="1" vertex="1">
          <mxGeometry x="347" y="1299" width="83" height="62" as="geometry" />
        </mxCell>
        <mxCell id="IF7U_VyuJhsHZCORkD-T-80" value="" style="shape=mxgraph.cisco.computers_and_peripherals.workstation;sketch=0;html=1;pointerEvents=1;dashed=0;fillColor=#036897;strokeColor=#ffffff;strokeWidth=2;verticalLabelPosition=bottom;verticalAlign=top;align=center;outlineConnect=0;" parent="1" vertex="1">
          <mxGeometry x="467" y="1299" width="83" height="62" as="geometry" />
        </mxCell>
        <mxCell id="IF7U_VyuJhsHZCORkD-T-81" style="edgeStyle=orthogonalEdgeStyle;rounded=0;orthogonalLoop=1;jettySize=auto;html=1;entryX=0.5;entryY=0;entryDx=0;entryDy=0;entryPerimeter=0;endArrow=none;endFill=0;strokeColor=#FFCCFF;strokeWidth=2;startArrow=none;startFill=0;dashed=1;comic=0;snapToPoint=0;fixDash=0;backgroundOutline=0;exitX=0.5;exitY=0.98;exitDx=0;exitDy=0;exitPerimeter=0;" parent="1" source="soyHDLQrWCftBUpEwsDa-1" target="IF7U_VyuJhsHZCORkD-T-78" edge="1">
          <mxGeometry relative="1" as="geometry">
            <mxPoint x="147.53846153846143" y="988.9999999999998" as="sourcePoint" />
            <Array as="points">
              <mxPoint x="-91" y="1064" />
              <mxPoint x="149" y="1064" />
              <mxPoint x="149" y="1299" />
            </Array>
          </mxGeometry>
        </mxCell>
        <mxCell id="IF7U_VyuJhsHZCORkD-T-85" value="&lt;div&gt;&lt;b&gt;&lt;font color=&quot;#000000&quot;&gt;&lt;u&gt;Windows Server&lt;/u&gt;&lt;/font&gt;&lt;/b&gt;&lt;/div&gt;&lt;b&gt;&lt;font color=&quot;#000000&quot;&gt;winServG3.hopital.lan&lt;/font&gt;&lt;/b&gt;&lt;div&gt;&lt;b style=&quot;background-color: initial; color: rgb(0, 0, 0);&quot;&gt;172.17.0.1&lt;/b&gt;&lt;/div&gt;" style="rounded=1;whiteSpace=wrap;html=1;fillColor=#EEEEEE;strokeColor=#36393D;" parent="1" vertex="1">
          <mxGeometry x="724" y="1016" width="160" height="60" as="geometry" />
        </mxCell>
        <mxCell id="IF7U_VyuJhsHZCORkD-T-86" value="&lt;div&gt;&lt;b&gt;&lt;font color=&quot;#000000&quot;&gt;&lt;u&gt;Linux Server&lt;/u&gt;&lt;/font&gt;&lt;/b&gt;&lt;/div&gt;&lt;b&gt;&lt;font color=&quot;#000000&quot;&gt;si.hopital.lan&lt;/font&gt;&lt;/b&gt;&lt;div&gt;&lt;b style=&quot;background-color: initial; color: rgb(0, 0, 0);&quot;&gt;172.17.0.2&lt;/b&gt;&lt;/div&gt;" style="rounded=1;whiteSpace=wrap;html=1;fillColor=#EEEEEE;strokeColor=#36393D;" parent="1" vertex="1">
          <mxGeometry x="723.5" y="1150" width="160" height="60" as="geometry" />
        </mxCell>
        <mxCell id="IF7U_VyuJhsHZCORkD-T-87" value="&lt;div&gt;&lt;b style=&quot;&quot;&gt;&lt;font color=&quot;#ff8000&quot;&gt;Dev 1&lt;/font&gt;&lt;/b&gt;&lt;/div&gt;&lt;font color=&quot;#000000&quot;&gt;&lt;b&gt;172.17.0.3&lt;/b&gt;&lt;/font&gt;" style="rounded=1;whiteSpace=wrap;html=1;fillColor=#eeeeee;strokeColor=#36393d;" parent="1" vertex="1">
          <mxGeometry x="87" y="1399" width="100" height="50" as="geometry" />
        </mxCell>
        <mxCell id="IF7U_VyuJhsHZCORkD-T-88" value="&lt;div&gt;&lt;b style=&quot;&quot;&gt;&lt;font color=&quot;#ff8000&quot;&gt;Dev 2&lt;/font&gt;&lt;/b&gt;&lt;/div&gt;&lt;div&gt;&lt;b style=&quot;color: rgb(0, 0, 0);&quot;&gt;172.17.0.4&lt;/b&gt;&lt;br&gt;&lt;/div&gt;" style="rounded=1;whiteSpace=wrap;html=1;fillColor=#eeeeee;strokeColor=#36393d;" parent="1" vertex="1">
          <mxGeometry x="208" y="1399" width="100" height="50" as="geometry" />
        </mxCell>
        <mxCell id="IF7U_VyuJhsHZCORkD-T-89" value="&lt;div&gt;&lt;b style=&quot;&quot;&gt;&lt;font color=&quot;#007fff&quot;&gt;Sec 1&lt;/font&gt;&lt;/b&gt;&lt;/div&gt;&lt;div&gt;&lt;b style=&quot;color: rgb(0, 0, 0);&quot;&gt;172.17.0.5&lt;/b&gt;&lt;br&gt;&lt;/div&gt;" style="rounded=1;whiteSpace=wrap;html=1;fillColor=#eeeeee;strokeColor=#36393d;" parent="1" vertex="1">
          <mxGeometry x="328" y="1399" width="100" height="50" as="geometry" />
        </mxCell>
        <mxCell id="IF7U_VyuJhsHZCORkD-T-90" value="&lt;div&gt;&lt;b style=&quot;&quot;&gt;&lt;font color=&quot;#007fff&quot;&gt;Sec 2&lt;/font&gt;&lt;/b&gt;&lt;/div&gt;&lt;div&gt;&lt;b style=&quot;color: rgb(0, 0, 0);&quot;&gt;172.17.0.6&lt;/b&gt;&lt;br&gt;&lt;/div&gt;" style="rounded=1;whiteSpace=wrap;html=1;fillColor=#eeeeee;strokeColor=#36393d;" parent="1" vertex="1">
          <mxGeometry x="450" y="1399" width="100" height="50" as="geometry" />
        </mxCell>
        <mxCell id="IF7U_VyuJhsHZCORkD-T-97" value="&lt;b&gt;&lt;font style=&quot;font-size: 19px;&quot; color=&quot;#000000&quot;&gt;&lt;u&gt;VLAN 30&lt;/u&gt;&lt;/font&gt;&lt;/b&gt;&lt;div&gt;&lt;b style=&quot;color: rgb(77, 77, 77);&quot;&gt;172.17.255.254&lt;/b&gt;&lt;b&gt;&lt;font style=&quot;font-size: 19px;&quot; color=&quot;#000000&quot;&gt;&lt;u&gt;&lt;br&gt;&lt;/u&gt;&lt;/font&gt;&lt;/b&gt;&lt;/div&gt;" style="rounded=0;whiteSpace=wrap;html=1;fillColor=#D0A5C0;strokeColor=#A50040;fontColor=#ffffff;" parent="1" vertex="1">
          <mxGeometry x="804" y="925" width="120" height="60" as="geometry" />
        </mxCell>
        <mxCell id="IF7U_VyuJhsHZCORkD-T-143" style="edgeStyle=orthogonalEdgeStyle;rounded=0;orthogonalLoop=1;jettySize=auto;html=1;entryX=0;entryY=0.5;entryDx=0;entryDy=0;entryPerimeter=0;exitX=0.5;exitY=0;exitDx=0;exitDy=0;exitPerimeter=0;endArrow=none;endFill=0;dashed=1;strokeWidth=2;strokeColor=#FFCCFF;" parent="1" source="IF7U_VyuJhsHZCORkD-T-15" target="soyHDLQrWCftBUpEwsDa-1" edge="1">
          <mxGeometry relative="1" as="geometry">
            <Array as="points">
              <mxPoint x="-594" y="583" />
              <mxPoint x="-474" y="583" />
              <mxPoint x="-474" y="342" />
            </Array>
          </mxGeometry>
        </mxCell>
        <mxCell id="IF7U_VyuJhsHZCORkD-T-144" style="edgeStyle=orthogonalEdgeStyle;rounded=0;orthogonalLoop=1;jettySize=auto;html=1;exitX=0.5;exitY=0;exitDx=0;exitDy=0;exitPerimeter=0;entryX=0;entryY=0.5;entryDx=0;entryDy=0;entryPerimeter=0;endArrow=none;endFill=0;strokeWidth=2;strokeColor=#FFCCFF;dashed=1;" parent="1" source="IF7U_VyuJhsHZCORkD-T-12" target="soyHDLQrWCftBUpEwsDa-1" edge="1">
          <mxGeometry relative="1" as="geometry">
            <Array as="points">
              <mxPoint x="-714" y="583" />
              <mxPoint x="-474" y="583" />
              <mxPoint x="-474" y="342" />
            </Array>
          </mxGeometry>
        </mxCell>
        <mxCell id="IF7U_VyuJhsHZCORkD-T-149" style="edgeStyle=orthogonalEdgeStyle;rounded=0;orthogonalLoop=1;jettySize=auto;html=1;entryX=0.5;entryY=0;entryDx=0;entryDy=0;entryPerimeter=0;exitX=0;exitY=0.5;exitDx=0;exitDy=0;exitPerimeter=0;endArrow=none;endFill=0;strokeWidth=2;dashed=1;strokeColor=#FFCCFF;" parent="1" source="soyHDLQrWCftBUpEwsDa-1" target="IF7U_VyuJhsHZCORkD-T-16" edge="1">
          <mxGeometry relative="1" as="geometry">
            <Array as="points">
              <mxPoint x="-474" y="342" />
              <mxPoint x="-474" y="583" />
              <mxPoint x="-475" y="583" />
            </Array>
          </mxGeometry>
        </mxCell>
        <mxCell id="IF7U_VyuJhsHZCORkD-T-150" style="edgeStyle=orthogonalEdgeStyle;rounded=0;orthogonalLoop=1;jettySize=auto;html=1;entryX=0.5;entryY=0;entryDx=0;entryDy=0;entryPerimeter=0;exitX=0;exitY=0.5;exitDx=0;exitDy=0;exitPerimeter=0;endArrow=none;endFill=0;dashed=1;strokeColor=#FFCCFF;strokeWidth=2;" parent="1" source="soyHDLQrWCftBUpEwsDa-1" target="IF7U_VyuJhsHZCORkD-T-14" edge="1">
          <mxGeometry relative="1" as="geometry">
            <Array as="points">
              <mxPoint x="-474" y="342" />
              <mxPoint x="-474" y="583" />
              <mxPoint x="-836" y="583" />
            </Array>
          </mxGeometry>
        </mxCell>
        <mxCell id="IF7U_VyuJhsHZCORkD-T-151" style="edgeStyle=orthogonalEdgeStyle;rounded=0;orthogonalLoop=1;jettySize=auto;html=1;exitX=1;exitY=0.5;exitDx=0;exitDy=0;exitPerimeter=0;entryX=0;entryY=0.5;entryDx=0;entryDy=0;entryPerimeter=0;endArrow=none;endFill=0;strokeColor=#E6FFCC;strokeWidth=2;dashed=1;" parent="1" source="IF7U_VyuJhsHZCORkD-T-11" target="soyHDLQrWCftBUpEwsDa-1" edge="1">
          <mxGeometry relative="1" as="geometry">
            <Array as="points">
              <mxPoint x="-836" y="392" />
              <mxPoint x="-836" y="342" />
              <mxPoint x="-142" y="342" />
            </Array>
          </mxGeometry>
        </mxCell>
        <mxCell id="IF7U_VyuJhsHZCORkD-T-152" style="edgeStyle=orthogonalEdgeStyle;rounded=0;orthogonalLoop=1;jettySize=auto;html=1;entryX=0;entryY=0.5;entryDx=0;entryDy=0;entryPerimeter=0;endArrow=none;endFill=0;strokeWidth=2;dashed=1;strokeColor=#E6FFCC;" parent="1" source="IF7U_VyuJhsHZCORkD-T-10" target="soyHDLQrWCftBUpEwsDa-1" edge="1">
          <mxGeometry relative="1" as="geometry">
            <Array as="points">
              <mxPoint x="-836" y="558" />
              <mxPoint x="-836" y="342" />
              <mxPoint x="-142" y="342" />
            </Array>
          </mxGeometry>
        </mxCell>
        <mxCell id="IF7U_VyuJhsHZCORkD-T-154" value="" style="rounded=0;whiteSpace=wrap;html=1;fillColor=#485665;strokeColor=#314354;fontColor=#ffffff;strokeWidth=1;perimeterSpacing=0;" parent="1" vertex="1">
          <mxGeometry x="-1228" y="925" width="967" height="544" as="geometry" />
        </mxCell>
        <mxCell id="IF7U_VyuJhsHZCORkD-T-155" value="" style="shape=mxgraph.cisco.servers.fileserver;html=1;pointerEvents=1;fillColor=#036897;strokeColor=#ffffff;strokeWidth=2;verticalLabelPosition=bottom;verticalAlign=top;align=center;outlineConnect=0;comic=0;snapToPoint=0;fixDash=0;backgroundOutline=0;" parent="1" vertex="1">
          <mxGeometry x="-992.5" y="1140" width="63" height="80" as="geometry" />
        </mxCell>
        <mxCell id="IF7U_VyuJhsHZCORkD-T-156" value="" style="shape=mxgraph.cisco.servers.fileserver;sketch=0;html=1;pointerEvents=1;dashed=0;fillColor=#036897;strokeColor=#ffffff;strokeWidth=2;verticalLabelPosition=bottom;verticalAlign=top;align=center;outlineConnect=0;" parent="1" vertex="1">
          <mxGeometry x="-992.5" y="1031" width="63" height="80" as="geometry" />
        </mxCell>
        <mxCell id="IF7U_VyuJhsHZCORkD-T-157" value="" style="shape=mxgraph.cisco.computers_and_peripherals.workstation;sketch=0;html=1;pointerEvents=1;dashed=0;fillColor=#036897;strokeColor=#ffffff;strokeWidth=2;verticalLabelPosition=bottom;verticalAlign=top;align=center;outlineConnect=0;" parent="1" vertex="1">
          <mxGeometry x="-756" y="1306" width="83" height="62" as="geometry" />
        </mxCell>
        <mxCell id="IF7U_VyuJhsHZCORkD-T-158" value="" style="shape=mxgraph.cisco.computers_and_peripherals.workstation;sketch=0;html=1;pointerEvents=1;dashed=0;fillColor=#036897;strokeColor=#ffffff;strokeWidth=2;verticalLabelPosition=bottom;verticalAlign=top;align=center;outlineConnect=0;" parent="1" vertex="1">
          <mxGeometry x="-876" y="1306" width="80" height="62" as="geometry" />
        </mxCell>
        <mxCell id="IF7U_VyuJhsHZCORkD-T-159" value="" style="shape=mxgraph.cisco.computers_and_peripherals.workstation;sketch=0;html=1;pointerEvents=1;dashed=0;fillColor=#036897;strokeColor=#ffffff;strokeWidth=2;verticalLabelPosition=bottom;verticalAlign=top;align=center;outlineConnect=0;" parent="1" vertex="1">
          <mxGeometry x="-636" y="1306" width="83" height="62" as="geometry" />
        </mxCell>
        <mxCell id="IF7U_VyuJhsHZCORkD-T-160" value="" style="shape=mxgraph.cisco.computers_and_peripherals.workstation;sketch=0;html=1;pointerEvents=1;dashed=0;fillColor=#036897;strokeColor=#ffffff;strokeWidth=2;verticalLabelPosition=bottom;verticalAlign=top;align=center;outlineConnect=0;" parent="1" vertex="1">
          <mxGeometry x="-516" y="1306" width="83" height="62" as="geometry" />
        </mxCell>
        <mxCell id="IF7U_VyuJhsHZCORkD-T-163" value="&lt;div&gt;&lt;b&gt;&lt;font color=&quot;#000000&quot;&gt;&lt;u&gt;Windows Server&lt;/u&gt;&lt;/font&gt;&lt;/b&gt;&lt;/div&gt;&lt;b&gt;&lt;font color=&quot;#000000&quot;&gt;winServG2.hopital.lan&lt;/font&gt;&lt;/b&gt;&lt;div&gt;&lt;b style=&quot;color: rgb(77, 77, 77);&quot;&gt;172.18.0.1&lt;/b&gt;&lt;b&gt;&lt;font color=&quot;#000000&quot;&gt;&lt;br&gt;&lt;/font&gt;&lt;/b&gt;&lt;/div&gt;" style="rounded=1;whiteSpace=wrap;html=1;fillColor=#EEEEEE;strokeColor=#36393D;" parent="1" vertex="1">
          <mxGeometry x="-1165" y="1041" width="160" height="60" as="geometry" />
        </mxCell>
        <mxCell id="IF7U_VyuJhsHZCORkD-T-164" value="&lt;div&gt;&lt;b&gt;&lt;font color=&quot;#000000&quot;&gt;&lt;u&gt;Linux Server&lt;/u&gt;&lt;/font&gt;&lt;/b&gt;&lt;/div&gt;&lt;b&gt;&lt;font color=&quot;#000000&quot;&gt;hp.hopital.lan&lt;/font&gt;&lt;/b&gt;&lt;div&gt;&lt;b style=&quot;color: rgb(77, 77, 77);&quot;&gt;172.18.0.2&lt;/b&gt;&lt;b&gt;&lt;font color=&quot;#000000&quot;&gt;&lt;br&gt;&lt;/font&gt;&lt;/b&gt;&lt;/div&gt;" style="rounded=1;whiteSpace=wrap;html=1;fillColor=#EEEEEE;strokeColor=#36393D;" parent="1" vertex="1">
          <mxGeometry x="-1165" y="1150" width="160" height="60" as="geometry" />
        </mxCell>
        <mxCell id="IF7U_VyuJhsHZCORkD-T-165" value="&lt;div&gt;&lt;b style=&quot;&quot;&gt;&lt;font color=&quot;#ff8000&quot;&gt;Dev 1&lt;/font&gt;&lt;/b&gt;&lt;/div&gt;&lt;b style=&quot;color: rgb(77, 77, 77);&quot;&gt;172.18.0.3&lt;/b&gt;" style="rounded=1;whiteSpace=wrap;html=1;fillColor=#eeeeee;strokeColor=#36393d;" parent="1" vertex="1">
          <mxGeometry x="-896" y="1406" width="100" height="50" as="geometry" />
        </mxCell>
        <mxCell id="IF7U_VyuJhsHZCORkD-T-166" value="&lt;div&gt;&lt;b style=&quot;&quot;&gt;&lt;font color=&quot;#ff8000&quot;&gt;Dev 2&lt;/font&gt;&lt;/b&gt;&lt;/div&gt;&lt;div&gt;&lt;b style=&quot;color: rgb(77, 77, 77);&quot;&gt;172.18.0.4&lt;/b&gt;&lt;br&gt;&lt;/div&gt;" style="rounded=1;whiteSpace=wrap;html=1;fillColor=#eeeeee;strokeColor=#36393d;" parent="1" vertex="1">
          <mxGeometry x="-775" y="1406" width="100" height="50" as="geometry" />
        </mxCell>
        <mxCell id="IF7U_VyuJhsHZCORkD-T-167" value="&lt;div&gt;&lt;b style=&quot;&quot;&gt;&lt;font color=&quot;#007fff&quot;&gt;Sec 1&lt;/font&gt;&lt;/b&gt;&lt;/div&gt;&lt;div&gt;&lt;b style=&quot;color: rgb(77, 77, 77);&quot;&gt;172.18.0.5&lt;/b&gt;&lt;br&gt;&lt;/div&gt;" style="rounded=1;whiteSpace=wrap;html=1;fillColor=#eeeeee;strokeColor=#36393d;" parent="1" vertex="1">
          <mxGeometry x="-655" y="1406" width="100" height="50" as="geometry" />
        </mxCell>
        <mxCell id="IF7U_VyuJhsHZCORkD-T-168" value="&lt;div&gt;&lt;b style=&quot;&quot;&gt;&lt;font color=&quot;#007fff&quot;&gt;Sec 2&lt;/font&gt;&lt;/b&gt;&lt;/div&gt;&lt;div&gt;&lt;b style=&quot;color: rgb(77, 77, 77);&quot;&gt;172.18.0.6&lt;/b&gt;&lt;br&gt;&lt;/div&gt;" style="rounded=1;whiteSpace=wrap;html=1;fillColor=#eeeeee;strokeColor=#36393d;" parent="1" vertex="1">
          <mxGeometry x="-533" y="1406" width="100" height="50" as="geometry" />
        </mxCell>
        <mxCell id="IF7U_VyuJhsHZCORkD-T-172" style="edgeStyle=orthogonalEdgeStyle;rounded=0;orthogonalLoop=1;jettySize=auto;html=1;entryX=0.5;entryY=0.98;entryDx=0;entryDy=0;entryPerimeter=0;exitX=0.5;exitY=0;exitDx=0;exitDy=0;exitPerimeter=0;endArrow=none;endFill=0;dashed=1;strokeWidth=2;strokeColor=#FFCCFF;" parent="1" source="IF7U_VyuJhsHZCORkD-T-159" target="soyHDLQrWCftBUpEwsDa-1" edge="1">
          <mxGeometry relative="1" as="geometry">
            <mxPoint x="-55" y="986" as="targetPoint" />
            <Array as="points">
              <mxPoint x="-605" y="1306" />
              <mxPoint x="-605" y="1227" />
              <mxPoint x="-485" y="1227" />
              <mxPoint x="-485" y="1064" />
              <mxPoint x="-91" y="1064" />
            </Array>
          </mxGeometry>
        </mxCell>
        <mxCell id="IF7U_VyuJhsHZCORkD-T-173" style="edgeStyle=orthogonalEdgeStyle;rounded=0;orthogonalLoop=1;jettySize=auto;html=1;exitX=0.5;exitY=0;exitDx=0;exitDy=0;exitPerimeter=0;entryX=0.5;entryY=0.98;entryDx=0;entryDy=0;entryPerimeter=0;endArrow=none;endFill=0;strokeWidth=2;strokeColor=#FFCCFF;dashed=1;" parent="1" source="IF7U_VyuJhsHZCORkD-T-157" target="soyHDLQrWCftBUpEwsDa-1" edge="1">
          <mxGeometry relative="1" as="geometry">
            <mxPoint x="-55" y="986" as="targetPoint" />
            <Array as="points">
              <mxPoint x="-725" y="1306" />
              <mxPoint x="-725" y="1227" />
              <mxPoint x="-485" y="1227" />
              <mxPoint x="-485" y="1064" />
              <mxPoint x="-91" y="1064" />
            </Array>
          </mxGeometry>
        </mxCell>
        <mxCell id="IF7U_VyuJhsHZCORkD-T-174" style="edgeStyle=orthogonalEdgeStyle;rounded=0;orthogonalLoop=1;jettySize=auto;html=1;entryX=0.5;entryY=0;entryDx=0;entryDy=0;entryPerimeter=0;exitX=0.5;exitY=0.98;exitDx=0;exitDy=0;exitPerimeter=0;endArrow=none;endFill=0;strokeWidth=2;dashed=1;strokeColor=#FFCCFF;" parent="1" source="soyHDLQrWCftBUpEwsDa-1" target="IF7U_VyuJhsHZCORkD-T-160" edge="1">
          <mxGeometry relative="1" as="geometry">
            <mxPoint x="-55" y="986" as="sourcePoint" />
            <Array as="points">
              <mxPoint x="-91" y="1064" />
              <mxPoint x="-485" y="1064" />
              <mxPoint x="-485" y="1306" />
            </Array>
          </mxGeometry>
        </mxCell>
        <mxCell id="IF7U_VyuJhsHZCORkD-T-175" style="edgeStyle=orthogonalEdgeStyle;rounded=0;orthogonalLoop=1;jettySize=auto;html=1;entryX=0.5;entryY=0;entryDx=0;entryDy=0;entryPerimeter=0;exitX=0.5;exitY=0.98;exitDx=0;exitDy=0;exitPerimeter=0;endArrow=none;endFill=0;dashed=1;strokeColor=#FFCCFF;strokeWidth=2;" parent="1" source="soyHDLQrWCftBUpEwsDa-1" target="IF7U_VyuJhsHZCORkD-T-158" edge="1">
          <mxGeometry relative="1" as="geometry">
            <mxPoint x="-55" y="986" as="sourcePoint" />
            <Array as="points">
              <mxPoint x="-91" y="1064" />
              <mxPoint x="-485" y="1064" />
              <mxPoint x="-485" y="1227" />
              <mxPoint x="-847" y="1227" />
              <mxPoint x="-847" y="1306" />
            </Array>
          </mxGeometry>
        </mxCell>
        <mxCell id="IF7U_VyuJhsHZCORkD-T-177" style="edgeStyle=orthogonalEdgeStyle;rounded=0;orthogonalLoop=1;jettySize=auto;html=1;endArrow=none;endFill=0;strokeWidth=2;dashed=1;strokeColor=#E6FFCC;entryX=0.5;entryY=0.98;entryDx=0;entryDy=0;entryPerimeter=0;exitX=1;exitY=0.5;exitDx=0;exitDy=0;exitPerimeter=0;" parent="1" source="IF7U_VyuJhsHZCORkD-T-155" target="soyHDLQrWCftBUpEwsDa-1" edge="1">
          <mxGeometry relative="1" as="geometry">
            <mxPoint x="-101" y="986" as="targetPoint" />
            <Array as="points">
              <mxPoint x="-847" y="1180" />
              <mxPoint x="-847" y="1064" />
              <mxPoint x="-91" y="1064" />
            </Array>
          </mxGeometry>
        </mxCell>
        <mxCell id="6ivqhQxys0qo0ZL2RCj_-1" value="" style="rounded=0;whiteSpace=wrap;html=1;fillColor=#485665;strokeColor=#314354;fontColor=#ffffff;strokeWidth=1;perimeterSpacing=0;" parent="1" vertex="1">
          <mxGeometry x="-1239" y="-967" width="451" height="1118" as="geometry" />
        </mxCell>
        <mxCell id="6ivqhQxys0qo0ZL2RCj_-2" value="&lt;font color=&quot;#000000&quot;&gt;&lt;b&gt;&lt;u&gt;Découpage Réseau&lt;/u&gt;&lt;/b&gt;&lt;/font&gt;" style="rounded=0;whiteSpace=wrap;html=1;fillColor=#EEEEEE;strokeColor=#36393D;" parent="1" vertex="1">
          <mxGeometry x="-1239" y="-967" width="160" height="60" as="geometry" />
        </mxCell>
        <mxCell id="6ivqhQxys0qo0ZL2RCj_-3" value="&lt;div&gt;&lt;font color=&quot;#000000&quot;&gt;&lt;b&gt;&lt;u&gt;&lt;br&gt;&lt;/u&gt;&lt;/b&gt;&lt;/font&gt;&lt;/div&gt;&lt;font color=&quot;#000000&quot;&gt;&lt;b&gt;&lt;u&gt;&lt;div&gt;&lt;font color=&quot;#000000&quot;&gt;&lt;b&gt;&lt;u&gt;&lt;br&gt;&lt;/u&gt;&lt;/b&gt;&lt;/font&gt;&lt;/div&gt;&lt;div&gt;&lt;font color=&quot;#000000&quot;&gt;&lt;b&gt;&lt;u&gt;&lt;br&gt;&lt;/u&gt;&lt;/b&gt;&lt;/font&gt;&lt;/div&gt;VLAN 10 - Général&lt;/u&gt;&lt;/b&gt;&lt;/font&gt;&lt;div&gt;&lt;div&gt;&lt;br&gt;&lt;/div&gt;&lt;div&gt;&lt;div&gt;&lt;div&gt;&lt;font color=&quot;#4d4d4d&quot;&gt;&lt;b&gt;Adresse Réseau : 172.16.0.0 /16&lt;/b&gt;&lt;/font&gt;&lt;/div&gt;&lt;div&gt;&lt;font color=&quot;#4d4d4d&quot;&gt;&lt;b&gt;Adresse Réseau Suivant : 172.17.0.0&lt;/b&gt;&lt;/font&gt;&lt;/div&gt;&lt;div&gt;&lt;font color=&quot;#4d4d4d&quot;&gt;&lt;b&gt;&lt;br&gt;&lt;/b&gt;&lt;/font&gt;&lt;/div&gt;&lt;div&gt;&lt;font color=&quot;#4d4d4d&quot;&gt;&lt;b&gt;Adresse de diffusion : 172.16.255.255&lt;/b&gt;&lt;/font&gt;&lt;/div&gt;&lt;div&gt;&lt;font color=&quot;#4d4d4d&quot;&gt;&lt;b&gt;&lt;br&gt;&lt;/b&gt;&lt;/font&gt;&lt;/div&gt;&lt;div&gt;&lt;font color=&quot;#4d4d4d&quot;&gt;&lt;b&gt;Plage d&#39;adresses&lt;/b&gt;&lt;/font&gt;&lt;/div&gt;&lt;div&gt;&lt;font color=&quot;#4d4d4d&quot;&gt;&lt;b&gt;172.16.0.1 - 172.16.255.254&lt;/b&gt;&lt;/font&gt;&lt;/div&gt;&lt;div&gt;&lt;font color=&quot;#4d4d4d&quot;&gt;&lt;b&gt;&lt;br&gt;&lt;/b&gt;&lt;/font&gt;&lt;/div&gt;&lt;div&gt;&lt;b style=&quot;color: rgb(0, 0, 0); background-color: initial;&quot;&gt;&lt;br&gt;&lt;/b&gt;&lt;/div&gt;&lt;div&gt;&lt;br&gt;&lt;/div&gt;&lt;/div&gt;&lt;/div&gt;&lt;/div&gt;" style="rounded=1;whiteSpace=wrap;html=1;fillColor=#EEEEEE;strokeColor=#36393D;" parent="1" vertex="1">
          <mxGeometry x="-1129" y="-857" width="320" height="181" as="geometry" />
        </mxCell>
        <mxCell id="6ivqhQxys0qo0ZL2RCj_-4" value="&lt;font style=&quot;font-size: 20px;&quot; color=&quot;#000000&quot;&gt;&lt;b style=&quot;&quot;&gt;1&lt;/b&gt;&lt;/font&gt;" style="rounded=1;whiteSpace=wrap;html=1;fillColor=#EEEEEE;strokeColor=#36393D;" parent="1" vertex="1">
          <mxGeometry x="-1226" y="-796.5" width="64" height="60" as="geometry" />
        </mxCell>
        <mxCell id="6ivqhQxys0qo0ZL2RCj_-5" value="&lt;br&gt;&lt;div&gt;&lt;font color=&quot;#000000&quot;&gt;&lt;b&gt;&lt;u&gt;&lt;div&gt;&lt;font color=&quot;#000000&quot;&gt;&lt;b&gt;&lt;u&gt;&lt;br&gt;&lt;/u&gt;&lt;/b&gt;&lt;/font&gt;&lt;/div&gt;&lt;div&gt;&lt;font color=&quot;#000000&quot;&gt;&lt;b&gt;&lt;u&gt;&lt;br&gt;&lt;/u&gt;&lt;/b&gt;&lt;/font&gt;&lt;/div&gt;VLAN 30 - Soins Intensifs (S.I)&lt;/u&gt;&lt;/b&gt;&lt;/font&gt;&lt;div&gt;&lt;div&gt;&lt;br&gt;&lt;/div&gt;&lt;div&gt;&lt;div&gt;&lt;font color=&quot;#4d4d4d&quot;&gt;&lt;b&gt;Adresse Réseau : 172.17.0.0 /16&lt;/b&gt;&lt;/font&gt;&lt;/div&gt;&lt;div&gt;&lt;font color=&quot;#4d4d4d&quot;&gt;&lt;b&gt;Adresse Réseau Suivant : 172.18.0.0&lt;/b&gt;&lt;/font&gt;&lt;/div&gt;&lt;div&gt;&lt;font color=&quot;#4d4d4d&quot;&gt;&lt;b&gt;&lt;br&gt;&lt;/b&gt;&lt;/font&gt;&lt;/div&gt;&lt;div&gt;&lt;font color=&quot;#4d4d4d&quot;&gt;&lt;b&gt;Adresse de diffusion : 172.17.255.255&lt;/b&gt;&lt;/font&gt;&lt;/div&gt;&lt;div&gt;&lt;font color=&quot;#4d4d4d&quot;&gt;&lt;b&gt;&lt;br&gt;&lt;/b&gt;&lt;/font&gt;&lt;/div&gt;&lt;div&gt;&lt;font color=&quot;#4d4d4d&quot;&gt;&lt;b&gt;Plage d&#39;adresses&lt;/b&gt;&lt;/font&gt;&lt;/div&gt;&lt;div&gt;&lt;font color=&quot;#4d4d4d&quot;&gt;&lt;b&gt;172.17.0.1 - 172.17.255.254&lt;/b&gt;&lt;/font&gt;&lt;/div&gt;&lt;div&gt;&lt;font color=&quot;#4d4d4d&quot;&gt;&lt;b&gt;&lt;br&gt;&lt;/b&gt;&lt;/font&gt;&lt;/div&gt;&lt;div&gt;&lt;b style=&quot;color: rgb(0, 0, 0); background-color: initial;&quot;&gt;&lt;br&gt;&lt;/b&gt;&lt;/div&gt;&lt;div&gt;&lt;br&gt;&lt;/div&gt;&lt;/div&gt;&lt;/div&gt;&lt;/div&gt;" style="rounded=1;whiteSpace=wrap;html=1;fillColor=#EEEEEE;strokeColor=#36393D;" parent="1" vertex="1">
          <mxGeometry x="-1129" y="-659" width="320" height="181" as="geometry" />
        </mxCell>
        <mxCell id="6ivqhQxys0qo0ZL2RCj_-6" value="&lt;font color=&quot;#000000&quot;&gt;&lt;span style=&quot;font-size: 20px;&quot;&gt;&lt;b&gt;2&lt;/b&gt;&lt;/span&gt;&lt;/font&gt;" style="rounded=1;whiteSpace=wrap;html=1;fillColor=#EEEEEE;strokeColor=#36393D;" parent="1" vertex="1">
          <mxGeometry x="-1226" y="-592" width="64" height="60" as="geometry" />
        </mxCell>
        <mxCell id="6ivqhQxys0qo0ZL2RCj_-7" value="&lt;font color=&quot;#000000&quot;&gt;&lt;b&gt;&lt;u&gt;VLAN 20 - Pédiatrie&lt;/u&gt;&lt;/b&gt;&lt;/font&gt;&lt;div&gt;&lt;div&gt;&lt;b style=&quot;color: rgb(0, 0, 0); background-color: initial;&quot;&gt;&lt;br&gt;&lt;/b&gt;&lt;/div&gt;&lt;div&gt;&lt;div&gt;&lt;font color=&quot;#4d4d4d&quot;&gt;&lt;b&gt;Adresse Réseau : 172.18.0.0 /16&lt;/b&gt;&lt;/font&gt;&lt;/div&gt;&lt;div&gt;&lt;font color=&quot;#4d4d4d&quot;&gt;&lt;b&gt;Adresse Réseau Suivant : 172.19.0.0&lt;/b&gt;&lt;/font&gt;&lt;/div&gt;&lt;div&gt;&lt;font color=&quot;#4d4d4d&quot;&gt;&lt;b&gt;&lt;br&gt;&lt;/b&gt;&lt;/font&gt;&lt;/div&gt;&lt;div&gt;&lt;font color=&quot;#4d4d4d&quot;&gt;&lt;b&gt;Adresse de diffusion : 172.18.255.255&lt;/b&gt;&lt;/font&gt;&lt;/div&gt;&lt;div&gt;&lt;font color=&quot;#4d4d4d&quot;&gt;&lt;b&gt;&lt;br&gt;&lt;/b&gt;&lt;/font&gt;&lt;/div&gt;&lt;div&gt;&lt;font color=&quot;#4d4d4d&quot;&gt;&lt;b&gt;Plage d&#39;adresses&lt;/b&gt;&lt;/font&gt;&lt;/div&gt;&lt;div&gt;&lt;font color=&quot;#4d4d4d&quot;&gt;&lt;b&gt;172.18.0.1 - 172.18.255.254&lt;/b&gt;&lt;/font&gt;&lt;/div&gt;&lt;/div&gt;&lt;/div&gt;&lt;div&gt;&lt;font color=&quot;#4d4d4d&quot;&gt;&lt;b&gt;&lt;br&gt;&lt;/b&gt;&lt;/font&gt;&lt;/div&gt;" style="rounded=1;whiteSpace=wrap;html=1;fillColor=#EEEEEE;strokeColor=#36393D;" parent="1" vertex="1">
          <mxGeometry x="-1129" y="-459" width="320" height="181" as="geometry" />
        </mxCell>
        <mxCell id="6ivqhQxys0qo0ZL2RCj_-8" value="&lt;font color=&quot;#000000&quot;&gt;&lt;span style=&quot;font-size: 20px;&quot;&gt;&lt;b&gt;3&lt;/b&gt;&lt;/span&gt;&lt;/font&gt;" style="rounded=1;whiteSpace=wrap;html=1;fillColor=#EEEEEE;strokeColor=#36393D;" parent="1" vertex="1">
          <mxGeometry x="-1226" y="-392" width="64" height="60" as="geometry" />
        </mxCell>
        <mxCell id="6ivqhQxys0qo0ZL2RCj_-11" style="edgeStyle=orthogonalEdgeStyle;rounded=0;orthogonalLoop=1;jettySize=auto;html=1;exitX=0.5;exitY=1;exitDx=0;exitDy=0;entryX=0.5;entryY=0;entryDx=0;entryDy=0;endArrow=oval;endFill=1;strokeColor=#CCCCFF;strokeWidth=2;" parent="1" source="6ivqhQxys0qo0ZL2RCj_-4" target="6ivqhQxys0qo0ZL2RCj_-6" edge="1">
          <mxGeometry relative="1" as="geometry" />
        </mxCell>
        <mxCell id="6ivqhQxys0qo0ZL2RCj_-12" style="edgeStyle=orthogonalEdgeStyle;rounded=0;orthogonalLoop=1;jettySize=auto;html=1;entryX=0.5;entryY=0;entryDx=0;entryDy=0;strokeColor=#CCCCFF;strokeWidth=2;endArrow=oval;endFill=1;" parent="1" source="6ivqhQxys0qo0ZL2RCj_-6" target="6ivqhQxys0qo0ZL2RCj_-8" edge="1">
          <mxGeometry relative="1" as="geometry" />
        </mxCell>
        <mxCell id="6ivqhQxys0qo0ZL2RCj_-13" value="&lt;font color=&quot;#000000&quot;&gt;&lt;b&gt;&lt;u&gt;VLAN 40 - Réhabilitation&lt;/u&gt;&lt;/b&gt;&lt;/font&gt;&lt;div&gt;&lt;font color=&quot;#000000&quot;&gt;&lt;b&gt;&lt;u&gt;&lt;br&gt;&lt;/u&gt;&lt;/b&gt;&lt;/font&gt;&lt;div&gt;&lt;div&gt;&lt;font color=&quot;#4d4d4d&quot;&gt;&lt;b&gt;Adresse Réseau : 172.19.0.0 /16&lt;/b&gt;&lt;/font&gt;&lt;/div&gt;&lt;div&gt;&lt;font color=&quot;#4d4d4d&quot;&gt;&lt;b&gt;Adresse Réseau Suivant : 172.20.0.0&lt;/b&gt;&lt;/font&gt;&lt;/div&gt;&lt;div&gt;&lt;font color=&quot;#4d4d4d&quot;&gt;&lt;b&gt;&lt;br&gt;&lt;/b&gt;&lt;/font&gt;&lt;/div&gt;&lt;div&gt;&lt;font color=&quot;#4d4d4d&quot;&gt;&lt;b&gt;Adresse de diffusion : 172.19.255.255&lt;/b&gt;&lt;/font&gt;&lt;/div&gt;&lt;div&gt;&lt;font color=&quot;#4d4d4d&quot;&gt;&lt;b&gt;&lt;br&gt;&lt;/b&gt;&lt;/font&gt;&lt;/div&gt;&lt;div&gt;&lt;font color=&quot;#4d4d4d&quot;&gt;&lt;b&gt;Plage d&#39;adresses&lt;/b&gt;&lt;/font&gt;&lt;/div&gt;&lt;div&gt;&lt;font color=&quot;#4d4d4d&quot;&gt;&lt;b&gt;172.19.0.1 - 172.19.255.254&lt;/b&gt;&lt;/font&gt;&lt;/div&gt;&lt;/div&gt;&lt;div&gt;&lt;font color=&quot;#4d4d4d&quot;&gt;&lt;b&gt;&lt;br&gt;&lt;/b&gt;&lt;/font&gt;&lt;/div&gt;&lt;/div&gt;" style="rounded=1;whiteSpace=wrap;html=1;fillColor=#EEEEEE;strokeColor=#36393D;" parent="1" vertex="1">
          <mxGeometry x="-1129" y="-260" width="320" height="181" as="geometry" />
        </mxCell>
        <mxCell id="6ivqhQxys0qo0ZL2RCj_-14" value="&lt;font color=&quot;#000000&quot;&gt;&lt;span style=&quot;font-size: 20px;&quot;&gt;&lt;b&gt;4&lt;/b&gt;&lt;/span&gt;&lt;/font&gt;" style="rounded=1;whiteSpace=wrap;html=1;fillColor=#EEEEEE;strokeColor=#36393D;" parent="1" vertex="1">
          <mxGeometry x="-1226" y="-193" width="64" height="60" as="geometry" />
        </mxCell>
        <mxCell id="6ivqhQxys0qo0ZL2RCj_-15" style="edgeStyle=orthogonalEdgeStyle;rounded=0;orthogonalLoop=1;jettySize=auto;html=1;strokeColor=#CCCCFF;strokeWidth=2;endArrow=oval;endFill=1;" parent="1" source="6ivqhQxys0qo0ZL2RCj_-8" target="6ivqhQxys0qo0ZL2RCj_-14" edge="1">
          <mxGeometry relative="1" as="geometry" />
        </mxCell>
        <mxCell id="6ivqhQxys0qo0ZL2RCj_-27" value="&lt;font color=&quot;#000000&quot;&gt;&lt;b&gt;&lt;u&gt;VLAN 100 - Serveurs&lt;/u&gt;&lt;/b&gt;&lt;/font&gt;&lt;div&gt;&lt;font color=&quot;#000000&quot;&gt;&lt;b&gt;&lt;u&gt;&lt;br&gt;&lt;/u&gt;&lt;/b&gt;&lt;/font&gt;&lt;/div&gt;&lt;div&gt;&lt;div&gt;&lt;font color=&quot;#4d4d4d&quot;&gt;&lt;b&gt;Adresse Réseau : 172.20.0.0 /24&lt;/b&gt;&lt;/font&gt;&lt;/div&gt;&lt;div&gt;&lt;font color=&quot;#4d4d4d&quot;&gt;&lt;b&gt;Adresse Réseau Suivant : 172.20.1.0&lt;/b&gt;&lt;/font&gt;&lt;/div&gt;&lt;div&gt;&lt;font color=&quot;#4d4d4d&quot;&gt;&lt;b&gt;&lt;br&gt;&lt;/b&gt;&lt;/font&gt;&lt;/div&gt;&lt;div&gt;&lt;font color=&quot;#4d4d4d&quot;&gt;&lt;b&gt;Adresse de diffusion : 172.20.0.255&lt;/b&gt;&lt;/font&gt;&lt;/div&gt;&lt;div&gt;&lt;font color=&quot;#4d4d4d&quot;&gt;&lt;b&gt;&lt;br&gt;&lt;/b&gt;&lt;/font&gt;&lt;/div&gt;&lt;div&gt;&lt;font color=&quot;#4d4d4d&quot;&gt;&lt;b&gt;Plage d&#39;adresses&lt;/b&gt;&lt;/font&gt;&lt;/div&gt;&lt;div&gt;&lt;font color=&quot;#4d4d4d&quot;&gt;&lt;b&gt;172.20.0.1 - 172.20.0.254&lt;/b&gt;&lt;/font&gt;&lt;/div&gt;&lt;/div&gt;&lt;div&gt;&lt;font color=&quot;#4d4d4d&quot;&gt;&lt;b&gt;&lt;br&gt;&lt;/b&gt;&lt;/font&gt;&lt;/div&gt;" style="rounded=1;whiteSpace=wrap;html=1;fillColor=#EEEEEE;strokeColor=#36393D;" parent="1" vertex="1">
          <mxGeometry x="-1129" y="-59" width="320" height="181" as="geometry" />
        </mxCell>
        <mxCell id="6ivqhQxys0qo0ZL2RCj_-28" value="&lt;font color=&quot;#000000&quot;&gt;&lt;span style=&quot;font-size: 20px;&quot;&gt;&lt;b&gt;5&lt;/b&gt;&lt;/span&gt;&lt;/font&gt;" style="rounded=1;whiteSpace=wrap;html=1;fillColor=#EEEEEE;strokeColor=#36393D;" parent="1" vertex="1">
          <mxGeometry x="-1226" y="8" width="64" height="60" as="geometry" />
        </mxCell>
        <mxCell id="6ivqhQxys0qo0ZL2RCj_-32" style="edgeStyle=orthogonalEdgeStyle;rounded=0;orthogonalLoop=1;jettySize=auto;html=1;entryX=0.5;entryY=0.98;entryDx=0;entryDy=0;entryPerimeter=0;dashed=1;strokeColor=#E6FFCC;strokeWidth=2;endArrow=none;endFill=0;" parent="1" source="IF7U_VyuJhsHZCORkD-T-156" target="soyHDLQrWCftBUpEwsDa-1" edge="1">
          <mxGeometry relative="1" as="geometry">
            <Array as="points">
              <mxPoint x="-91" y="1064" />
            </Array>
          </mxGeometry>
        </mxCell>
        <mxCell id="6ivqhQxys0qo0ZL2RCj_-37" value="" style="shape=mxgraph.cisco.servers.fileserver;html=1;pointerEvents=1;fillColor=#036897;strokeColor=#ffffff;strokeWidth=2;verticalLabelPosition=bottom;verticalAlign=top;align=center;outlineConnect=0;comic=0;snapToPoint=0;fixDash=0;backgroundOutline=0;" parent="1" vertex="1">
          <mxGeometry x="724" y="518" width="63" height="80" as="geometry" />
        </mxCell>
        <mxCell id="6ivqhQxys0qo0ZL2RCj_-38" value="" style="shape=mxgraph.cisco.servers.fileserver;sketch=0;html=1;pointerEvents=1;dashed=0;fillColor=#036897;strokeColor=#ffffff;strokeWidth=2;verticalLabelPosition=bottom;verticalAlign=top;align=center;outlineConnect=0;" parent="1" vertex="1">
          <mxGeometry x="724" y="351.5" width="63" height="80" as="geometry" />
        </mxCell>
        <mxCell id="6ivqhQxys0qo0ZL2RCj_-41" value="" style="shape=mxgraph.cisco.servers.fileserver;html=1;pointerEvents=1;fillColor=#036897;strokeColor=#ffffff;strokeWidth=2;verticalLabelPosition=bottom;verticalAlign=top;align=center;outlineConnect=0;comic=0;snapToPoint=0;fixDash=0;backgroundOutline=0;" parent="1" vertex="1">
          <mxGeometry x="641" y="1140" width="63" height="80" as="geometry" />
        </mxCell>
        <mxCell id="6ivqhQxys0qo0ZL2RCj_-42" value="" style="shape=mxgraph.cisco.servers.fileserver;sketch=0;html=1;pointerEvents=1;dashed=0;fillColor=#036897;strokeColor=#ffffff;strokeWidth=2;verticalLabelPosition=bottom;verticalAlign=top;align=center;outlineConnect=0;" parent="1" vertex="1">
          <mxGeometry x="641" y="1024" width="63" height="80" as="geometry" />
        </mxCell>
        <mxCell id="vWI4zveBEEdujr9KzqbE-1" value="&lt;div&gt;&lt;font color=&quot;#000000&quot;&gt;&lt;b&gt;&lt;u&gt;&lt;br&gt;&lt;/u&gt;&lt;/b&gt;&lt;/font&gt;&lt;/div&gt;&lt;font color=&quot;#000000&quot;&gt;&lt;b&gt;&lt;u&gt;&lt;div&gt;&lt;font color=&quot;#000000&quot;&gt;&lt;b&gt;&lt;u&gt;&lt;br&gt;&lt;/u&gt;&lt;/b&gt;&lt;/font&gt;&lt;/div&gt;&lt;div&gt;&lt;font color=&quot;#000000&quot;&gt;&lt;b&gt;&lt;u&gt;&lt;br&gt;&lt;/u&gt;&lt;/b&gt;&lt;/font&gt;&lt;/div&gt;VLAN 10 - Général&lt;/u&gt;&lt;/b&gt;&lt;/font&gt;&lt;div&gt;&lt;div&gt;&lt;br&gt;&lt;/div&gt;&lt;div&gt;&lt;div&gt;&lt;div&gt;&lt;font color=&quot;#4d4d4d&quot;&gt;&lt;b&gt;Adresse Réseau : 172.16.0.0 /16&lt;/b&gt;&lt;/font&gt;&lt;/div&gt;&lt;div&gt;&lt;font color=&quot;#4d4d4d&quot;&gt;&lt;b&gt;Adresse Réseau Suivant : 172.17.0.0&lt;/b&gt;&lt;/font&gt;&lt;/div&gt;&lt;div&gt;&lt;font color=&quot;#4d4d4d&quot;&gt;&lt;b&gt;&lt;br&gt;&lt;/b&gt;&lt;/font&gt;&lt;/div&gt;&lt;div&gt;&lt;font color=&quot;#4d4d4d&quot;&gt;&lt;b&gt;Adresse de diffusion : 172.16.255.255&lt;/b&gt;&lt;/font&gt;&lt;/div&gt;&lt;div&gt;&lt;font color=&quot;#4d4d4d&quot;&gt;&lt;b&gt;&lt;br&gt;&lt;/b&gt;&lt;/font&gt;&lt;/div&gt;&lt;div&gt;&lt;font color=&quot;#4d4d4d&quot;&gt;&lt;b&gt;Plage d&#39;adresses&lt;/b&gt;&lt;/font&gt;&lt;/div&gt;&lt;div&gt;&lt;font color=&quot;#4d4d4d&quot;&gt;&lt;b&gt;172.16.0.1 - 172.16.255.254&lt;/b&gt;&lt;/font&gt;&lt;/div&gt;&lt;div&gt;&lt;font color=&quot;#4d4d4d&quot;&gt;&lt;b&gt;&lt;br&gt;&lt;/b&gt;&lt;/font&gt;&lt;/div&gt;&lt;div&gt;&lt;b style=&quot;color: rgb(0, 0, 0); background-color: initial;&quot;&gt;&lt;br&gt;&lt;/b&gt;&lt;/div&gt;&lt;div&gt;&lt;br&gt;&lt;/div&gt;&lt;/div&gt;&lt;/div&gt;&lt;/div&gt;" style="rounded=0;whiteSpace=wrap;html=1;fillColor=#EEEEEE;strokeColor=#36393D;" parent="1" vertex="1">
          <mxGeometry x="-1228" y="666" width="320" height="181" as="geometry" />
        </mxCell>
        <mxCell id="vWI4zveBEEdujr9KzqbE-2" value="&lt;font color=&quot;#000000&quot;&gt;&lt;b&gt;&lt;u&gt;VLAN 20 - Pédiatrie&lt;/u&gt;&lt;/b&gt;&lt;/font&gt;&lt;div&gt;&lt;div&gt;&lt;b style=&quot;color: rgb(0, 0, 0); background-color: initial;&quot;&gt;&lt;br&gt;&lt;/b&gt;&lt;/div&gt;&lt;div&gt;&lt;div&gt;&lt;font color=&quot;#4d4d4d&quot;&gt;&lt;b&gt;Adresse Réseau : 172.18.0.0 /16&lt;/b&gt;&lt;/font&gt;&lt;/div&gt;&lt;div&gt;&lt;font color=&quot;#4d4d4d&quot;&gt;&lt;b&gt;Adresse Réseau Suivant : 172.19.0.0&lt;/b&gt;&lt;/font&gt;&lt;/div&gt;&lt;div&gt;&lt;font color=&quot;#4d4d4d&quot;&gt;&lt;b&gt;&lt;br&gt;&lt;/b&gt;&lt;/font&gt;&lt;/div&gt;&lt;div&gt;&lt;font color=&quot;#4d4d4d&quot;&gt;&lt;b&gt;Adresse de diffusion : 172.18.255.255&lt;/b&gt;&lt;/font&gt;&lt;/div&gt;&lt;div&gt;&lt;font color=&quot;#4d4d4d&quot;&gt;&lt;b&gt;&lt;br&gt;&lt;/b&gt;&lt;/font&gt;&lt;/div&gt;&lt;div&gt;&lt;font color=&quot;#4d4d4d&quot;&gt;&lt;b&gt;Plage d&#39;adresses&lt;/b&gt;&lt;/font&gt;&lt;/div&gt;&lt;div&gt;&lt;font color=&quot;#4d4d4d&quot;&gt;&lt;b&gt;172.18.0.1 - 172.18.255.254&lt;/b&gt;&lt;/font&gt;&lt;/div&gt;&lt;/div&gt;&lt;/div&gt;&lt;div&gt;&lt;font color=&quot;#4d4d4d&quot;&gt;&lt;b&gt;&lt;br&gt;&lt;/b&gt;&lt;/font&gt;&lt;/div&gt;" style="rounded=0;whiteSpace=wrap;html=1;fillColor=#EEEEEE;strokeColor=#36393D;" parent="1" vertex="1">
          <mxGeometry x="-1228" y="1288" width="320" height="181" as="geometry" />
        </mxCell>
        <mxCell id="vWI4zveBEEdujr9KzqbE-3" value="&lt;br&gt;&lt;div&gt;&lt;font color=&quot;#000000&quot;&gt;&lt;b&gt;&lt;u&gt;&lt;div&gt;&lt;font color=&quot;#000000&quot;&gt;&lt;b&gt;&lt;u&gt;&lt;br&gt;&lt;/u&gt;&lt;/b&gt;&lt;/font&gt;&lt;/div&gt;&lt;div&gt;&lt;font color=&quot;#000000&quot;&gt;&lt;b&gt;&lt;u&gt;&lt;br&gt;&lt;/u&gt;&lt;/b&gt;&lt;/font&gt;&lt;/div&gt;VLAN 30 - Soins Intensifs (S.I)&lt;/u&gt;&lt;/b&gt;&lt;/font&gt;&lt;div&gt;&lt;div&gt;&lt;br&gt;&lt;/div&gt;&lt;div&gt;&lt;div&gt;&lt;font color=&quot;#4d4d4d&quot;&gt;&lt;b&gt;Adresse Réseau : 172.17.0.0 /16&lt;/b&gt;&lt;/font&gt;&lt;/div&gt;&lt;div&gt;&lt;font color=&quot;#4d4d4d&quot;&gt;&lt;b&gt;Adresse Réseau Suivant : 172.18.0.0&lt;/b&gt;&lt;/font&gt;&lt;/div&gt;&lt;div&gt;&lt;font color=&quot;#4d4d4d&quot;&gt;&lt;b&gt;&lt;br&gt;&lt;/b&gt;&lt;/font&gt;&lt;/div&gt;&lt;div&gt;&lt;font color=&quot;#4d4d4d&quot;&gt;&lt;b&gt;Adresse de diffusion : 172.17.255.255&lt;/b&gt;&lt;/font&gt;&lt;/div&gt;&lt;div&gt;&lt;font color=&quot;#4d4d4d&quot;&gt;&lt;b&gt;&lt;br&gt;&lt;/b&gt;&lt;/font&gt;&lt;/div&gt;&lt;div&gt;&lt;font color=&quot;#4d4d4d&quot;&gt;&lt;b&gt;Plage d&#39;adresses&lt;/b&gt;&lt;/font&gt;&lt;/div&gt;&lt;div&gt;&lt;font color=&quot;#4d4d4d&quot;&gt;&lt;b&gt;172.17.0.1 - 172.17.255.254&lt;/b&gt;&lt;/font&gt;&lt;/div&gt;&lt;div&gt;&lt;font color=&quot;#4d4d4d&quot;&gt;&lt;b&gt;&lt;br&gt;&lt;/b&gt;&lt;/font&gt;&lt;/div&gt;&lt;div&gt;&lt;b style=&quot;color: rgb(0, 0, 0); background-color: initial;&quot;&gt;&lt;br&gt;&lt;/b&gt;&lt;/div&gt;&lt;div&gt;&lt;br&gt;&lt;/div&gt;&lt;/div&gt;&lt;/div&gt;&lt;/div&gt;" style="rounded=0;whiteSpace=wrap;html=1;fillColor=#EEEEEE;strokeColor=#36393D;" parent="1" vertex="1">
          <mxGeometry x="604" y="1288" width="320" height="181" as="geometry" />
        </mxCell>
        <mxCell id="vWI4zveBEEdujr9KzqbE-4" value="&lt;font color=&quot;#000000&quot;&gt;&lt;b&gt;&lt;u&gt;VLAN 40 - Réhabilitation&lt;/u&gt;&lt;/b&gt;&lt;/font&gt;&lt;div&gt;&lt;font color=&quot;#000000&quot;&gt;&lt;b&gt;&lt;u&gt;&lt;br&gt;&lt;/u&gt;&lt;/b&gt;&lt;/font&gt;&lt;div&gt;&lt;div&gt;&lt;font color=&quot;#4d4d4d&quot;&gt;&lt;b&gt;Adresse Réseau : 172.19.0.0 /16&lt;/b&gt;&lt;/font&gt;&lt;/div&gt;&lt;div&gt;&lt;font color=&quot;#4d4d4d&quot;&gt;&lt;b&gt;Adresse Réseau Suivant : 172.20.0.0&lt;/b&gt;&lt;/font&gt;&lt;/div&gt;&lt;div&gt;&lt;font color=&quot;#4d4d4d&quot;&gt;&lt;b&gt;&lt;br&gt;&lt;/b&gt;&lt;/font&gt;&lt;/div&gt;&lt;div&gt;&lt;font color=&quot;#4d4d4d&quot;&gt;&lt;b&gt;Adresse de diffusion : 172.19.255.255&lt;/b&gt;&lt;/font&gt;&lt;/div&gt;&lt;div&gt;&lt;font color=&quot;#4d4d4d&quot;&gt;&lt;b&gt;&lt;br&gt;&lt;/b&gt;&lt;/font&gt;&lt;/div&gt;&lt;div&gt;&lt;font color=&quot;#4d4d4d&quot;&gt;&lt;b&gt;Plage d&#39;adresses&lt;/b&gt;&lt;/font&gt;&lt;/div&gt;&lt;div&gt;&lt;font color=&quot;#4d4d4d&quot;&gt;&lt;b&gt;172.19.0.1 - 172.19.255.254&lt;/b&gt;&lt;/font&gt;&lt;/div&gt;&lt;/div&gt;&lt;div&gt;&lt;font color=&quot;#4d4d4d&quot;&gt;&lt;b&gt;&lt;br&gt;&lt;/b&gt;&lt;/font&gt;&lt;/div&gt;&lt;/div&gt;" style="rounded=0;whiteSpace=wrap;html=1;fillColor=#EEEEEE;strokeColor=#36393D;" parent="1" vertex="1">
          <mxGeometry x="705" y="666" width="320" height="181" as="geometry" />
        </mxCell>
        <mxCell id="vWI4zveBEEdujr9KzqbE-5" value="&lt;font color=&quot;#000000&quot;&gt;&lt;b&gt;&lt;u&gt;VLAN 100 - Serveurs&lt;/u&gt;&lt;/b&gt;&lt;/font&gt;&lt;div&gt;&lt;font color=&quot;#000000&quot;&gt;&lt;b&gt;&lt;u&gt;&lt;br&gt;&lt;/u&gt;&lt;/b&gt;&lt;/font&gt;&lt;/div&gt;&lt;div&gt;&lt;div&gt;&lt;font color=&quot;#4d4d4d&quot;&gt;&lt;b&gt;Adresse Réseau : 172.20.0.0 /24&lt;/b&gt;&lt;/font&gt;&lt;/div&gt;&lt;div&gt;&lt;font color=&quot;#4d4d4d&quot;&gt;&lt;b&gt;Adresse Réseau Suivant : 172.20.1.0&lt;/b&gt;&lt;/font&gt;&lt;/div&gt;&lt;div&gt;&lt;font color=&quot;#4d4d4d&quot;&gt;&lt;b&gt;&lt;br&gt;&lt;/b&gt;&lt;/font&gt;&lt;/div&gt;&lt;div&gt;&lt;font color=&quot;#4d4d4d&quot;&gt;&lt;b&gt;Adresse de diffusion : 172.20.0.255&lt;/b&gt;&lt;/font&gt;&lt;/div&gt;&lt;div&gt;&lt;font color=&quot;#4d4d4d&quot;&gt;&lt;b&gt;&lt;br&gt;&lt;/b&gt;&lt;/font&gt;&lt;/div&gt;&lt;div&gt;&lt;font color=&quot;#4d4d4d&quot;&gt;&lt;b&gt;Plage d&#39;adresses&lt;/b&gt;&lt;/font&gt;&lt;/div&gt;&lt;div&gt;&lt;font color=&quot;#4d4d4d&quot;&gt;&lt;b&gt;172.20.0.1 - 172.20.0.254&lt;/b&gt;&lt;/font&gt;&lt;/div&gt;&lt;/div&gt;&lt;div&gt;&lt;font color=&quot;#4d4d4d&quot;&gt;&lt;b&gt;&lt;br&gt;&lt;/b&gt;&lt;/font&gt;&lt;/div&gt;" style="rounded=0;whiteSpace=wrap;html=1;fillColor=#EEEEEE;strokeColor=#36393D;" parent="1" vertex="1">
          <mxGeometry x="-51.5" y="-129" width="320" height="181" as="geometry" />
        </mxCell>
        <mxCell id="vWI4zveBEEdujr9KzqbE-6" style="edgeStyle=orthogonalEdgeStyle;rounded=0;orthogonalLoop=1;jettySize=auto;html=1;strokeWidth=2;strokeColor=#CCCCFF;endArrow=oval;endFill=1;" parent="1" source="6ivqhQxys0qo0ZL2RCj_-14" target="6ivqhQxys0qo0ZL2RCj_-28" edge="1">
          <mxGeometry relative="1" as="geometry" />
        </mxCell>
        <mxCell id="vWI4zveBEEdujr9KzqbE-7" value="&lt;b&gt;&lt;font style=&quot;font-size: 19px;&quot; color=&quot;#000000&quot;&gt;&lt;u&gt;VLAN 20&lt;/u&gt;&lt;/font&gt;&lt;/b&gt;&lt;div&gt;&lt;b style=&quot;color: rgb(77, 77, 77);&quot;&gt;172.18.255.254&lt;/b&gt;&lt;b&gt;&lt;font style=&quot;font-size: 19px;&quot; color=&quot;#000000&quot;&gt;&lt;u&gt;&lt;br&gt;&lt;/u&gt;&lt;/font&gt;&lt;/b&gt;&lt;/div&gt;" style="rounded=0;whiteSpace=wrap;html=1;fillColor=#D0A5C0;strokeColor=#A50040;fontColor=#ffffff;" parent="1" vertex="1">
          <mxGeometry x="-380" y="1409" width="120" height="60" as="geometry" />
        </mxCell>
        <mxCell id="vWI4zveBEEdujr9KzqbE-8" style="edgeStyle=orthogonalEdgeStyle;rounded=0;orthogonalLoop=1;jettySize=auto;html=1;entryX=0.5;entryY=0;entryDx=0;entryDy=0;entryPerimeter=0;endArrow=none;endFill=0;strokeWidth=2;dashed=1;" parent="1" source="soyHDLQrWCftBUpEwsDa-25" target="soyHDLQrWCftBUpEwsDa-1" edge="1">
          <mxGeometry relative="1" as="geometry">
            <Array as="points">
              <mxPoint x="-371" y="81" />
              <mxPoint x="-91" y="81" />
            </Array>
          </mxGeometry>
        </mxCell>
        <mxCell id="GTzlq-Ta59_qip9z7J02-13" style="edgeStyle=orthogonalEdgeStyle;rounded=0;orthogonalLoop=1;jettySize=auto;html=1;strokeColor=default;dashed=1;strokeWidth=2;endArrow=none;endFill=0;" edge="1" parent="1" source="GTzlq-Ta59_qip9z7J02-9" target="GTzlq-Ta59_qip9z7J02-12">
          <mxGeometry relative="1" as="geometry" />
        </mxCell>
        <mxCell id="GTzlq-Ta59_qip9z7J02-9" value="" style="shape=mxgraph.cisco.routers.router;sketch=0;html=1;pointerEvents=1;dashed=0;fillColor=#036897;strokeColor=#ffffff;strokeWidth=2;verticalLabelPosition=bottom;verticalAlign=top;align=center;outlineConnect=0;" vertex="1" parent="1">
          <mxGeometry x="724" y="-108.5" width="78" height="53" as="geometry" />
        </mxCell>
        <mxCell id="GTzlq-Ta59_qip9z7J02-12" value="" style="verticalLabelPosition=bottom;sketch=0;aspect=fixed;html=1;verticalAlign=top;strokeColor=none;align=center;outlineConnect=0;shape=mxgraph.citrix.globe;" vertex="1" parent="1">
          <mxGeometry x="723.5" y="-376" width="78.5" height="75" as="geometry" />
        </mxCell>
        <mxCell id="GTzlq-Ta59_qip9z7J02-15" style="edgeStyle=orthogonalEdgeStyle;rounded=0;orthogonalLoop=1;jettySize=auto;html=1;exitX=0.5;exitY=1;exitDx=0;exitDy=0;" edge="1" parent="1">
          <mxGeometry relative="1" as="geometry">
            <mxPoint x="804" y="1131" as="sourcePoint" />
            <mxPoint x="804" y="1131" as="targetPoint" />
          </mxGeometry>
        </mxCell>
        <mxCell id="GTzlq-Ta59_qip9z7J02-18" value="1.1 - 1/1" style="rounded=0;whiteSpace=wrap;html=1;" vertex="1" parent="1">
          <mxGeometry x="-1228" y="238" width="120" height="60" as="geometry" />
        </mxCell>
        <mxCell id="GTzlq-Ta59_qip9z7J02-19" value="1.2 - 1/2" style="rounded=0;whiteSpace=wrap;html=1;" vertex="1" parent="1">
          <mxGeometry x="-1108" y="238" width="120" height="60" as="geometry" />
        </mxCell>
        <mxCell id="GTzlq-Ta59_qip9z7J02-20" value="1.3 - 1/3" style="rounded=0;whiteSpace=wrap;html=1;" vertex="1" parent="1">
          <mxGeometry x="-988" y="238" width="120" height="60" as="geometry" />
        </mxCell>
        <mxCell id="GTzlq-Ta59_qip9z7J02-21" value="1.4 - 1/4" style="rounded=0;whiteSpace=wrap;html=1;" vertex="1" parent="1">
          <mxGeometry x="-870" y="238" width="120" height="60" as="geometry" />
        </mxCell>
        <mxCell id="GTzlq-Ta59_qip9z7J02-22" value="2.1 - 1/5" style="rounded=0;whiteSpace=wrap;html=1;" vertex="1" parent="1">
          <mxGeometry x="-1228" y="925" width="120" height="60" as="geometry" />
        </mxCell>
        <mxCell id="GTzlq-Ta59_qip9z7J02-23" value="2.2 - 1/6" style="rounded=0;whiteSpace=wrap;html=1;" vertex="1" parent="1">
          <mxGeometry x="-1108" y="925" width="120" height="60" as="geometry" />
        </mxCell>
        <mxCell id="GTzlq-Ta59_qip9z7J02-24" value="2.3 - 1/7" style="rounded=0;whiteSpace=wrap;html=1;" vertex="1" parent="1">
          <mxGeometry x="-988" y="925" width="120" height="60" as="geometry" />
        </mxCell>
        <mxCell id="GTzlq-Ta59_qip9z7J02-25" value="2.4 - 1/8" style="rounded=0;whiteSpace=wrap;html=1;" vertex="1" parent="1">
          <mxGeometry x="-870" y="925" width="120" height="60" as="geometry" />
        </mxCell>
        <mxCell id="GTzlq-Ta59_qip9z7J02-26" value="4.4 - 1/13" style="rounded=0;whiteSpace=wrap;html=1;" vertex="1" parent="1">
          <mxGeometry x="67" y="238" width="120" height="60" as="geometry" />
        </mxCell>
        <mxCell id="GTzlq-Ta59_qip9z7J02-27" value="4.5 - 1/14" style="rounded=0;whiteSpace=wrap;html=1;" vertex="1" parent="1">
          <mxGeometry x="187" y="238" width="120" height="60" as="geometry" />
        </mxCell>
        <mxCell id="GTzlq-Ta59_qip9z7J02-28" value="4.6 - 1/15" style="rounded=0;whiteSpace=wrap;html=1;" vertex="1" parent="1">
          <mxGeometry x="307" y="238" width="120" height="60" as="geometry" />
        </mxCell>
        <mxCell id="GTzlq-Ta59_qip9z7J02-29" value="4.7 - 1/16" style="rounded=0;whiteSpace=wrap;html=1;" vertex="1" parent="1">
          <mxGeometry x="425" y="238" width="120" height="60" as="geometry" />
        </mxCell>
        <mxCell id="GTzlq-Ta59_qip9z7J02-30" value="3.1 - 1/9" style="rounded=0;whiteSpace=wrap;html=1;" vertex="1" parent="1">
          <mxGeometry x="67" y="925" width="120" height="60" as="geometry" />
        </mxCell>
        <mxCell id="GTzlq-Ta59_qip9z7J02-31" value="3.2 - 1/10" style="rounded=0;whiteSpace=wrap;html=1;" vertex="1" parent="1">
          <mxGeometry x="187" y="925" width="120" height="60" as="geometry" />
        </mxCell>
        <mxCell id="GTzlq-Ta59_qip9z7J02-32" value="3.3 - 1/11" style="rounded=0;whiteSpace=wrap;html=1;" vertex="1" parent="1">
          <mxGeometry x="307" y="925" width="120" height="60" as="geometry" />
        </mxCell>
        <mxCell id="GTzlq-Ta59_qip9z7J02-33" value="3.4 - 1/12" style="rounded=0;whiteSpace=wrap;html=1;" vertex="1" parent="1">
          <mxGeometry x="425" y="925" width="120" height="60" as="geometry" />
        </mxCell>
        <mxCell id="GTzlq-Ta59_qip9z7J02-34" value="4.1 - 1/17" style="rounded=0;whiteSpace=wrap;html=1;" vertex="1" parent="1">
          <mxGeometry x="-91.5" y="-331" width="120" height="60" as="geometry" />
        </mxCell>
        <mxCell id="GTzlq-Ta59_qip9z7J02-35" value="4.2 - 1/18" style="rounded=0;whiteSpace=wrap;html=1;" vertex="1" parent="1">
          <mxGeometry x="28.5" y="-331" width="120" height="60" as="geometry" />
        </mxCell>
        <mxCell id="GTzlq-Ta59_qip9z7J02-36" value="4.3 - 1/19" style="rounded=0;whiteSpace=wrap;html=1;" vertex="1" parent="1">
          <mxGeometry x="148.5" y="-331" width="120" height="60" as="geometry" />
        </mxCell>
        <mxCell id="GTzlq-Ta59_qip9z7J02-37" value="1/24 - Go" style="rounded=0;whiteSpace=wrap;html=1;" vertex="1" parent="1">
          <mxGeometry x="631" y="68" width="120" height="60" as="geometry" />
        </mxCell>
        <mxCell id="GTzlq-Ta59_qip9z7J02-38" value="4.8 - COM5" style="rounded=0;whiteSpace=wrap;html=1;" vertex="1" parent="1">
          <mxGeometry x="-226" y="243" width="120" height="60" as="geometry" />
        </mxCell>
        <mxCell id="GTzlq-Ta59_qip9z7J02-41" value="" style="shape=image;verticalLabelPosition=bottom;labelBackgroundColor=default;verticalAlign=top;aspect=fixed;imageAspect=0;image=data:image/png,iVBORw0KGgoAAAANSUhEUgAAAdQAAAKACAYAAAAl0IkQAAAAAXNSR0IArs4c6QAAAARnQU1BAACxjwv8YQUAAAAJcEhZcwAADsMAAA7DAcdvqGQAAJjdSURBVHhe7f0PTFzngS/8f7fRWH579lpDkst6f5DKk6yGjTJx5QkKiS52fsGVQ+5rXMU2CkYNoGJr63hj0l0bh2T7UtQ3ocbejdlcx7vCtIB/wq6ws6qxNsTakLc2UkJFxrf2RC2jtcc3hW0uG4eR30zX8ijd3/PnzP8BZobDMMD3Ix1z5nCYOc+ZmfN9nuc85/iPnE7nf4KIiIjm5WvmTyIiIpoHBioREZEFGKhEREQWYKASERFZgIFKRERkAQYqERGRBRioREREFmCgEhERWYCBSkREZAEGKhERkQUYqERERBZgoBIREVmAgUpERGQBBioREZEFGKhEREQWYKASCXa73ZxbWVjulWWlljtXGKhEREQWYKASERFZgIFKRERkAQYqERGRBRioREREFmCgEhERWYCBSkREZAEGKhERkQUYqERERBZgoM7JQMWrPRgY6EdHvdNcRkREFC+3gVrfIYJpQE09rVUiqlLY1IIetU4H6sxFi8lZ34rdGwwExk6irddnLl1AW1rN8vegdYu5LMl2vN6v9+Obe4rE4zp0mH/TskmvMafI64jpSF3q9yLyvGLqaUVVypXK0dKt1+moNxcREa1Ai9ZCNVw7cGBr6sN43nA2Yu8zDuD6II4cHkbQXLygLr6P8dtyxoCjrFItSrLzMThscmYC3qFJtShT258qiYboug2oecCcn4nhwo4DM1SCiIhokQL1K/mPAdfOAzO0evKErxvfr61G7St9yEHb1DSC9z4JqDnjoTIkR6qBmg0OyDwN+UZx5rd6aUaMGjymEjmAwC25oBju7S45MzPxni2JShAR0SJZnEAN+uCbEj/TbPWUH5LnMAcw0N2CcnOZEukejnZ1RtY9Ugfntha82aO7IwfOdOH1Wpd4LQNl3+1Al9llOtAfXh5LhP1zB/BmV79eR0z9XR1oLI/9nxpiulmfrkDTMf26XQfLzN/bUb7ndRzvjj7HQH8P3jy0Ha45Cuy5NC6iTjAcKEvs9jWq8KgKwxD8VwezajUX1ZbBKZ9i8iOc+HhCLSt8uBJuNZdKEL7r6g3L/0oQEdEiWaQu3y/x7k9HoDN1B/Y/vQBH6Hs34mCtG39yTwgh2SK+xw6nCMkDh1rR9KwDxlfmcptc3oS9peqvBAMVB4+hVYRO8X+5i6lP/ZiYCorVHKhsOiLCM3lbC79dh/Iivdz2NZlUTtT9+G00bXGicI0NoTvitcQEm4Hi0l1oPdaCitmKPDYEr9w5YlsSu32NrY/q7t474/joZ1nFKSofKVZzE58MwTPkhYrU+1yomvGcrXjH3uvGSLgS1FSRUAEhIqJFO4eKsU506yM03N/ZP3vAZEME2cT/rwG1L9Si9v8awoTIM/lartJiTFx4TS9vPAefWm5HydNmy7J0N3Y8LluiUxj+v/dh31834/v79uHEFRledri/XSMiKZYIycIgRrv2oLq6Gg2HR2A8X4/Kh3SXqkcsV68lpoY2czvsbuzYPXN7EPDi7P/ULcf4bl8DVet1d2/QN4pBvTAzItCfUAXw40r/JPDbM7hyUz6e5Zyt4kFnuBK0oW5hKkFEREvY4gWq4Ok0Wz1r3KizutUzdQXnLpgtOF83roTH7tzy4Ex4tG7wDMbN5fb7StTP8s0bUCh+hnzv44Q33AIMYnhkXHevFpVgs1oWFRjrxtGL+rynDKYdpU59jtN7Hu2R5eJZvN049yv9nIXOjZjtrOVkuOUY2+0b6e4NYvwXQ3pZhso3u0S1QLjpxTm1KUGcG/NB5rzx8EbUzNpyXuBKEBHREraogapaPT8bVecLjQ27rG31/H5atPOibnxuhuP/OyVeNSqy/B7948H79TbYnLui5z7l9JJ7hsAP4sZY7DNuQNG9em7iZnIbcuQzGUjC6q/rYJtJipajsdOtz33e8uK9S2pRhiqx+WFZihB8Y+d0BUEIXrgGv0xUmwOPzjHoyNN5GqPyDROVoF1/ya5fIqKwRQ5U4dJR9P5SHqHtcNeKVo8ZbLFCf1D9sjkVCkzAf92fYppU3Z4LL6blqLp9RcvX5VC/CfiG4yoFadu5ESUqAW1w7jQHb8mpZ4cOarn8ycQu7UQjOHpKV4LspbIStEovJiJa4RY/UIWRI7261WMXrZ5nCvTCGKNT0+YcEHf4ThG+8zX9pQ5vW+AK2l5pRnPS1InZO1uvYEqWRSheV6VnYpSvlR3Kwu8D8Ou5GUVajrLbd+sOuNbJpaKFPZBNnEYvt4EckGUOlIpOaiWgyI1tc12TGlcJqkTyO0ZEtPLkRaDGtXoeciR3I94KqpYa1pSgLNIt7ETdf3/U8i7HwQ/Nc6XrNmL/lthOWXkpTSsOvGA+nFEQQ7/RA4psrm1oiXkOw9WIbd/UWzxx9TzmvCVD8Aw+1omK4q0bodqnkx6cz+ba0wdqUKaaoSH4/ik6UCo6nTYHaBXCXT3bgCktWglywLFGLyMiWsnyJFCFSKsnhQujGFcpZ8D9Yg/6T/Wjv/91VP3XuzporXTxNIZvymcVra89XejvPo43f/wmjvf0oLXWhcI09thk1wkMxj6H3F4x9bRWqkteQjcHcaIrvTscvSMCXj3TfTqY/VfOzBLEYv/s0a8VO71eKxqe/90NdbFMyI+PU15u8w4u/1ovtz/yTPz1vilFK0FERJRPgSpEWj1JhnD06Dn4Ajo+battuDs1iu7+cdxVS6zkQ9/BH6LvwwnIl7OtKUTxQ8UovCeAiQ9Po++sudqs5HO8iM6LfgTu6O2VE4JT8F3sxIsHM7jzUqQyIYR88JxNFYYxzNeKm2xu7Nqgu5pD4x+J6Ext6Bdm63xNCTbPck1qxGyVICKiFeaPnE7nf5rzRCuW3W5HILDyKgcs98qyUsudK3nVQiUiIlqqGKhEREQWYKASERFZgIFKRERkAQYqERGRBRioREREFmCgEhERWYCBSkREZAEGKhERkQVydqckeYcOIiKixZCLO0Tx1oNEAm9Ft7Kw3LQQ2OVLRERkAQYqERGRBRioREREFmCgEhERWYCBSkREZAEGKhERkQUYqERERBZgoBIREVmAgUpERGQBBirNoQ4dAwMYGOhByyZzERERJcnZrQcbjw2gskjMTA7h5Ze7MakXx3E1HUdreSEQ9KK7oQ1D9R0Y2OoAbnvQ2diOEXO92VT+oAeN6w0177/QgObeoJqPE35eIejtw762QSSttakFPS+5YcCPwepm9JmLZ2S4sP0v92JnqYFrbzWg/ZK5XDBc27F/9za4i/R2IRSA/4NevNE1gvy/CZgM1Co4xB7yJJQrXe7nW1CzqQQFN09iz5HYd9GNmkM12PhwAfw/2YOjWTy3VeZ/Sza5nyownc0+ivk8aml+5iywmOUuP9SDJvF9icjgez5f8y63Oj4UYDjT9ylyXIlxcxDVB3Pxbi9iuROF90MOy54LOWuhnrni1zNFLlQ+oGfjubDZKcJUCF4fxZCay9R2cXCOflQdG2ogM3w2hmsHDmyN+3hnxihCxZ7X0fUPrdhVWgibuTjCWYfWV3fpMA2FELoTAmx2OLY04cjBcnOl5c1V6oaj0IAt6dPmgrvUgULDlrzflhIZiKrSkTkZKgNbC0VlpRrV1XoavOlA1VLoEZhHueuODIgwnRIVh3C5O+ERFaymgQ4R0flNvWeJoZim8icLMB7zXle/5UFwXRUGjuR7qedX7kR1VdY8T77JWaAGz3rgE1kCFMOlmqoJSivhUnkagPfd7OLUeP4xOOSR+VZAt/yK3Ni5Xs7M4Cv5jwHXzgOoyurdFbXznmPYu8UJ+2pzURwDNfWVaptCoib2Wm0tal+oxWvvTkDuCvvjO9CYsnJBS4IKlIGE1mWmxkWoxLfu+g4OijaqgZIn87TCZUW5Pxet0bhWzgjae0W4iHh21ZuL8owKFFHuuFZ1hkYON8e35C+14+RYEFhXkbcVKCvKHUe0TivWmfPLTO7OoQYHcc2vEhXFj1QmtRzdm0qg/oO3W+MYHlOLMlSEmiedqqUz8fEJfKT6lAvh+pZbzqQW9ME3JX4aLuw4UJVdjemrACbGBtHZJQ8GCYwdcDvlFgVxbbAPPr0Uvp8MY/yOnCtGScUcr2qUofFHx9FzRp7HFFPPm2jZVoWWbv24I+7gIyoHzx3Am139el05nelH148bUX6fuYoUPiAmtQbC50sTnzcVO8pFy/x4d8xr9ffgzUPb4QoXSXbriOVV5pfHKG3S63W3oFF9ScOtGwPul/Rz9ByKhojsKj/wt13oD5e9vwsde8r15yRvyO5Z0dK4YPbAZGjkcHuKrrMbmL4tyn//g+bjfDS/cveJcid17V6ahPw6Fq7N454b2S0tyt0pQ9AiI5/JUuc5y8pdjpZ6cUwWx0yP+IwvNzkclBRU3b4qUpO6fd2ocOrD5NSV0/CouQw9IFq4KqUn4B3yYOiTCbXYvr4KlWoulS/x7k9H1JdYdv3ufzrTSO1Dc80efP9wH0ZUQCZ42iEiUwhNYjy2VgrRAvlMzxWu3aBnUnKjqeMAKv+8EMY94mnuhBC6pxjuF3bh0f/DXCXCQMXBY2itLUOxXYS4XFdOoophf6gSTW+J8HSaq86bE3U/fhtNomVeuMamX0d1ZRsoLt2F1mOiBip3ZUCU+7ofU+Z3MBSYgF889l8XB85/Gxc/p8xKSAiBT+VyP8b/TZ/fMZ4+gGN/swtl37Dj7i3xd5+Kdb9mdpUfqsiu8mO13mZU5+hcZ15ZoeUeOdyA6gU4x1u+tlAE1jguxx0j8oeV5S4/tBvuNX4MH75hLllechiowtnLGFdH0IRu39IKlKgW1AQ8/5xquNLc3NVP6PC6eQVnfgtM9l8RdWjBcKBsi5yZwVgnukdUpML9nf06CKxyn6HPDf7Hlyq0Y01/qVvrs7VCiva8ADlGS3aDe95uUN3FtS80oO3i/xbhpVaJKt2LXY/LSkkI/nfb0KDWFdO+bnhlTdDmQGX9dkuCyHi+HpUPyQ0Q29W1x9yuWjS0DWFC9WW7sWO3qIVe7UP7K80Y/Xf1Z7j7r+fQLB43v9GHwVPtYn7U3C93cePnYrn4Xfspr3jsxu6dZbCLSsTUB23Yt+/7aP7rfdj3j7oXwF5ahZrl3FVev00cdEQb0LuyIqtcVJTk4LfxD3MxLClP1HegqRTw9OZmMNai2tSC3aUG/BeWb2Ust4GKIYxe122S2G7fSHevGYaZK8czj+gWrt97Trd6gufgUSdtDZQ8VTNrkHg6u6EydY0bdU25af1M37lrzs1s80OqioCQ9zzaP9D7Tbb0vV2DuJbQXVK+2aX34WeX0fkTr9nyE24N4egl3S1nczyGZ9TcfBjYUaq71tV2XYyOGAx6u3HuV/qVC50b4VJzWdj0DDbIikTIh/ffjpYl+IGokKlyF6Pk/6sWLT+ym1yem7w5iOZec9lKoILFQHDsZFYjyZcSOSArcppk0zQ6E86hL0916DBH9S7nz3WOA1VE6i/G9QEy0u0bDsMQfGNmGGZqy2aUiBq9PAB7zkYOvxi8qruYbY5H5xh05EHnz0bVQCZjw64sun4zt0q0vhQ1MCqVchT9Vz33v387rGciksP4wfv1NgcnriVdkhT0T+v9arPhj9WS+diAonv13IT4ciSKnA9a/fXsz3U6CnSlxubErvCBR01NquWm5PyTmyXzPHK0DHJKPZI1MopyOVxKkEG5VcCISkRwrBMNh5d4Oy0yPiFm6m4R3+aovoMxo3xFuOxOsc6SM0e5645UwSHPwy6jS2RSyf1h6dJ78N6SM2a376aNZhj6ce1CVnGK7U+VRA7AO3qib2jPTt2SksvLahOHQSW4dBS9v5SRaoe7dj8qwoE3H38wf65ahQJzNqy4wAzA6bnPJYS+ym6/zCi8XfkuFMCEOueaPE3+zlwn311qR0P44BmZEru8ytUgM9lC818Qv18OB520yq0HwVWtk9c4Vy/9MJXU+eWEcs92/lHtp0H417ixO2ZA3pIzS7llRbFqnR+DC3D+Od8sQj3fg2Gf7iaU3b5VT+owDI1/hDPZ5IZRg8fUtTJCeCBO7GS2AIvXb0saWZxo5EgvRlWmurHrmcQIzMKv9KhFrC7Eg3GX74ja2lr5M4TJ6zN9xAL4vTnQKWnUo1GMP04YlDQxrXeeUfxoUjmNcIvvThDT8uf/Mlusorph07mupXU96BVMmb28xeuq9EwMNcBC+n1An8POxq2g6lmAbRpXfqTPrSZOnRfVmsuADBXZ8tajZldMN69qwZqtlhXR5TmbpTCqO1t12KYut5HXVse0XsO9TfIaXPF47qsKloZF6Tjz/ItXB03RE9j2Z3Jny4EIyd2H6SiqLYO6MiXkw7nvmQNxYqezPn1wXitCslTOzGYER0/prl/7Qw4dQvNx9bK+LAeF2PBcVaQL1PndCpTI61aD47h8Vi9L5sXHn5oh+c0daIxci2JHZdNmXeYYw2N+HZJrN6Lpu67ott9Xif3l+uKUoG8Uai/7A2ag/glcz4eH/hqo+EtzYNesghj6jR5BbXNtQ8uWaMeu4WrEtm/qV564ej6p63nVmuIZ9ukq/PGfxvzmwqg5eM2BjU2VcV3H8lKa1oP5fxF8ulRXmLoEZSWNmtWXThg5vDNSfnsQBSJcgp8vx5GvfWhObLmqqVNfNiNPb4jHy6UiuThnoq6ehVddNmKHXR4tb4/j/dlaHGvcePFUP/rjptdRI9pi29abA3f8H6du4UZGFtvh2pxGl0qk69cKHpw869HnZl116OrX2/76s8WiJRiC//2Ts94RaqR/GOrSXVsxKlt7dLn7u0S4ivZr4mU6F4+ib0y+kg2OZ1vRE95Pxxvhlvs44EHf35mv9tvz8Ki0s6H42dfN/dmDvQ/bzKCd3WTXCQzelBtmh3tPl/n3/ehpjd7E4kRXNE69v9P70+bcgS61TQfMcyuiYqW6/21wPqef5/hfyd8M4fQH+vy3fUOj2G89OP63HXjzeI94jV3mDUCWgzq41okD6dj5FRSmgnmax39ppYVpHTqSzpXKHgrdUj+5HLq8V7hFGtoxifNXdStHCnzy3pxfLNtqW9K0qnQX3GbX6fiH76j1kg3h/V/rmDAe3jzLNalRka5fCwQ/aMfBziHRKBTxYNPbLa/HHO56Ec2n5rhE6Ld9aHvjHLzmhZzyb+9Oe3HujdO4kTQuKYjhwy+jrd+DidvitcL76Q8BTHx4Gm0vt2M4kpaT6P5RN0Yno8+LO6KFf/Ry0uU9qfnQd/BFdF70q2BXryOfIzgF38VOvHgwehMLyfOPpzES81q2UFBVMmSF48TPRjAhf3WPfo67d/RvfL3N+OGpUUyo/Wag8BsOFN+3CoFPR3G695xaZ7kwwje8SJqW939I4Niaqsxyyv/bD2bnBqbV7RVjy1qFwrHOBbm+lXIvZzfHJwsZolbbI7sKQ/D21qLtgrmcsjb/m8QvTSz3yrJSy50ri9RCpbRsOoCOH8Tcyk8yXGj8YaUIUyE4jlGGKRFRXmALNZ/JkZDyusSvQvI/qtFkt7G6pCcI389ew2tn5+g2prSwxbKysNy0ENhCzWcfD+Py1QkEQvr8opog73vrwWDnywxTIqI8whYqkcAWy8rCctNCYAuViIjIAgxUIiIiCzBQiYiILMBAJSIisgADlYiIyAI5G+UrR5cREREthlyMbuZlM0QCL6NYWVhuWgjs8iUiIrIAA5WIiMgCDFQiIiILMFCJiIgswEAlIiKyAAOViIjIAgxUIiIiCzBQiYiILMBAJSIisgADlYiIyAI5u/Vg47EBVBaJmckhvPxyNyb14jiupuNoLS8Egl50N7RhqL4DA1sdwG0POhvbMWKuN5vKH/Sgcb2h5v0XGtDcG1TzccLPKwS9fdjXNoiktTa1oOclNwz4MVjdjD5z8YwMF7b/5V7sLDVw7a0GtF8ylwuGazv2794Gd5HeLoQC8H/Qize6RjD7TcDq0DFQBb2lMUJBTF2/jNPHujFyy1xmGTdqDtVg48MF8P9kD47GlGM5m/8t2eR7VYHphPc+lbojA6i6N/VnWv6u4vNONBxO59M+f4tZ7vJDPWgS35eIDL7n8zXvcqvjQwGG5zw2lKOluwnuLwZRfbAvucyC/0K1OE6ZDxbYYpU7UXg/5LLsuZCzFuqZK349U+RC5QN6Np4Lm50iTIXg9VEMqblMbRdBEP2wOjbUQGb4bAzXDhzYGv8Bz4hRhIo9r6PrH1qxq7QQNnNxhLMOra/u0mEaCiF0JwTY7HBsacKRg+XmSmkQfyf/VjyF+HsDhX9eiaZjHahLuS/nwwV3qQOFhi25LJSarKClqvikVAfXOvEZ911OCA4ZTCJwxO+WjHmUW4ZrU+mUqKxWo1pNnfCIylzTgPhM6z/IWzIMBlRlOw2bNqJkjQhNUXGXIbPx/nF0Rspcjc6xIBxbB9BRr1fPZ9mXO1EdtiVUKpaLnAVq8KwHPhkGKIZLNVUTlFbCpfI0AO+72cWp8fxjcMgUuBXQLb8iN3aulzMz+Er+Y8C18wCqsnp/xUGw5xj2bnHCvtpcFMdATX2l2qbQzUG8VluL2hdq8dq7E5C7wv74DjSmFYhBeLr039bWVmNPl0eXb7UDFQ2Vag1aBCpQBiK9HekoP1QhAsiP4UgLVAdp+sGUB6wo9+eiNRrXyhlBe69HfNIdcOVpuKhAEeVObGHOpq5KBJBoeZ9XrTBRxoPxLfCRwyfhuS0q/6Lll0H1OqfmX+54+rOwPOXuHGpwENf8KlFR/EhlUsvRvakE6j94uzWO4TG1KENFqHnSqVpVEx+fwEeqT7kQrm+55UxqQR98U+Kn4cKOA1Xp1bwSfRXAxNggOkXIJXUbGzvgdsotCuLaYB98eil8PxnG+B05V4ySisxfNXCxHee9el8a33ChTM/B9dwBvNnVrw92cjrTj64fN6L8PrWCKXwA70HL0xWilau/LF0Hy8wvTvjAbsD9kn6enkP5+lXPB/KUgGhtXDB7YGYlWihOA8Gx80ndZbLrq7p6UDzbUjG/cvcdTtG1e2kS8utYuDaPP2+yW9psWc5Nt8r9l2brxh7B5BfmbD6zqtyi4rC7FPBcSHG8XAZyOCgpqLp9VQwkdfu6UeHU/1/q1JXT8Ki5DD0gWrgqpSfgHfJg6JMJtdi+vgozt+G+xLs/HVFfYtn1u//pTMOtD801e/D9w30YUQGZ4GmHiEwhNInxS2qJSRw4P9NzhWs36JkMTd+5q2e+JrtmDVQcPIbW2jIU20WAh7uHxW/sD1Wi6a0O1Dn16rEKv12HcvO8rk08T+DfxuG/PmV+0EMIfOoXj/0Y/7f5nGNbxnqbRQimcX49rH4b3GuCGP8w9jAjPkPiQLWkziNZUu6lZ+RwA6ozOMcbbpV7Z31vy1F0r6zbJ54CyB/WlbscLfWi5XpzGO1Lp+aYkdyO8j17GePqaJ3Q7VtagRLVipqA559TDVeam7v6CR1eN6/gzG+Byf4rurZvOFC2Rc7MYKwT3SMqUuH+zn5k0WCc2X2GPg/5H1+q0I41/aXZwrz/QfUzM0Uo+VNzQ7+YxJXSvdj1uKyQhOB/tw0NsmtYTvu64b0tFtscqKzfntACN1BcGMRo1x51LkcOgvGeakfzK6Pmtt7FjZ83i8fNaD/lVUtofupcou0vDyZxlavlL91y6wPx0g9ebebeiFh1R5pEc8KDkzkahLbwZi53+aHdomLlx2CKQUrLRW4DFUMYva7bP7HdvpHuXjMMM1eOZx7RLVy/95xuYQXPwaNO2hooeaomIUzieTq7oTJ1jRt1TRWzrmuVSAszQ0ZRGbYfehWb1c4LwTd6Dhs2u/T+++wyOn/ijXal3BrC0Uu6KmhzPIZn1FxUYKwbRy+y9ZkTm1pQIbvBUg7SWMbSLXd9hzpHFxw7uTwqHDO2ysOnXPQkR3Rn0vrLezOV23x//Rcy6NlYgnIcqCJSfzGuD/iRbt9wGIpwGDPDMFNbNqsRZQj54DkbfoYgBq/qLmab49E5Bh150PmzUTXQx9iwK4uu38ytusecUQOj5hJzPvPYgcho4sAvT+INUd4H79fbG5y4lnQ5UtA/rfepzYY/VkvCgrgxllXnOmWh/MmSGQdpLGfplFuO+JUDnIJjubtcaKHN3CrXXfzhUb4nsXtZjVNIXW5RiTDf3+V0iUwqOQ9UXHoPXnXtpNntaw6vRsiPaxeyilNsf0p8aeWMzYkdPdHaX89OPUhJLi+rjeliTuXSUfT+UkaqHe7a/agIB958/MH8uWoVCszZsOICMwSnb6ifcwqfF70TwMRvPBjs3IM9R4azq4BQjunLBPL5PNnCmKvcurVWtS4Iz1v6tMOykEFvhDo/ecEPo3Q3WjaZC5eqlOWW16NWwXFzcPm8v7PIfaCK1uCwT3czym7fKlmDFfOh8Y9wJpt0MGrwmLpWRoiETsxktgCL12+LdDHPZORIL0ZVprqx65nECMzCr/SoRawuxINxl++ID9ha+TOEyevpfMhiLpt5YQ++/4N29I1Eu2onpvWOM4ofTSqj4SjQlY07QUyrJZRz9S41SCN6qcwKMVu5xcG3R44oV6NH574pxFKScW+E6kUyUKCH1y9ZKcutuoDFz3VVkYaOmszrWeU1uANL4NrjdC1CoIpI/RevDpqiJ7Dtz+RulX3ug3JJxopqy6CuTAn5cO574dCJmc76VLcv1oqQLJUzsxnB0VO669f+kEMH0Xxcvawvy0EhNjxXpc9zCs7vVqBEXrcaHMfls3rZfAyP+XVLde1GNH3XFd3u+yqxv1x/S4O+UWS2h1fhj8MDn2geRA19k+wG8y7rc0fJZiu3OdpThulyOn+oZNEboSq9osK7pEe+zlBuNSI82sUdmd7Sl83oy8WWz3nVRQlUXD0Lr7psxA67TJnb43j/onw8gzVuvHiqH/1x0+uoEe2xbevV2F6E/B+nbuFGRhbb4dqcxnmKSNevFTw4eVbfhMFw1aGrX2/7688WwyZi3v/+ySzvCJXg4lH0jclXscHxbCt6wvvoeCPccv8GPOj7u3RfSVR2VJe8Dc7nutTzHP8rXoeaNXOQhmdwZcXprOUO30Vn1uszl6akG1jEqu9IPlcqb5Khzi8u7cFYs5Z7BVmcQMUkzl/V14lKgU/em/OLZVttS5pWle6C2+w6Hf/wHbVesiG8/2uzS/ThzbNckxoV6fq1QPCDdhzsHII/INrJNr3docAEhrteRPOp7C4RShYUH+SX0dbvwcRt8TrhffSHACY+PI22l9sxnKqykZIHJ342ggm5/j36ee7esaqCsfLwUhlzQQq6uy/VtFS7AOe4VMY/DZQ2xZd1a+EyOH+c3iVCK0HObo5PlM/mf5P4FOR5wpfcmMrjG4Cz3BZSrU0ZkPl7TnilljtXFqmFSrT8zXY/0+VsZZY7fM54pfVGrNRyp8YWKpGwIDX3JYDlXllWarlzhS1UIiIiCzBQiYiILMBAJSIisgADlYiIyAIMVCIiIgswUImIiCzAQCUiIrIAA5WIiMgCObuxg7ygmIiIaDHk4oYWvFMSkcA756wsLDctBHb5EhERWYCBSkREZAEGKhERkQUYqERERBZgoBIREVmAgUpERGQBBioREZEFGKhEREQWYKASERFZgIFKRERkAQYqERGRBRioREREFmCgEhERWYCBSkREZAEGKhERkQUYqERERBZgoBIREVmAgUpERGQBBioREZEFGKhEREQWYKASERFZgIFKRERkAQYqERGRBRioREREFmCgEhERWYCBSkREZAEGKhERkQUYqERERBZgoBIREVmAgUpERGQBBioREZEFGKhEREQWYKASERFZ4I+cTud/mvMLym63m3NERES5FQgEzLmFk7NAJcpnssKXiy9cvmG5V5aVWu5cYZcvERGRBRioREREFmCgEhERWYCBSkREZAEGKhERkQUYqERERBZgoBIREVmAgUpERGQBBioREZEFGKiUvk0t6BkYwMBAB+rMRUREpOXs1oONxwZQWSRmJofw8svdmNSL47iajqO1vBAIetHd0Iah+g4MbHUAtz3obGzHiLnebCp/0IPG9Yaa919oQHNvUM3HCT+vEPT2YV/bIJLWkuHxkhsG/BisbkafuTiZAddze9H4390ottv0oq9CCNx8H71HujFySy8KM1zbsX/3NriL9DYiFID/g1680TWCvL8hWNr7ZGbu51tQs6kEBTdPYs+R2HfUjZpDNdj4cAH8P9mDo5fMxTmS3S3ZytHS3QT3GvOhEBzrRMPhdD6pqZUf6kHT/cOoPpjN3s3cYpZblbXU/B5IGXzP5yu7ctehY6AK+sih+S9Ui2OM+SAdke9QjJuDef5+W1DuROH9kMOy50LOWqhnrvj1TJELlQ/o2XgubHaKMBWC10cxpOYytV0ckKMfVceGGsgMn43h2oEDW+M+3pnZtB8HastUmIbuhNSEe2ywP1SJph8fEIeeGM46tL66S4dpyFzXZodjSxOOHIxbc9lylbrhKDRgS/rkueAudaDQsMGsluQ5eZARofKFOCBUV+vpLQ9Q2oSBI9m032VIDcQHTF6yptx1R2RZp0TFzHyO6k54RKWqKV97P2QAiFApFBWHSLkv+OHYOoCeQ+l/d8ufLMD4W+Eyi0nsu+C6qiw/MzlgUbkT1VUlVCqWiZwFavCsBz6RH0AxXKqpmqC0Ei6VpwF4380uTo3nH4NDHo1vBXRrr8iNnevlzAy+kv+IFubOA6jK+t0NYfr6EDq/V43aF2rVtKfLq1u8djee3alWEgzU1Feq7QuJWtlrtXrd196dEM8gVn18BxpTVjQoX03Lg0xs7fpSO06OiXd+nSuDUNBBOiBDKqbFl88sKffnojUa18sxgvZeES6iHeSqNxflmXHRKotrhfc2Y/Cm+GY7N8ZXnGcxcrgZ7ZfMB1Jk31WgZZO5LM9YUe44IqQr1pnzy0zuzqEGB3HNrxIVxY9UJrUc3ZtKoP6Dt1vjGB5TizJUhJonnap1M/HxCXyk+pQL4fqWW86kFvTBNyV+Gi7sOFCVXY3p0lF8/5X4rt3AxfcxflvOidZW+EmNHXA75dYFcW2wDz69FL6fDGP8jpwrRknF7FtgPN6I14/3iIOvPACLGuKxFlRtkzXIVOc17Sjf8zqOd/dH1h/o78Gbh7bDFfsysvs75d/Lloj+u465DnD3laPxR8fR02++jpj6u99Ey3Ou6D5VNd0BVJlfJEO2aOS63S1oPCTLFO5SMuB+ST9HtAYsu9UP4M2uaFn6uzrQWL6Y/yVgH9pTdHGOfCY/UIUoyvDgKLtMVStNfW7ymTXl7jucomv30iTUs6zNvuWzYETwtafo4rzxuQjDNQV40HycDb3v8pTl5RYVyHpxTB4bXAKf9czlcFBSUHX7qkhN6vZ1o8KpD45TV07Do+Yy9IBo4aqUnoB3yIOhTybUYvv6KlSquVS+xLs/HVFfYtn1u//prCI1hQKsWmXO/sH8+bRDRKYQmsR4bA0Vg/B/pucK127QM6mIAOo4WAlnodjGr3R38aq1btTVPIrwS0U5Uffjt9G0xYnCNTFd0SLdi0t3oVUE8RzZnT6nCN5jTaj880IYX9OvExIVBNuaYrhrW3HsUIUO1YAo93U/psT3UAoFJuAXj/3XxUH038bFzynzPHYIgU/lcj/G/032MxioOHgMrbJb/b/cxZT43YR4EpvdgcqmI2ix7D1bLKJl1pjQAqAVpXxtIXB7HJfjjgvLU/mh3XCv8WP48A1zyfKSw0AVzl7GuDpqJnT7llag5D45MwHPP6carjQ3d/UTOrBuXsGZ3wKT/VegztoaDpRtkTMzEC2D7hEVqXB/Z78FQSMC4NA2uFaL2ZAPH72jl+I+Q58b/I8vVYDHmv5St9yN+2eq7xWh8Tvlov4vBDw40ai7i2sb2zD0O9kOjmc8X4/Kh+TSADxdeyJd0Q1tQ5hQ/ctu7Ng9S8s9bWY3tiyr2K7ufeZ2vdCAtotmV3bpDuwuFTNXRcvmlWaM/rv8O+Duv55Ds3jc/EYfBk+1i/lRc7/cxY2fi+Xid+2nvOKzsRs7HpeVrSkM/9/7sO+vm/H9fftw4or8INnh/vbc58lzR9S+N8lBdCvj4BhlTbnLReXLIapV4x8ulcpFHbbJc943vVkN0FPqO9Akvh+e3twMxrJGluXe1CKOBQb8F7Ib0LgU5DZQMYTR67odEtvtG+nuNcMwc+V45hHdwvV7z+mWTvAcPOqkrYGSp2rEvzPzdHZDZeoa0eJrMltUWbGj8tAx7C2V2xKC/71evKOLO6vpO3fNuZlsRonaWSF4f96O4fBzytHQF66ZLbswAztKddd3yHse7RejI/qC3m6c+5Veu9C5ES41Nw+Rbmy9XUORbu8gvF3ncE116RTC+d+yf6XyzRtURSLkex8nvJGCY3hkXJe7qETsnfxQd0SeBw0usYPj/FlSbhUsBoJjJ+PPMeYtee5bnqbwYzDDUapyQFb41MXApml0VjcskTJL2Za7Dh3mqN55jQ7OczkOVBGpvwgfCMPdvuEwDME3ZoZhpraIwJEDOkSL0HM2etAdvKq7mG2OR+cYdORB589G1UAmY8Ou7Lp+jTLs/du30ajCNADvqR+KD074TOnsVt1jzqhBUilsKtKtU/xvTHygZqKS/mYDiu7VcxPiw5socr5m9dd1JWY+Hgtv14SodaqZGCOY/ELPGauzf6UH79fvhc25K3oQklPipQeLSp9vrlonQuWthIOjee44btuXzXW81pRbBcxW0TYdm98lRzmjyiYrESkuH4uMSYiZulvEUS6q72DMKF8RLrtTrJOX5lHuuiMihOVlUcvoEplUch6ouPQevKolY3b7btpohqEf1y5kFafY/lSJPrjanNjRE31De3bqlppcXlY7R8fgpaPo/aWMVDvctftREQ65dDhr8PrxA6j4hni1oA/n2l5G2/mEMA2fS121CgXmbFhxgY6G4PRc5xVCCGW3i2YW3q48Fz3nmjjpgSyLRh1IzINFqpbGpXY0hA+ekWkZdHlZUu7YQF4a55HltbOqMievn0z1PvY2J5RZTLNdW6v20yD8a9zYPY/LUBbafMot/7ZqnQjhHF1jvJhyH6iiNTjs092Qstu36kkdhqHxj3Amm7AwavCYulZGMAffxE1mC654/bY5z7WNHOnFqMpUN3Y9kxh7MzAq0HJwB5yiEKHJYRzd9xrORLomY/zKPPCvLsSDcZfyiIPSWvkzhMnrM3zcAr83W+7JoyiNP/3jhEFJVzBl9vIWr6vSMzHUAAjp9wF9jvl/TZvPHTMiWUrnetCPpzCtZorh2KpmYpRHWsrBgHkNchbC55dtgStok+dck6bOLK9Znj91kDFbVrMeNJcZS8qtWjuzBHIe0tfOynOAIiwsbWndwPRt8ZWbcQzF4ppfuc3zrXCgKtxyVZN5mZi8Blc8nvNKgiViEQJVROq/eHW4FD2BbX8md7YciJDcPZmOotoy6NN4omX4vfCgmJjprE91+2KtCEk5OGZWIzh6Snf92h9ypNWl6P6LXXDLHk1xYDj52gmMzlQpuHpZX6IjQnHDc1WR7lbndytQIgf1BMdx+axeluTqx5hQ5yMNPPrtxuhlL/dVYv+3zFZ4RBBDv9EjnG2ubWjZEu1uNVyN2PZN/ccTV8/ru1X5A2ag/glczzvVnHydir80B3nNJjgEr3oSG1zfbkGlGlgmGXB9dxseVddVph5otmpN8Qz7dxX++E+jvxn80DxFsG4j9seURb3Gc6048IL5MNdEIMgBFkumm9IqlpRbXzphyDBdKhUR0SKXl3zN+w5BKT2IAvFdCX6ehyNf513uPjQntlzVZF4iplq8C7FPF8eiBCqunoVXXSpih12F0Tjevygfz2CNGy+e6kd/3PQ6akSbc9t6fdgP+T9O3cKNjCy2w7U5jS6VSNdvelx/ah7kjUex+x8St1FMP6rRvxct85NnPfo8rasOXf36968/WyziKAT/+ydnaWmNoO//Mc8Hf6MSrd3mcx9vxKPiGXUbLmqy6wQGb8qldrj3dEW2pac1emOJE11myP32PDxmKBY/+7q5bg/2Pmwzg3Y2k+h+exDq8mLRqm88bm6X+PvWZx26XBdOoDtmoJn3d3rf2pw70KXKEL6blKhkqVMBNjif09t8/K/Eby6exnBsWbqP480fv4njPeI1al0oXJxPMMpVz4oc/r+CwlSwpNzmaR7/paXTqq9zyVHMHpyf14G/Dh1J50plt7duqZ/Mw8+SNeVeORbpcDSJ81d1K0oKfPLenF8s22pb0rSqVLQOze7S8Q/D16ckGsL7v9bRYDy8eZZrUqMiXb+ZuCd5+/QU7ZANftCOg51DolEoAsKmfy/PDQ53vYjmU8mtuFiTp9rwxj+J0JFFka9lu4vpT87hjf4bSB4j7EPfwRfRedGPgLwm1NwWBKfgu9iJFw9GbyyhQvFH3Rid1PtIrXdHtPaPXk7v3KRP1EBf6sTQdRns4TLLl/JhqFOUK2FglucfT2Mk5rVsoaCqZMgKx4mfjWAiXD7xu7t35G9kWX6Ivg8noHbbmkIUP1SMwnsCmPjwNPpmatXnRGI3VsyUr7eSs4Q15Za3r0v5HPk6aEtU7JtSbm/sTUhmcwPT6vaKsX9r3tYvn1vq8y73ypGzm+PTwjDqO9Ajb/R/x4u+F9qQXcc5ZXfT8KWP5V5ZVmq5c2WRWqiUqfK/6kBr7K38BHlOtPUZEaZC0DfKMCUiWkRsoS4RcmSl+p9I5P9SY45cVt2zUtCH0z94De9kdVMMkthiWVlYbloIbKEuEVc+uAzvZAChr4XPU8pznQFMjA2i868ZpkREi40tVCKBLZaVheWmhcAWKhERkQUYqERERBZgoBIREVmAgUpERGQBBioREZEFcjbKV44uIyIiWgy5GN3My2aIBF5GsbKw3LQQ2OVLRERkAQYqERGRBRioREREFmCgEhERWYCBSkREZAEGKhERkQUYqERERBZgoBIREVmAgUpERGQBBioREZEFcnbrwcZjA6gsEjOTQ3j55W5M6sVxXE3H0VpeCAS96G5ow1B9Bwa2OoDbHnQ2tmPEXG82lT/oQeN6Q837LzSguTeo5uOEn1cIevuwr20QSWttakHPS24Y8GOwuhl95uJkBlzP7UXjf3ej2G7Ti74KIXDzffQe6cbILb0ozHBtx/7d2+Au0tuIUAD+D3rxRtcIZr0hWMw2xwrdnoL/o9M4MtffZ+OBCuxtqIL74RAu1862D5a++d+SrQ4dAxWYfqsB7ZfMRTOoOzKAqnvDn2n5d1VIfmeD8KTxXPO1eOUOK0dLdxPca8yHQnCsEw2H0/m2Z2/e5VbHhwIMz3pskMzyfTGIzs8r0FRqfu9TyeA4l63FKHf1QXPNhGNYLt7nXMtZC/XMFb+eKXKh8gE9G8+FzU4RpkLw+iiG1FymtmPjw9EPrGNDDWSGz8Zw7cCBrbN8yOeyaT8O1JapMA3dCakJ99hgf6gSTT8+ID5WMZx1aH11lw7TkLmuzQ7HliYcORi35qzCrxP6Svz5mkI4xd+//eO6OcuaMUcZytYXI1xPoBnIA0XKUEylDq514jPuuxx34PRfqEZ1dey08GE6b/Mttzw4DzShxNcZLfdbHkyZv85X5Yd6MKAq22nYtBElorLgFxX3kcMNMe9vzCTKLCv0/ksLG6bzlW25JfW3WwtFJTFc7kFMlTZh4Eid+v1ykbNADZ71wCfyAyiGSzVVE5RWwqXyNADvu9nFqfH8Y3DIg/+tgG6tFbmxc72cmYEIJNXC3HkAVVlnagjT14fQ+b1q1L5Qq6Y9XV7d4rW78exOtZJgoKa+Um1f6OYgXqvV67727oR4BrHq4zvQmLKikUDUYt82X6e2Zg+6r+japu2hCuzeomYpV1SgDKTsOZhJ+aEKEUB+DIdr5puKoKuRS4gV5ZYtW3FwRmIrRYRKc562WlQoiHLP2spMUFclAkh8Z8/3mgtSSGedxTT/ctdhm/jb4NjJmEpiH5oviEbWugq0bDIXLQO5O4caHMQ1v0pUFD9SmdSacm8qgfoP3m6NY3hMLcpQEWqedELm6cTHJ/CR6lMuhOtb4ks7k6APPlkdNlzYcaAqvZpXoktH8f1X4rt2Axffx/htOWeDLfykxg64nXLrgrg22AefXgrfT4YxfkfOFaOkItMtCGDojfPwqr83UPzNMrVUxDPK97yO4939+sAnp/4evHloO1xxLyG76+Tve9DydAWajukvTtfBMtU9F62NOlBlPk9HvVpAEfKUgKhxy4PDnMqx0SkPLOcTusuCmE7nz/PK/MqdHLBLhOyWFeXuHEtxKimJbpXP2vIUrfSKudbJB/Mpt1lpnPosoYT+afHJN1CQfr0s7+VwUFJQdfuqSE3q9nWjwqn/v9SpK6fhUXMZekC0cFVKT8A75MHQJxNqsX19FSrVXCpf4t2fjqguJtn1u//prCI1hQKsWmXO/sH8+bRDRKYQmsR4pJYmDcL/mZ4rXLtBz2RkGnfv6jnb12RgO1H347fRtMWJwjUx3dAi2YtLd6H1mPgCpyhm4bfrUG6e15XPM/WpH/5PA/r9Eu/d1HXxWEyTv1MLSOptRvWc55Ji1G+De00Q4x/GHFgcBdlV5BbTvMutAxY3vek/Rx5QXbYZnOMMVxq8S7h1Ks273Jcm1TG2cG3CaS312V+KlcmZ5XaU79nLGFcVnIRu39IKlNwnZybg+edUw5Xm5q5+QgfWzSs481tgsv+KeEsFw4Gy2bpCxzrRPaIiFe7v7E8ZNpkxUHFoG1yrxWzIh4/e0Utxn6Faz/iPL5POEU1/qWPLuP9B9TMjD5SI4NSzU59dgfF8PSofkq8UgKdrT6QbuqFtCBPyZexu7Nid2GoXYVsYxKhYX57fkF1wQ281o/nnN6Czegqjr4jHYuq8qBZQFupcoip+czjFuVHx2XvJ7EmQU3dL/Ln3JS653A+iQHxmg5/fiHQnhqeeQ8ul5DP1RsRYKq3TjKQqt+7eNUqbYnq46tCx1ZHQDbz05TZQMYTR67rLILbbN9Lda4Zh5srxzCO6hev3nhN1HiF4Dh510tZAyVM14t+ZeTq7oTJ1jRt1TRWzrjs7OyoPHcPeUrktIfjf68U7afSQTN8xm5gZMVD0+Ha0vLLZbPmK8D4L7CjV3d4h73m0X4yO5gt6u3HuV3pjCp0b4VJzUYGxbhyNWZ8sFj54moM0IlRrLzxQQw/W8IvPYdNAhzjkLAMzlVty7sZunIyW/S2PqFwvk4EqqXojEiyF1mnGZiq3/JyLUHVsDVeeqlDIUb7zN/SLcR14kW7fcBiG4BszwzBTWzarEWUyVDxnw88QxOBV3cVsczw6x6AjDzp/NqoGMhkbdmXX9WuUYe/fvo1GFaYBeE/9EM294TOls1t1jzmjBknNQR1s5QeyB8cO7oK7UMTnVwHRunxDhPcGFN2rV5u4OahnYox8ZraNV39dV2AigrgxllVHO6Wp/MmSNA+eojYvQxUOVCyD1lrKcpvn1AyM42TsAVW01E7Kc3TLYKDKzL0RYalHey91qcstL6ERx6xN0+o8bLgCNXy/qDwtl4qjKeeBikvvwasG8JjdvubwaoT8uHYhqzjF9qfEl1bO2JzY0ROuAQ2gZ6durcnlZbWJw6ASXDqK3l/KSLXDXbsfFeGQS4ezBq8fP4CKb4hXC/pwru1ltJ1PCNPwudRVq1BgzoYVF+gAD07fUD/nErlsJjAhKiGD6Ny3B0c/yG7fUS6YoxzTPnjewPRtETjOjeJQtJTNUG7znFqq/aErfUt8oMpsrfKwetfSHJQ1mxnKXX5ot2i1+jGYcB6272AnPLcdqFpGl87kPlBFa3DYp7sWZbdvlazBivnQ+Ec4k00mGDV4TF0rI4SDJnYyW33F67cljSxONHKkF6MqU93Y9Uxi7M3AELXpgzsgx1iEJodxdN9rOONNUZBf6YMIVhfiwbhLeargWCt/hjB5PY0vl6jtRy6b2fN9vHa4L2aE8RVMmb22xeuq9EyM8rXmBRq/D+jzy5Qb2R48v5hc2q2XGcutKwwzW9oDVdLpjdAtuaU1KGsuM5X7wfvFwfH2tHjXE41g8gvx496iJV5xjFqEQBWR+i9eHS5FT2Dbn8k4lX3uyV2U6SiqLYO6GiUkWobfM4Mmdjrr0yNV14qQLJUzsxnB0VO669f+kEO3eufg/otdcMv+U/FBOvnaCYzOVCm4ellfooNCbHiuKtLl6vxuBUrkAKbgOC6f1cuyF8TQb/ToZptrG1q2RDt2DVcjtn1Tl2ji6vmUd6qaWQEK59x3lFo5WjZlePA0e23koJ2la7Zyj+CyL5iyBa4rfVOYjOsyXErS6Y0wu3uX9PubaOZy3/hcHBTXFCB5yGW5PkW11CuOMRYlUHH1LLzqUhE77CqMxvH+bKNH17jx4ql+9MdNr6NGtDm3rVdDchDyf5y6hRsZWWyHa3Ma9aBI1296XH9qhpbxKHb/Q+I2iulHNfr3omV+8qxHn6d11aGrX//+9WeLYZMDmN4/meXdoeJNdp3A4E01nBfuPV2R7ehpjd5U4kRXmnH6sR+TqjZiR9kBc3tfUL+hdJmDNDyDqeO07khPwvlCfcMDWdOPO7+41MxR7pHDw3rwVWx3X32HunmA/8LSvc1lWtfXqpb77AOWlprZyq3ea/HbqoTR63VH5C0nZ/6MLEWLE6iifXT+qm5JSYFP3puzhmJbbUuaVpWK1qHZXTr+Yfj6lERDeP/XOmmNhzfPck1qVKTrNxP3JG+fnsIXpIoa6QftONg5BH9ApJRN/16eBx3uehHNp7K7XCiZD30HX0TnRT8Cd6L7DcEp+C524sWD0ZtKzCl4Br0/90Furiqf7S7ufql/RemZe3BKwiUz5ujHTK77y0dzl1sOvuqE596qaNnNW9M1L9lRr2lcKiMs/VZ4ornKbb7XCA+o1FPVOnlzkCVwi80M5Ozm+ET5bP43iU9hk7yRuBtTF/I3JFhuC8lbMqpKQf6GxEotd64sUguVaPlbltcZpmFlljt8zni2VvlytFLLnRpbqETCgtTclwCWe2VZqeXOFbZQiYiILMBAJSIisgADlYiIyAIMVCIiIgswUImIiCzAQCUiIrIAA5WIiMgCObsOVV7/REREtBhycf0tb+xAJPBC/5WF5aaFwC5fIiIiCzBQiYiILMBAJSIisgADlYiIyAIMVCIiIgswUImIiCzAQCUiIrIAA5WIiMgCDFQiIiILMFCJiIgswEAlIiKyAAOViIjIAgxUIiIiCzBQiYiILMBAJSIisgADlYiIyAIMVCIiIgswUImIiCzAQCUiIrIAA5WIiMgCDFQiIiILMFCJiIgswEAlIiKyAAOViIjIAgxUIiIiCzBQiYiILMBAJSIisgADlYiIyAIMVCIiIgswUImIiCzAQCUiIrIAA5WIiMgCDFQiIiIL/JHT6fxPc35B2e12c46IiCi3AoGAObdwchaoRPlMVvhy8YXLNyz3yrJSy50r7PIlIiKyAAOViIjIAgxUIiIiCzBQiYiILMBAJSIisgADlYiIyAIMVCIiIgswUImIiCzAQCUiIrIAA5XSt6kFPQMDGBjoQJ25iIiItJzderDx2AAqi8TM5BBefrkbk3pxHFfTcbSWFwJBL7ob2jBU34GBrQ7gtgedje0YMdebTeUPetC43lDz/gsNaO4Nqvk44ecVgt4+7GsbRNJaMjxecsOAH4PVzegzFydzo+5HjahYVwhjtbkoFMTEr86j+3+8A2/CExuu7di/exvcRXobEQrA/0Ev3ugaQd7fECztfTIz9/MtqNlUgoKbJ7HnSOw76kbNoRpsfLgA/p/swdFL5uIcyeaWbOWHetBUar6PJv+FavGZMx9kQT3n/cOoPpjN3s3cYpY76Xky+J7PVzblrjsygKp15gMlCM9bDWjP5LMa+Q7FuDmY1++3JeVOFN4POSx7LuSshXrmil/PFLlQ+YCejefCZqcIUyF4fRRDai5T28UBOfpRdWyogczw2RiuHTiwNf7gkBkXXH9eiFUIIXRHTmKRzUBx6S68+sM6OPVKmrMOra/u0mEa0uvDZodjSxOOHCw3V1reXKVuOAoN2JI+eS64Sx0oNGywmUvyWzk23j+OzupqVJtT51gQjq0D6Kg3V8lIOVq6B5KCKv9YU255kG4qnRIVs/DzdMIjKlVNedv7USc+oeLgH1PuwZsG3C/1oGWTuUoayp8swPhb0eeofsuD4LoqDBzJ1z4fa8qdqK4qoVKxTOQsUINnPfCJ/ACK4VJN1QSllXCpPA3A+252cWo8/xgc8mh8K6Bbe0Vu7FwvZ2bwlfzHgGvnAVRl/e6exxvfq0btC7XmVI3X3p0Q8Sqycp0LT+iVBAM19ZVq+0KiVvZarV4/vK798R1oTFnRoPw0gvaD8a2pkcMn4bktKnKi9p1+9UgH6cBAE9xrzEV5zaJyfy5ao3G9HOJ5e0W4wAFXVhWShdaH5oSWVN/BQfjF99pdlX4Yjhxujm/ZXWrHSVEhwbqKeQXUwrGm3HHE56QirsW7fOTuHGpwENf8KlFR/EhlUsvRvakE6j94uzWO4TG1KENFqHnSqVo3Ex+fwEeqT7kQrm+55UxqQR98U+Kn4cKOA1VZ1phEeN8yZ02+f53CXXM+wtgBt1NuXRDXBvvg00vh+8kwxmWrVlQ0Sipm3wLj8Ua8frxHHHzlAXgAPcdaULWtZYbzmnaU73kdx7v7I+sP9PfgzUPb4Yp9Gdn9nfLv69Bh/t2cLY/7ytH4o+Po6TdfR0z93W+i5TlXdJ/KLh6xPNx1ZJQ26XW7W9B4SJapShxK1W9E7Vc/R8+h8OFZVHqeO4A3u6Jl6e/qQGN5vv2XgCOY/MKczVBwrFPU/kUrTQTT0pN5ufsOp+javTQJ+XUsXLtUemtuYNqC92vkM1nqpWQ+5RYVyHpxTB4bXKKf9dnlcFBSUHX7qkhN6vZ1o8KpD45TV07Do+Yy9IBo4aqUnoB3yIOhTybUYvv6KlSquVS+xLs/HVFfYtn1u//prJupJgNFj29Hy/OPqiAJjA3hnP4F8LRDRKYQmsR4bA0Vorb3mZ4rXLtBz6QiAqjjYCWcheKZv9LdxavWulFX8yhWmatEOVH347fRtMWJwjU2syta7HmzK7pVBPEc2Z0+pwjeY02o/PNCGF+Ldnvb1hTDXduKY4cqdKgGRLmv+zFlnlMOBSbgF4/918VB9N/Gxc8p8QlRv0HgU7ncj/F/k/0MBioOHkNrbRmK/8tdTInfTYgnsdkdqGw6gpZ5v2dWKkfRvbKedjk5LGYkWmaN1Wg4nIszhwslm3IvBw+iYA3g987vHGD52kLg9jguxx0X8ln25S4/tBvuNX4MH75hLllechiowtnLGFdHzYRu39IKlNwnZybg+edUw5Xm5q5+QgfWzSs481tgsv8K1Flbw4GyLXJmBqJl0D2iIhXu7+zPLmjM1tfAQA+OHdwFtzEN7/mjePnwsBkSwn2GPjf4H1+qAI81/aVuuRv3P6h+JitC43fKRXtbCHhwotHsXm5sw9DvRHipdaKM5+tR+ZBcGoCna0+kO7qhbQgTqn/ZjR27Z2m5p83sxpaDscR2de8zt+uFBrRdNLuyS3dgd6mYudqH9leaMfrv8u+Au/96Ds3icfMbfRg81S7mR839chc3fi6Wi9+1n/KKz8Zu7HhcVramMPx/78O+v27G9/ftw4krcs/a4f52zZznyXOl7kiTqBp6cHJJh2PmrCp3uah8OcQ3ZvzDpbD/ZFd9FRw3B+c1CE32EDWJ74enNzeDseZvHuUWx8ndpQb8F7Ib0LgU5DZQMYTR6zpiYrt9I929ZhhmrhzPPKJbuH7vOR1iwXPwqJO2BkqeqtGtpBl4OruhMnWNaPE1mS2qTIR+j6DZCgzJ87JGIVz/5160/kVZWs81fSepgzjBZpSonRWC9+ftGA6ntBwNfeFaNLQVAztKddd3yHse7RejI/qC3m6c+5Veu9C5ES41Nw+Rbmy9XUORru8gvF3ncE116RTC+d+yf6XyzRtURSLkex8nIkOmgxgeGdflLioRe2exRLvF5VTxeSeqczRKdXEtQLlVsBgIjp2c3+jRhRSpOMupCQWXqrMaoSoHZIX33cCmaXRWz3PE7EKzpNziM2OO6p1XBSTP5ThQRaT+InwgDHf7hsMwBN+YGYaZ2iICRw7oCPngORs96A5e1V3MNsejcww68qDzZ6NqIJOxYVfmXb8fdmKf2QqsrRGts3fF695jwPGtvTgwW+vYtOoec0YNkkphU5FuneJ/Y+IDNROV9DcbVPebNCE+vIki52tWf11XYubjsfB2TYhap5qJET2vZqzO/pUevF+/FzbnruhBSE6Jlx4sij40x4x+PIndatui536FuINReFrq1/FaW24VMFtF23SsM7+7vi+1oyGm3F6XLlfcGIPImISYqTt+sFbfwehzVItw2Z1inbxiQbnrjohWrbwsahldIpNKzgMVl96DV7VkzG7fTRvNMPTj2oWs4hTbnyrRB1ebEzt6om9oz07dUpPLy2rn6Bi8dBS9v5SRaoe7dj8qwiGXMdE6+0knLqvzoiJUN5gfqT/oH1i1CgXmbFhxgY6G4PRc5xVECzi7XTSz8Hblueg518RJD2TJByOHG1B9wQ+jdHd0xGbCwUhPy6vLK/ty65Zu1Tp5XePSO48sg1FfMhRTUehtTiizmGZrvav9NAj/Gjd2x1ZI8lim5ZbXG1et82NwBfTe5D5QRWtw2Ke7IWW3b9WTOgxD4x/hTDZhYdTgMXWtjBDudo2dzBZc8fptc55rGznSi1GVqW7seiYx9ubpV+aBf3UhHoy7lEfU3NbKnyFMXp/h4xb4vdlyL0RRwtB640//OGFQ0hVMmb28xeuq9EwMNQBC+n1An2P+X9Pmc9vkmKWodK4H/XgK02qmWHy51EwMPVBFCgbMa5CzED6/bAtcQZs855o0dWZ5zfIC8cv9aaBAD1leOTItt2rBmq2WfO/ynIXu8Un+XmZGj5qdeQxF/km/3HXYpq6tdqAq3HJVk3mZmLwGVzzO7trt/LMIgSoi9V+8OlyKnsC2P5M7Ww5ESO6eTEdRbRn0aTwfzn0vPCgmZjrrU92+WCtCUg6OmdUIjp7SXb/2hxy61TsH185GbI+7DsWAq/ZFlKmQDMJ/xQzJq5f1JTriQ7jhuapId6vzuxUokYN6guO4fFYvS3L1Y0yo85EGHv12Y/Syl/sqsf9bZis8Ioih3+gRzjbXNrRsiXa3Gq5GbPum/uOJq+f13ar8AfEX0p/A9Xz4NhQGKv7SHOQ1m+AQvOpJbHB9uwWVamCZJPbBd7fhUfmFmWGg2ao1xTPs31X44z+N/mbwQ/MUwbqN2B9TFvUaz7XiwAvmw3zhKBBbFsR09nWIpSmjcutLJ4wc3hlpoegK6hQm51Uh0KNmg58vnZGv6Zc7/vRAdDIvEbupbxqxXM6rLkqg4upZeFWXqB12eYy8PY73L8rHM1jjxoun+tEfN72OGtHm3LZeH/ZD/o9Tt3AjI4vtcG1Oo0sl0vWbHvtDG7GrtSe6Xf09aH3OqcIi+JvzOBkplwcnz3r0eVpXHbr69fqvP1ss4igE//snZ2lpjaDv/zHPB3+jEq3d5msdb8Sj4hl1Gy5qsusEBm/KpXa493RFtq2nNXpjiRNdZsj99jw8ZigWP/u6uW4P9j5sM4N2NpPofnsQ6vJi0apvPG5ul/j71mcdulwXTqA7ZqCZ93d639qcO9ClynDAPM8iKlnqVIANzuf0Nh//K/Gbi6cxHFuW7uN488dv4niPeI1aFwoX5xOszhnFnTOU5HkkdS4wjwfWzJcV5TZP8/gvLZ0wld2Wia2o8K0T0x+1WoeOpHOlsttbt9TzcXS4NeVeORbpcDSJ81d1K0oKfPLenF8s22pb0rSqdBfcZnfp+IfvqPWSDeH9X+toMB7ePMs1qVGRrt80+D+5gomAOODbzO2SgRWYwGh/G/b94J24exYHP2jHwc4h0SiMri/XHe56Ec2nkltxsSZPteGNfxKhI4tyj3ydu5j+5Bze6L+RfBMJ+NB38EV0XvQjIK8JNfcXglPwXezEiwejN5ZQofijboxO6n2k1rsjWvtHL6d3btInaqAvdWLougx2cx+IFndwyoehTlGu3ugrSZ5/PI2RmNeyhYKqkiErHCd+NoKJcPnE7+7ekb+RZfkh+j6cgNptawpR/FAxCu8JYOLD0+ibqVW/0PzT6trgaBeWmLYWLslzgRmxsNzydoVxzxOZ8m/QluziTNze8K0T029d3cC0ur1i7PNUoVDe1CNPW+rWlHvlyNnN8WlhGLLFIG/0f8eLvhfakF3HOWVz0/DlgOVeWVZquXNlsTrMKEPlf9WB1thb+QnynGjrM+b/muMbZZgSES0itlCXiPB5C/W/1Jgjl1X3rBT04fQPXsM7Wd0UgyS2WFYWlpsWAluoS8SVDy7DOxlA6Gvh85TyXGcAE2OD6PxrhikR0WJjC5VIYItlZWG5aSGwhUpERGQBBioREZEFGKhEREQWYKASERFZgIFKRERkgZyN8pWjy4iIiBZDLkY387IZIoGXUawsLDctBHb5EhERWYCBSkREZAEGKhERkQUYqERERBZgoBIREVmAgUpERGQBBioREZEFGKhEREQWYKASERFZgIFKRERkgZzderDx2AAqi8TM5BBefrkbk3pxHFfTcbSWFwJBL7ob2jBU34GBrQ7gtgedje0YMdebTeUPetC43lDz/gsNaO4Nqvk44ecVgt4+7GsbRNJam1rQ85IbBvwYrG5Gn7k4mRt1P2pExbpCGKvNRaEgJn51Ht3/4x14E57YcG3H/t3b4C7S24hQAP4PevFG1whmvSFYzDbHCt2egv+j0zgy199n44EK7G2ogvvhEC7XzrYPlr7535KtDh0DFZh+qwHtl8xFM6g7MoCqe2M+05HPWthcnznrLGq5Y8jfVXzeiYbDqb7l8jWqEP30B+FJ4/VmM+9yq/esAMNzvk/laOlugvuLQVQfTFwz3X2X/j6eS/6X2/y7NeZDITg20+ci/+SshXrmil/PFLlQ+YCejefCZqcIUyF4fRRDai5T27Hx4ehhybGhBjLDZ2O4duDA1ujfZM4F158XYhVCCN2Rk1hkM1Bcuguv/rAOTr2S5qxD66u7dJiG9Pqw2eHY0oQjB8vNleamX0dMX4k/X1MIp/j7t39cN2dZM+YoQ9n6Ytht5mNKTVZ24g74s6mDa534jPsu61CRfyvCdOpCNaqr9TR404GqgQ6xZp6bT7kj5MFVBK34XWo6TAvFQTW8fzrHRDX2pR60bDJXybHyQz3qPUvrqLFpI0pEOPhFxT1Ouvsuo328sBa+3PK9NkPYfK+r3/IApU0YOJL33wYlZ4EaPOuBT+QHUAyXaqomKK2ES+VpAN53s4tT4/nH4JAH/1sB3VorcmPnejkzAxFI4q/g2nkAVVln6nm88b1q1L5Qa07VeO3dCRGvIuzWufCEXkkwUFNfqbYvdHMQr9Xq9cPr2h/fgcaUFY0EorX+dvi1avag+4qubdoeqsDuLWqWckUdHAZS9hzMpPxQhTiY+DGsatziACL+VtbAm3v176W+g53w3Hag4lD6laycmne5JR2kc4VF3RHxe/GZPxnTQhk5fFLsHwPuqtweZFWgiG1uKk3/YFFXJQJIbP/58Pub7r7LYh8vlFyWe1pWnGJbtJfacXIsCIhj6VKI1NydQw0O4ppfJSqKH6lMak25N5VA/Qdvt8YxLGqgmStCzZNOyDyd+PgEPlJ9yoVwfcstZ1IL+uCbEj8NF3YcqEqv5pVEhPctc9bk+9cp3DXnI4wdcDvl1gVxbbAPPr0Uvp8MY1y2akVFo6Qi0y0IYOiN8/Cqvxet4m+WqaUinlG+53Uc7+7XH2I59ffgzUPb4Yp7ifBBTdT2n65A0zH9xek6WKa64KK1Udli0s/TUa8WUITsnhU16QtmD8ysyrHRaYgAPa+7y+pdYs8GMf5hfJtNRAYu+4IwnBvFX+SreZQ7hl+1zAfFs6UyU6tW759FOcjK00+qlZziVFISvf1+EQrx25/uvstkHy+wnJS7D+0punZHPpMH6UIULVKPRCZyOCgpqLp9VaQmdfu6UeHU/1/q1JXTEI38zD0gWrgqpSfgHfJg6JMJtdi+vgqVai6VL/HuT0egM3UH9j+dXaRGGSh6fDtann9UBVFgbAjn9C+Apx0iMoXQJMYvqSUmcTD5TM8Vrt2gZzIyjbtmetu+JgPbibofv42mLU4UrrFFuofD3dCtx1qQKrcLv12HcvO8rnyeqU/98H8a0O+XeO+mrovHYpr8nVpAUm+zCIMMznXWb4N7TaoAncGaAjxozuYVS8rdh2ZxcI1tmSfZVCQOo+KY8Fl+HGRHDjegOs2xHFK4Ve6NLWO6+y7TfbyAclruJS63o3zPXsa4quAkdPuWVqDkPjkzAc8/pxquNDd39RM6sG5ewZnfApP9V8RbKhgOlM3WFTrWie4RFalwf2d/yrCZkzxRb7b0jh3cBbcxDe/5o3j58LCIItN9hmo94z++VAEea/pLHVvG/VkcPh8oEcGpZ6c+uwLj+XpUPiRfKQBP155IV3RD2xAm5MvY3dixO7HVLsK2MIhRsb48byEHAAy91Yzmn98wW9pTGH1FPBZT50W1gLJQ53KIz+dwdCBGr1d8Rg2UPJncDn3w/vlW7vJHUrnT5SgQeyeI6TxooGVu5lb58mZ1ucvRskl8fm6P43Kmn59FkNtAxRBGr+uIie32jXT3mmGYuXI884hu4fq953SIBc/Bo07aigPWUzXi35l5OruhMnWNG3VNFbOum1Lo9wjGDBSCUQjX/7kXrX9RltZzTd9J6iBOg9kafmWz2fL14aOzwI5S3e0d8p5H+8XoaL6gtxvnfqX3faFzI1xqLiow1o2jMeuTxUSlq0J2g8UN0ujD+bEgjNKmuK50ec6q4t5IVWxpS1luC/inxffcQMHin2JMLdPeiOXC4nLXHZEjfoPw9KbfQl5MOQ5UEam/GNeBF+n2DYdhCL4xMwwztWWzGlEmQ8VzNvwMQQxe1V3MNsejcww68qDzZ6NqIJOxYVfmXb8fdmJfZKBQA9reFa97jwHHt/biQBoDhVbdY86oQVJzEKHfFNsaLhTx+VVAtC7fwDvBDSi6V682cXNQz8TQ3WTC6q/rCkxEEDfGsupopzSVP1kSP0jDJLvT5Hkpx1Z9jlpOu3ESJ8Mn2Ze4mco9b3nees26Vb7EWVduPb6jat38L5HKpZwHKi69B68axGN2+5rDqxHy49qF7Grl258SX1o5Y3NiR0/0wNSzU7fW5PKy2sRhUAkuHUXvL2Wk2uGu3Y+KcMhlLAjvTzpxWZ0XFaG6wezO+4P+gVWrUGDOhhUX6AAPTt9QP+cSuWwmMCEqIYPo3LcHRz9YJi2aZakO20rF4T9pcI2mzlHJwRrmJLvcldvTSO8Tka9mL/ecVCt0CVqoVnm+s6rcakSwHt3dWb10wlTKfaCK1uCwT3ctym7fKlmDFfOh8Y9wJptvj1GDx9S1MkI4aGIns9VXvH5b0sjiRCNHejGqMtWNXc8kxt48/WpSnztdXYgH4y7lER+ctfJnCJPX0zjsiA9Z5LKZPd/Ha4f7MBIZZXwFU2avbfG6Kj0To3ytvs4Xvw/o88uUG2o0b+wlI3Mxz0NlG0T5IuNyJ7gkvzOpzzGrz3KenldbsFZ5nrOi3OoSHfNSskwGQuWLRQhUEan/4tXhUvQEtv2ZjFPZ557cRZmOotoyqKtRQj6c+54ZNLHTWZ8eqbpWhGSpnJnNCI6e0l2/9occutU7B9fORmyPuxbFgKv2RZSpkAzCf8X8SFy9rC/RQSE2PFcV6XJ1frcCJfIOS0FxcDirl2UviKHf6NHNNtc2tGyJduwarkZs+6bezomr51PeqWpmBSicc99Rauagipve9AdpqPNQ8wiivJBFuZP0wXtTfHaTLh/K5wrHPFvlS5YF5RYt3N3yOUSYRnpplphFCVRcPQuv6hK1wy6P+aKm+f5so0fXuPHiqX70x02vo0a0ObetV0NyEPJ/nLqFGxlZbIdrcxpX9UW6ftNjf2gjdrX2RLervwetzzlVGAd/cx4nI+Xy4ORZjz5P66pDV79e//Vni2ETke9//2SWd4eKN9l1AoM31XBeuPd0RbarpzV6U4kTXWnG6cd+TKraiB1lB8ztfUH9htJlDtLwDKaOlfJDHfF3/JHdXaKG7r+wxC8xmKPc6eob9CAovv+7Y25yoQeq5GeFI/kGFiuDFeVWLdwlvu8WJ1BF++j8Vd2SkgKfvDdnrca22pY0rSrdBbfZXTr+4TtqvWRDeP/XOmmNhzfPck1qVKTrNw3+T65gIiBSx2ZulwytwARG+9uw7wfvxLUEgx+042DnEPwx68t1h7teRPOp7C4XSuZD38EX0XnRj8Cd6H5DcAq+i5148WD0phJzCp5B7899kJuLe2TZ7uLul/pXlJ65B2kUwv1S9Lz/wFaoi99nvT5zCbBscMqldjSEbz9n7iN1P+C8vKaRl8rMv9zRm8gkTUvg9oM5uzk+UT6b/03iU9ikb3ov79ObrwHJcltI9S4U5vWo1JVa7lxZpBYq0fKXdD/TFWJlljt8znilXSqzUsudGluoRMKC1NyXAJZ7ZVmp5c4VtlCJiIgswEAlIiKyAAOViIjIAgxUIiIiCzBQiYiILMBAJSIisgADlYiIyAIMVCIiIgvk7MYO8oJiIiKixZCLG1rwTklEAu+cs7Kw3LQQ2OVLRERkAQYqERGRBRioREREFmCgEhERWYCBSkREZAEGKhERkQUYqERERBZgoBIREVmAgUpERGQBBioREZEFGKhEREQWYKASERFZgIFKRERkAQYqERGRBRioREREFmCgEhERWYCBSkREZAEGKhERkQUYqERERBZgoBIREVmAgUpERGQBBioREZEFGKhEREQWYKASERFZgIFKRERkAQYqERGRBRioREREFmCgEhERWYCBSkREZAEGKhERkQUYqERERBZgoBIREVmAgUpERGSBP3I6nf9pzi8ou91uzhEREeVWIBAw5xZOzgKVKJ/JCl8uvnD5huVeWVZquXOFXb5EREQWYKASERFZgIFKRERkAQYqERGRBRioREREFmCgEhERWYCBSkREZAEGKhERkQUYqERERBZgoFJG6o4MYGBgAD2Hys0lREQk5ezWg43HBlBZJGYmh/Dyy92Y1IvjuJqOo7W8EAh60d3QhqH6DgxsdQC3PehsbMeIud5sKn/Qg8b1hpr3X2hAc29QzccJP68Q9PZhX9sgktba1IKel9ww4MdgdTP6zMXpcItytMhypPrb+8rReLAem9fZYbtHPP4qiIkr59H9P96BN8Wm5hsZqFXrxH4b60TD4XTekXhFT+/F7m+7UXLnMmpfid+r7udbULOpBAU3T2LPkcyfez6suCVb+aEeNJWKT8yFavG5MxdmrA4dA1VwZPCZn4/FK7dZTvNRVBCetxrQfsl8uECsKLf+LmS7veVo6W6Ce435UMj2O5WJRSl35Fg6k9y857mQsxbqmSt+PVPkQuUDejaeC5udMoTE7r0+iiE1l6nt2Phw9G1zbKiBzPDZGK4dOLB15rc6Y85GvFCmy5HEqEDLj5tQ+ZAIU4QQuhMC7jFQXLoLr/6gbs5tXQ4cj5fBVWRWJhK4St1wFBqwLcl+kzpsE6EyX+WHKlKETD6bX7llCFdXx05L5MAqQqJCVCyzIgNmoAklvs5oud/yYMr8dV7LptyX2tEQ9x6Hp054bovf3xxeFmEq5ezQFTzrgU/kB1AMl2qqJiithEvlUADed7OLU+P5x+CwiZlbAfEsQpEbO9fLmRl8Jf8x4Np5AFWWZKoTdXs2o1huQwruv9gFt/xPdwIenGisRe0LtWh426Nax7aHKrB7i1qNliBrgtCaUM6lrMu9qQgzVDuXhLqq2VpcsxEtc9FaQ2JrVIRO8wK3Tq2QfblTqN8mWuiidTqYSf9ffstdWyA4iGt+lagofqQyqTXm3lQC9R+83RrH8JhalKEi1DzpFC0/YOLjE/hI9SkXwvUt8eGdSdAHn6wWGi7sOFA17w+Ks343KtfZMOX1JnchoxzPPKL/Czv/yN9j2Fwh+EEfRj+Tc4ZoUc91XtKJqr96E11n9HnMgTNd6PhuGRpnOK9puLbjwN92oT+8vpj6uzrQWB77X+nJrjf9u456c5EpfL504EiduWQmolLy3AG82dUfeZ2BM/3o+nEjyu8zVzFfR3YNKuuqzHU7UKdq7LorWTJKm/TvulvEXjPJrvIfHUdPpOw9ePPQdrjyIX/E9u8uBTwXdOUoW3VHquC4OYjBm+aCfDfvcgcxbXZcLSn1HeKz6sfghcw3XldA/BheAuGZZB7lTlaOlk2iKraMWqdSDjvXgqrbV0VqUrevGxVOfZCfunIaHjWXoQdEC1el9AS8Qx4MfTKhFtvXV6FSzaXyJd796YjqapFdv/ufzv7obDzdgoNbHbBNjaD7g7vm0hgPPIpidb5kCpNXYg8/k7g2oR8b9z+ofqZmYPvrP0Tdk8Wwy+7SOyGEQiKEn23C5hQNfuPpAzj2N7tQ9o1o93JI7Hyb3YHKprdFeDrNNefLQMXBY2itLUOxXVRn5OvISbyq/aFKNL0lAlO9lCj3dT8mArpSheAU/OKx//okpgKTGBfzU+ZuCQUmIr9TPQ1OEcbHmlD554Uw/l/5uwmx3Owq/2GdqGYsJnFgqBe1dnlgmM9xRh2sllJtfZ7ldhSId3ApEp9F8T0Pjp3PaFyFVo6NTlHqm94s/naxzafcKSzD1qmU27NVZy9jXB00E7p9SytQoloyE/D8c6rhSnNzVz8hnlW4eQVnfitiqv+KqAcKhgNls3WljnWie0RFKtzf2Y+KbL7l4oDfuscNe0jU3jo7U1cIHHbzACJq5VfVTIQ/YCbJvUXRFlmiLQewzSnb3yH4L7yG6hd0l/GernHcTepidmPv82UqeEM3h9Bmdi/X1u5B91X5WjY4nqnHdiuOaKV7setxWRkS2/VuGxrM7ard1w2vPD9iEwFev12UfQidrzTj3L+alY1/H0WzeNz8SieGrvahXcyP/rv+1d1/Pad/90YfvOIvt9dXwrFa7DlvH/bs+b743fex5/8awoSsIKyrwK5F7CovP7RbHBjE+35wPgeG8MHq5JKprVtTbvGde8nscUjskchTqhfhtgcns2phPogCUakOfn5D7L+eaLnFlO+j5udX7kTLs3Uq5Xj4xxBGr+vwiO32jXT3mmGYuZjuVO853f0UPAePOmlroOSpGjPMUvN0dkNl6ho36poqZl03iRxodFB82GwiUN47iT6fuTwDk3fMQJ1F2TeL9XZ9dhmdvdEXCVw8isufmg/CNj0Dl6qgTOHy34tgizx9AEN/N6wrGiLoHntWLZyX8s0u/d7J7fpJTFf3rSEcvaSbLjbHY3hGzWXB2IEnVEViClf+aVC3WCVfN66oupdoqX6zTC3KOdGq1KNbMxsFHk+O9rTyYJUDVpS7tzlhgMog/OL71yRPAZir5BsZgqoXoXeeo6+du7EbJ6Nlf0tUweVpjjlPrSwOy8odtkxbp1KOA1VE6i/G9UE30u0bDsMQfGNmGGZqy2aUyO7UkA+es+FnCGLwqu5itjkenWPQkQedPxtVB2tjw670u34NFxp/KGrqYvMDonXRFhN0mTDuMZuYf5BdpamVFOoKQ/B34wmXHAUR+oM5GxbuTrs9gWuJFZTgDUzLlqNopdoyqjmk9uD9+kmCE9eSLoUK+qf1+2mz4Y/Vkiw8Fh68UojyH8S0ZsQUPudq+1pSEz0Hwq3KztkvFTHPD8dutzpvbP460tLLwSUy1rCm3Mn60CxDFQ5U5GNrTZ0vlpWIOUYhi8pGfJnFFG55mwOxDIzHV54utePkmPimrBOV803msnxhRbkT1LlE6/T2OC7P9nxLVM4DFZfeg/eWnDG7fTdtNMPQj2sXsopTbH+qRAeIzYkdPdE3tGenHqQkl5fVpjjRGOvSUfT+UkaqHe7a/ahIcVlHkseqsHGdPpjbS/dGDyCRa64cqFLLxIEkFA5LA0bCZUMb/muBnglMYVTPzeyrFOdnV4QgptR51eRp/N8i7dYcMVuVNwfnvm4w5SUDZstOtfREde6t+bRwc8mics9IV/YM58aUB+LFIyoR5sjcOa+zTWp5iylcWbo0qcZrBH2XkypPI5/p004F8x8qbiGLyh2nDi5REfaLz8ccn6AlKfeBKlqDwz59AJTdvlVP6jAMjX+EM9nkqVGDx9S1MkJ4QEzspC6NEa+1flvSyOJEI0d6Maoy1Y1dz5ghN5vQ7xFM9Zp3zN8L4WV3P7yBKZWoBSiO66EswqPFOn6nJmYejvXlXTOO73/QDOswNwr/izkb9qnZMlxTjEcTr/k19HkcsWUIqopNuMUq6h33xD5zeteDTkzrN80ofjRp/xrhlvKdIKbVkiz4A7oswsQ/y3OuyVP7Ka+5Ro6oLivxMzJSOb4i5dhqVqLUyjMxzyOJv4g7jygm1fJW3Z95dm7NknKn4YvJvDrYhi8Niow+D0+ipR55/9I6/xv9rqWWX6OerSt3jHqXGuXsTfsGIEvLIgSqiNR/8aqaGoqewLY/k1/FIMY/HJRLMlZUWwY9VseHc98zB8TETmd9umW4VoSkaA3MbgRHT+muX/tDDnWQmNWHndiX+Hpy6gpfRuDHkFr2Gs7gPXysLhuywfnU3sjlHsbTdShbK+cm4Hln5mB4z6dHLctuoQNbdPev/FC7vlsDd+TSFNMHV+BXG1CIjfsbYy4tsaOyaaP6kiA4jtELcsaPwO/lT+BPHqmJjJg1nt6PJ75hPpjF8Jhfl3XtRjR91xXdZ/dVYn+5eiVRIx9F0rv7XwpFVSC1VaIiEHme356HxzxX+mhVbFmE+8qx9wdNuW/NpKqNy+kt/b7rmxXM1RobQXtjwt+bk7psRt4pSczP2RLMJUvKPQuzt0oO2sknI4cbksssJ3X5SBCet8R8Wl32I7jsC6ZsgZevlZ3BU5i8pB/nA+vKHaW7e6dF1WJ5WpRAxdWz8KprL+2wy2y4PY73L8rHMxC19RdP9aM/bnodNaJNtG29GtuLkP/j1C3cyMhiO1yb0zj0Rrp+rRbEO71DUJm6tgKt3bocPS/q2n3gw3PonmVAVrD3vG49yxDd02Xugx60PluAYFKtdwhHez2qYmBbVxl5rf7+LjRukDs8AE/vUfNuVJM4f1WHte0blXi9P7xdJbCl2p+JLh5F35h6JTiebUWP2i4xHW+M3MSi7++iN+q4cnNSV3DuK0OLWvf1SIvG+zu9323OHehSz3FAHHgmcebn8WXpOtaBjmNiHxxvQsW6r6u/oaWl7khPwvlC3b1oLKXBWVkYOTysB1/FDkCyZHDbUqC7e1N1eS8XixOoMQdxKfDJe3PuYNtqW9K0qnQX3Kp1FxIt3HfUesmG8P6vdTIYD2+e5ZrUqEjXr9V8fWh747RocYntuUeXQV6P6f2nNrz8d3PtAdF6fqUbw5+aoSP3wZ0JDHcdxOUv1KI4wQ/a8XKbfi15Taha/2shBD4dxem2l9H+QTQtJ7va0P3hBIKye9wm1rsnCN8/HcVl8zKW2QUxfPhltPV7MHFbRKX53tj+EMDEh6fR9nJ75CYWUvBnvTj/m4DuipfrfXUXX+pfwfOPpzEi942gniMUVEGqynJkCD55oarYb/YiBxxrDdy95cPQT08s2y/n8pbY1V2FwrHOjFs8S48cfNUJz70x3eZbC1VrL/37IC9R5qCsqc+W7zucs5vj00KRA0X0Tban/uVl7PvH7K7jXemsuGn4UsRyrywrtdy5skgtVMpcHVr/dm/MrfwkOypfrdcDReZxUwwiIpo/tlCXjLrIf3clRw0rqntWzoQwdelt7HuLnZ/ZYotlZWG5aSGwhbpkfITLH/oxdTukzy/KSQRpcMqH4Z+8gWaGKRHRomILlUhgi2VlYblpIbCFSkREZAEGKhERkQUYqERERBZgoBIREVmAgUpERGSBnI3ylaPLiIiIFkMuRjfzshkigZdRrCwsNy0EdvkSERFZgIFKRERkAQYqERGRBRioREREFmCgEhERWYCBSkREZAEGKhERkQUYqERERBZgoBIREVmAgUpERGSBnN16sPHYACqLxMzkEF5+uRuTenEcV9NxtJYXAkEvuhvaMFTfgYGtDuC2B52N7Rgx15tN5Q960LjeUPP+Cw1o7g2q+Tjh5xWC3j7saxtE0lqbWtDzkhsG/BisbkafuTgdblGOFlmOVH97XzkaD9Zj8zo7bPeIx18FMXHlPLr/xzvwptjUqHK0dDfBvcZ8GPZVCIFJD9796Qm8M/sTZMX9fAtqNpWg4OZJ7DmSzjuwNM3/lmx16BiowPRbDWi/ZC6aQd2RAVTdm/ozLX9X8XknGg4n/CbyeYxxcxDVBzP5ZCbL+3InCu+HeZZ93uVW21GA4TmPDeb39otU2zvLvos5RsXJ4FiYSt6XOyzp8x6EJ43P2GLLWQv1zBW/nilyofIBPRvPhc1OGUJi110fxZCay9R2bHw4+hY4NtRAZvhsDNcOHNgad5iaH2cjXijT5UhiVKDlx02ofEiEKUII3QkB9xgoLt2FV39QN+e2RoT034buiPl7bLB/owy7/uYYDmzSv7aSq9QNR6EBG/syZiYPfgNVSHH4S6EOrnXiM+67nHBQlAcZETjid6mUP1mA8beqUV1tTm95EFxXhYEjdeYaiyAH5U5UV5VQqVgE5Yd6MJBYuZnJpo0oEZVgv6i4x0lr38kKecx7Lqd5hOl85arc+nVK4j7vnWNT5m/zW84Ok8GzHvhEfgDFcKmmaoLSSrhUDgXgfTe7ODWefwwOm5i5FRDPIhS5sXO9nJnBV/IfA66dB1BlybfUibo9m1EstyEF91/sglv+pzsBD0401qL2hVo0vC0OjGKR7aEK7N6iVpuT/z39t7UvVKOhbQh+uV/vsaNse2P6oUzzpw4OA6lbEjMoP1QhDiZ+DEdaYjpQ5jrIjBxujq+dX2rHyTHxyVknKmkLUJGaVQ7LHUe0WirSDN6FoA70YpubStM/WKgKgGhVnu81F6S578rXzlApXwS5LLdcr6kUSa3RpM9/nspduyM4iGvqyC8i9ZHKpAO/e1MJ1H/wdmscw2NqUYaKUPOkU7T8gImPT+Aj1adcCNe33HImtaAPPlnxMVzYcaBq3jVfZ/1uVK6zYcrrTe5CRjmeeUT/F3b+kb/HsLlC8IM+jH4m5wzRoi5XyzIR9Haj8xdm7a2oBJv1nCjSdhz42y70n5EHLT31d3WgsTz+v9GTXW3ydz3igFfR9CZ65PpdB1Amu1zE8nDLwSht0s/T3SJKQlFmK+KC2QMzq3JsdBoIjp1P6i7zX5A18UHxbOkb+Wwxa+25Lnc5WurFd3lsEJ7b5qLFILtcVYspndMrulXuF5Wf+FZlmvvu9jRumLOLLiflFu/xJhG4N4eXRHimksOOvKDq9lWRmtTt60aFUx/op66chkfNZegB0cJVKT0B75AHQ59MqMX29VWoVHOpfIl3fzoCnak7sP/p7CPVeLoFB0XtyzY1gu4P7ppLYzzwKIrV+c8pTF6J/VBO4tqEfmzc/6D6manJO/EfcuPpAzj2N7tQ9o1o13JI7Hib3YHKprfRUe8014zxp1WoKy+GIc/rfs0GW2AS49f9mDKfOhSYgF889l+f1K1/AnqbRRhkcH69fhvca4IY/zD2MNOHZnGQaQ7X5DOgWjG3x3E51wefRSh3+aHd4jlkC3fxImbkcENGXa7hVrk3toxp7rsH77eky8wSOSv3TN3ES0huz4ydvYxxdYBO6PYtrUDJfXJmAp5/TjVcaW7u6ifEswo3r+DMb0XI9F/RtV7DgbLZulLHOtE9oiIV7u/sR0U2n2NnHVr3uGEPiRpYZ2fqCoHDbraAg5i+qmYi/AEzte4tyqr1V/kNs3tI1Wjd2Pt8GewiGEM3h9Bmdi3X1u5B91X5OjY4nqnH9oRyGkV/guAvu7FH1iDll+dqH9pfacbov+vf3/3Xc2gWj5vf6INXL6IM1bksrH2Hu8Z60z/QLZZ5l3tTC3aXGqI1m0GIL7qZW+VpW+NGk9m7pHuRlkLf0DzK7SgQx0hxfPTLAU3Rcg8M9OT+tEaWcjzUZAij13V4xHb7Rrp7zTDMXEx3qvec7m4NnoNHnbQ1UPJUjRlmqXk6u6EyVXyA65oqZl03iRxodLAKDlsI/vdOos9nLs9AYgszbfc5ULGnAzXmqOapq+9hZNMzcKnKyRQu/313zMjhAIb+blhXMmwOPPasWhh1y4PuI0NsfS4U8/zffGrf4e55NW2aRmd1/o96nH+569BhjurNphW/aFK2ytPXd1B2hcdMF/z6tMtiDkJLxzzLLZXU7xYt2mjZO8dERrw0gI56c4U8luNAFZH6i3EdeJFu33AYhuAbM8MwU1s2q64ChHzwnA0/QxCDV3UXs83x6ByDjjzo/NmoChNjw670u34NFxp/uFsNNAqMnURbbxZpKhj3mKOY/hDSXeJzcGw1D6r/0IG9WxyqAhC6PojOTtE2VrU84fYEriVWToI3MK3OP9lgSyhi0P9Rdl3tlJbyJ0viB2lkIe4gK55nt/wM5Pk57fmWu+6IqKzK83fzvDwo1yztjZBkl6k897gYg9AyMJ9y64FY4sDkOxn39yOHT6rz5g5ROcv3NnrOAxWX3oP3lpwxu33NfnOE/Lh2IbuW2vanxJdWztic2NFjho2YenbqQUpyeVlt4jCoBJeOoveXMlLtcNfuR4U8lziXx6qwcZ0OQ3vpXjWIR712ZGi5A1VqWQfq5KUuapkBI+GyoQ3/tUDPBKYwqudmF7lsJoipT70Y/kkb9rzSh+zinBZeHbaVGikuGZmHS+1okIN51rixO2+7AudXbjm6tGqdH4OLeKlIVizojUjJPy2aCQZKnszT93ue5daD7FK1bkcw+YX4saYA2Y0yyZ3cB6poBw37dMei7PatkjVYMR8a/whnsslTowaPqWtlBBUyCZO6NEa81vptc15SMnKkF6MqU93Y9YwZcrMJ/R7BVK8prw81hZfd/fAGplSiFqC4TP3KVIRHi3X8Tk2k10aMXjbTgH1/3YYT78aMKv5UfumENcV4NPF6X+NBFKiBUSEEVaWGcqLelXDJiFV0j0O2g9kW3LzKrcM4WikNT+bNTeQ1uOJxPnYDWtEbMZupz/KzejHvcqsKwyzyadTzDBYhUEWk/otXjaxF0RPY9mfySyNrJYNyScaKasvglHka8uHc98JBEzOd9emW4VoRkqVyZjYjOHpKd/3aH9JdqbP6sBP7El9PTl362lLxCcGQWvYazuA9fKwuG7LB+dReuMwnN56uQ9laOTcBzzsWDPf54Ar86sULsXF/Y+R1ZMu7smmjODwJwXGMXlAL07ZKBPSc+4NSCF8K4F2AATW6ghT8PB8PM/Mttx4FHOnijkyd+rIZeack8Tj/zqsuQG+ESQWWOLJMz3G1zeKwoNyXLmP8dqoWeDmK7hU/vpjM+56KRQlUXD0Lr7r20g67PH16exzvX5SPZ7DGjRdP9aM/bnodNaJ1t229GtuLkP/j1C3cyMhiO1yb0+gqiXT9Wi2Id3rNmzCsrUBrty5Hz4u6ezjw4Tl0ZzUgK9EQjvZ6VKXAtq4y8jr9/V1o3CB3dgCe3qNp34nK+zu9L2zOHeiSz3P8QN6fx8gr5iANz+B84rQOHUnnSuWNEfT5xZOWt3wtYEm5l57kG1hkI8X7rUZ1i8Aaiz+/mC+sKfeIKJsefBXb81B3RPZK+DG4BM6jL06gYhLnr+rrRKXAJ+/NWfOwrbYlTatKd8GtWnch0cJ9R62XbAjv/1onrfHw5lmuSY2KdP1azdeHtjdOwzMptuceXQYEp+D9pza8/HfWHRSDH7Tj5Tb9OiE5AEnur6+FEPh0FKfbXkb7B6lqHql5/vE0RuT2Cup5QkGOBM6ANYNTbmAa8ZdQyDsMFY51Luqt6GZj+aCcJcGCS2XCEi6ZGdhaCM9b1XPf63hRWFhuOfjqLQ8KwwMvxaTu/5zJdc+LKGc3xyfKZ/O/SXwKm/QNvqcu5GPXpMZyW0jeXk8FX/5ezrRSy50ri9RCJVr+ku5nukKszHIv/dvmZWelljs1tlCJhAWpuS8BLPfKslLLnStsoRIREVmAgUpERGQBBioREZEFGKhEREQWYKASERFZgIFKRERkAQYqERGRBXJ2Haq8/omIiGgx5OL6W97YgUjghf4rC8tNC4FdvkRERBZgoBIREVmAgUpERGQBBioREZEFGKhEREQWYKASERFZgIFKRERkAQYqERGRBRioREREFmCgEhERWYCBSkREZAEGKhERkQUYqERERBZgoBIREVmAgUpERGQBBioREZEFGKhEREQWYKASERFZgIFKRERkAQYqERGRBRioREREFmCgEhERWYCBSkREZAEGKhERkQUYqERERBZgoBIREVmAgUpERGQBBioREZEFGKhEREQWYKASERFZgIFKRERkAQYqERGRBRioREREFvgjp9P5n+b8grLb7eYcERFRbgUCAXNu4eQsUInymazw5eILl29Y7pVlpZY7V9jlS0REZAEGKhERkQUYqERERBZgoBIREVmAgUpERGQBBioREZEFGKhEREQWYKASERFZgIFKRERkAQYqWaruyAAGultQbj4mIlopcnbrwcZjA6gsEjOTQ3j55W5M6sVxXE3H0VpeCAS96G5ow1B9Bwa2OoDbHnQ2tmPEXG82lT/oQeN6Q837LzSguTeo5uOEn1cIevuwr20QSWttakHPS24Y8GOwuhl95uIZGS5s/8u92Flq4NpbDWi/ZC4XDNd27N+9De4ivV0IBeD/oBdvdI0g/iZgdpTveRX1Tztgt+klwUkPzp/8e7zjTVGOGZQf6kGT2I4kNwdRfXDOksyLDNSqe9N/v+KVo6W7CSW+TjQcTvhr9Z4hvfciC1bcki283/0XqsXnzlyYIfUc9w8v+PsUtpjlTvqcZvA9ny8ryq0+6+uC8CR832cVOa7EyMH3Moy3HlxYOWuhnrni1zNFLlQ+oGfjubDZKcJUCF4fxZCay9R2bHw4+lF1bKiBzPDZGK4dOLA1RfikyyhCxZ7X0fUPrdhVWggzB6OcdWh9dZcO01AIoTshwGaHY0sTjhyMbccZqDh0BE1bdJjK9UJfyad3Y9errahLuc8SyC/rwIA+IFdXJ0yD8K9zoc5cNT89iII15myC8rX6s5G/6rAtVSUmbbIyId67eT3HYsiu3DKMmkqnRAUp/PnshAduNA105Pln1CS+axXrzPkMlD9ZgPG3Yr6Xb3kQXFeFgSNLotQ0h5wFavCsBz6RJUAxXKqpmqC0Ei51zAzA+252cWo8/xgcMtFuBXTLT4TRzvVyZgYisGSQuXYeQFVWx7E6dPQcw94tTthXm4viGKipr1TbFBK10Ndqa1H7Qi1ee3cCclfYH9+BxnBQlu4VgSz/R54APG83qPVqG0/Ac1sssjlQ0VCpVpuRWfOdEq2E1LXdPjQvUOuOZGurArrPI1M6SAcGmuCeoTKRz7Iu9+eiNRr3eRxBe68IF/FsrnpzUR6rq0poZaZp5HBzfGv2UjtOjgWBdRVo2WQuoyUrd+dQg4O45leJiuJHKpNaju5NJVD/wdutcQyPqUUZKkLNk07VQpz4+AQ+Un3KhXB9yy1nUgv64JsSPw0XdhyoyuoLgq8CmBgbRGeXPBgkMHbA7ZRbFMS1wT749FL4fjKM8TtyrhglFfpVyze7dPlvXsbff2A+U3AYfb+UGyieat2GWc5LioNyvfiCi9DOuKtRdqWKVm3s1JF4QFPr9KT4wosKhfybdGrXc7yO7P4bGKhSB2ejtMlcR7ZW9GvolpsDVebf9hyK3RvmdkSmVNu6gERlZncp4LmQ4jOQpuBYp26lyQrUUjGPcvcdTtG1e2kS8tNeuDbPz8CLz3LVOj8GL5i9bvM08pn+jtPSl8NBSUHV7asiNanb140Kp/7/UqeunIZHzWXoAdHCVSk9Ae+QB0OfTKjF9vVVmLlt9yXe/emI+hLLrt/9T2caqaLVV7MH3z/chxEVkAmedojIFEKTGI+tlWIQ/s/0XOHaDeLfIjxarF97aiL+4DT56wn9eE0BHlRLUqjfJlo3QXhEaGdCDSDaWghPbBeUOEg4tiYG1vyk8zojhxvEcrFfxLwOF7mebMHIlnU1OmUtXp3P1n8fOcequrmrUBj5G7mu+ES9lKJisCDClZlhtGd1fBUts8aY8iwZ8y33UiUqb1sd4jN63rLeHnU64/Y4LscdI2gpyu0o37OXMa7SIaHbt7QCJffJmQl4/jnVcKW5uauf0OF18wrO/FYEUf8VdXCG4UDZFjkzA3Eg7h5RkQr3d/bDbDBa4z5Dn1P9jy9VaMea/lK31o37ZUw6YP+6eohgwKtnwvwBM2ALUTRDq0ufX5zCZCZfSFXL1gO34rqgeptVeBmlu61p5S3o60Rb5rGBNHL4pGrpOVwLf16q/NBuUZkRQZ+jQSX5YiHKrbuPgxj/MH8rF3VHquC47cFJqypA4vvRJFv5vbkZjEULK7eBiiGMXtfxENvtG+nuNcMwc+V45hHdwvV7z+kACp6DR520NVDyVM2s3bmezm6oTF3jRl1TRXZdvxmavnPXnJvDb4NxLdZUHrxfbPHtadwwH0ckdbNGu0LrXHr09PkUXcQjH46L1zRQkN1JwTgL+jqbNqJkjXzPEw/qI7jsE3ttoQdhqYOhHN26ws5NL0S5zecMjp1Mf8RsjsnTEmpU7zzDT/XYhL+Tm6bRWZ3BKGHKazkOVBGpv5AHUSHS7RsOwxB8Y2YYZmrLZnVgRcgHz9nwMwQxeFV3Mdscj84x6MiDzp+NqoFMxoZdWXT9Zm7VPeaMGhg1C8NmjhwOyUHCM0vVJSxageFuUNnFGlWOonvFjy8mUx8YLDuXtcCv4yhQlR/ZdRxfccjFaNlw11/n7OetVZd04vYtkZGsKVlfbn1KQD9n3nZ9q/PFshIxR/glVWLFlHBddt9B8zspJ7EPd6dYh5amnAcqLr0H7y05Y3b7mq0MhPy4diGrOMX2p0p0q9LmxI6e6Ae5Z6cepCSXl9UmDoNKcOkoen8pI9UOd+1+VIQDbz7+YP5ctQoF5mxYcYE+4AenZbtShKW5rrE6YTsfKzT/dhpTH6qZJDc+l/tt5i7h5U1eBxhzgIqbFqrlKEfmVsGR0NWc0qV2NORsuxaa1eXWg8n0tZz5fB5ZbOdLbnV6aM5Bf7GV2PA027W1aj8Nwr/Gjd0WjlugxZH7QBWtwWGfvrBYdvtWPanDMDT+Ec5kk6dGDR5T18oI8trNxMlsARav3xbpYp7JyJFejKpMdWPXM4kRmIVf6RYYVhfiwbjLd8RBaa38GcLkdflVG8WNKd38LPhGmfoZVvRwsa4sTE3OOFhr5PAw/GKtkifT/UKOYPIL8ePeotS14k1FIp7FS34WexjIpms2m9fJgH96fl3G2VKDwMRPef2gWXlTk3nBvm4xL+VW6AysLLc5mEyej8z3Ls/wpUHR0efmpG4OY6gBcPNrYd7A9G3xTGo8BS1lixCoIlL/xauDpugJbPsz+VWUAxEG5ZKMFdWWQV2ZEvLh3Pf0dZ5x01mf6vbFWhGSpXJmNiM4ekp3/dofcqiDxLxcvawvyxGxseG5Kn2eWHB+twIl8rrV4Dgun9XL3jNHQNucm7HXZb6yUYG6x9XFuZj4n2eRMFwpRh/OZzjAp8/rV+eMt6UYCVuuKjl+eMO1cRVcKbpmzUCcTUavY5r5wJLQCr90GeNy8JE4OGd/MMtCqlaInORF+uLX8o5BS7cVOgvLym0OJsvhnZHmQ49ATyiznNRpFLOHZF7l0Dc0CX6eNAqClphFCVRcFeGgLhuxwy5T5vY43r8oH89AHJBfPNWP/rjpddSINue29WpsL0L+j1O3cCMji+1wbU7jsBvp+rWCByfPevS5WVcduvr1tr/+bDFsIj7975+M3BEqeLYXQzdlpBaiorVHl7F7r24R3BrFua7ZRz/LL/3gTV1bTnXJS9KdhsTBcfCmbFUkXLOZasDJpXYMi3WN0m0xrQ/dDTZnpSOT1xFzXrFuqhZt6gFMI6JlowO7KeFaWDmAJDeXzVDGwoPJxOcq38PUWuI7k9SSld3eFo8cpkWzOIGKSZy/qq8TlQKfvDfnF8u22pY0rSrdBbfZdTr+4TtqvWRDeP/XOmmNhzfPck1qVKTr1wLBD9pxsHMI/oAIS5ve7lBgAsNdL6L5VGxI+tD3wzdwemwCwa/M8ooImbp6Dm1/fTStA48e7DCIqcSuKTGlGkEp1w9fsxlZ17xeNPFcUd9BedOB6I0VBgYqMP2Wvm50Lpm9jj6f1KTWi+k+FAdfeUeZ8ACkSKVBtprCt28LP7eYmpzjKUcWU/5INZhMT8uwu1y5gWl1e8XYsprXUC+BljrNLWc3xyfKZyv1puEs98rCm+MvrEVqoRIRES0vDFQiIiILMFCJiIgswEAlIiKyAAOViIjIAgxUIiIiCzBQiYiILMBAJSIisgADlYiIyAI5u1OSvEMHERHRYsjFHaJ460EigbeiW1lYbloI7PIlIiKyAAOViIjIAgxUIiIiCzBQiYiILMBAJSIisgADlYiIyAIMVCIiIgswUImIiCzAQCUiIrIAA5WIiMgCObv1YOOxAVQWiZnJIbz8cjcm9eI4rqbjaC0vBIJedDe0Yai+AwNbHcBtDzob2zFirjebyh/0oHG9oeb9FxrQ3BtU83HCzysEvX3Y1zaIpLU2taDnJTcM+DFY3Yw+c/GMDBe2/+Ve7Cw1cO2tBrRfMpcLhms79u/eBneR3i6EAvB/0Is3ukYQfxMwO8r3vIr6px2w2/SS4KQH50/+Pd7xpihHRDlaupvgXmM+DPsqhID4+3d/emKOv8+O+/kW1GwqQcHNk9hzJJ13J3/N/5ZsdegYqMB0wnufSt2RAVTdm/ozLX9X8XknGg7H/CbyWZxJEJ40XjeVvC53hHyNKuhvrJDB8WAm8y63ek8KMDznscH8bn4xiOqDiWvOvu/KD/WgSRxPIm6meo7M8NaDCytnLdQzV/x6psiFygf0bDwXNjtFmArB66MYUnOZ2o6ND0c/gI4NNZAZPhvDtQMHts58qJqTUYSKPa+j6x9asau0EGYORjnr0PrqLh2moRBCd0KAzQ7HliYcOVhuriQZqDh0BE1bdJjK9UJfyad3Y9errahLuc9SMF8jdEfM32OD/Rtl2PU3x3Bgk/61lVylbjgKDdhWej+HrKDFHvBnVQfXOvEZ911OCAR5cBWBI36X5FI7GqqrUZ00dcJzW/z+5nBWYTpvC11uSQaXeI3Csc5IuQe/cKNpoEP85eKQQTcwawUnxqaNKBEVXb+ouMeZY9/JCkZT6ZSozIff60H411Vh4MhilZrSkbNDYfCsBz6RJUAxXKqpmqC0Ei6VpwF4380uTo3nH4NDJtqtgG75iTDauV7OzEAElgwy184DqMoqU8XBoOcY9m5xwr7aXBTHQE19pdqmkKhdvlZbi9oXavHauxOQu8L++A40hoOydK8IZPk/8gTgebtBrVfbeEIfMG0OVDRUqtXm4n9Pv0btC9VoaBuCX77QPXaUbW+cs3JBGVIHxYFIb0c6yg9ViIOoH8ORlpgOlPSDKUb9NrjXiNbp4PxaLRnLYbnrqkRwiRbpyZiWa99BES7iryoOxVZIF54KUrHNca3GOYS3/3yvuSCdfSfWqVonex1iW799aH7Lg+C6CrQsQOWYrJG7tkVwENfU0V1E6iOVSQd396YSqP/g7dY4hsfUogwVoeZJp2ohTnx8Ah+pPuVCuL7lljOpBX3wTYmfhgs7DlSlV+NM9FUAE2OD6OwSH3ZzUYSxA26n3KIgromDnk8vhe8nwxiXLUhRuSip0K9avtmly3/zMv7+A/OZgsPo+6XcQPFU6zYg08NH0NuNzl/ov0dRCTbrOdUFfeBvu9B/Rh7Q9NTf1YHG8vj/Yi98AJG1YufzohWu1hctA9VqiLYqjNImvV53S8bbuPTJUwKiBXHB7IGZVTk2Og0Ex84ndRP6L5itEPPx3MrFgVUclBerdZqTcpej6F7x44vJhFbtDUyLiqZx/4Pm4xyS3c2i3J1j6ZxC0a1y/6XE7unZ912dS7yvt8dxOfF9vXQZ47cNlDy58r5lS0UOO+uCqttXRWpSt68bFU59MJ+6choeNZehB0QLV6X0BLxDHgx9MqEW29dXYea23Zd496cj0Jm6A/ufzjRSRa2xZg++f7gPIyogEzztEJEphCYxHvflEAeQz/Rc4doN4t8iPFqsX3tqIj6YJ389oR+vKUA2h4/JO/FffOPpAzj2N7tQ9g27qHyY3cPiTbHZHahsehsd9U5zzRirN2DvTtEKv8d8HBDlue7HlPnUocAE/OKx//pkwjnhZa63WYRBGufXw8wW5fiHsYdX8RkSB9fmcAsmXYvVOpVyVu4RTH4hftxblFBRexAFa8QR5fMb5uPcGDncgOoMzt2GW+Xe2DJmuu9SWJSKBKUlt2e/zooaljoIJ3T7llag5D45MwHPP6carjQ3d/UTOrxuXsGZ34og6b+ia72GA2Vb5MwMxjrRPaIiFe7v7IfZYLTGfYY+p/ofX6rQjjX9pW6t6y+HA/avq4cIBrx6JswfMAO2EEVZdPVUfkOfl8btaVGvd2Pv82UqGEM3h9DWaHYP1+5B91X5KjY4nqnH9sR9sLYYBb5zaGuQrQlxMLjah/ZXmjH67/rXd//1HJrF4+Y3+pCw9RRDtTwsaVEudus0M/Mpt+reXeNGU8y5w7ojVXAkdAPnn5lb5XPp84oj15oSbEz6vuuKBOWvHA8nGcLodR0Psd2+ke5eMwwzV45nHtEtXL/3nA6g4Dl41ElbAyVP1czanevp7IbKVPHFrWuqyK7rN0PTd+6ac3P4bTCuxZq2+xyo2NOBGnPE89TV9zCy6Rm4VMVlCpf/vhvRgb8BDP3dsK6A2Bx47Fm1MCrkw9AbZ2LWp4xtakGF7P5LHJySjcVsnWZq3uWWLVkRqnJAjnl6YqaRwnklZas8Tb3n4bktKvgvxQ68kqOFK1Aox1RQ3spxoIpI/cW4DohIt284DEPwjZlhmKktm9VIOnng95wNP0MQg1d1F7PN8egcg47EF/Rno6q70tiwK4uu38ytCnefqoFRszBs5shh3TU7F8dWfdAZ+IcO7N3iUJWD0PVBdHZ6xC8LdGXh9gSuJVZcgvq8lGyl2hKLPzmOMwzTeSl/siR+cMo8zHiOLQ/Nt9z6PL68tET2jpjTpQI0ic94R725Uh6aX2/ECNob5QhuB6rMSsTAwG4RtCcxbq5B+SnngYpL78F7S86Y3b7msHKE/Lh2Ibuj9vanxJdWztic2NET/gAOoGenHqQkl5fVJg6DSnDpKHp/KSPVDnftflSEA28+/mD+XLUKBeZsWHGBTq3gtDwPJMLSXNdYnbCdjxWafzuNqQ/VzOwil80EMfWpF8M/acOeV6IDomgx1GFbqZHikpFszDTQJR/Ns9yidbtb/L28njwumHqb1aAgx9bFu3RmVpb0RshQjalEVEf3Qa7PHVP6ch+oojU47NNDV2S3b5WswYr50PhH2bWCjBo8pq6VEVSQJExmC7B4/bY5LxsZOdKLUZWpbux6JjECs/CrSX3udHUhHoy7fKcKjrXyZwiT1+WhZhQ3pnTzs+AbZepnWNHDxbqyMDWZ1mCt6GUzDdj312048a432ur/dFrPrynGo4nXtRrh8zMhBFWFhyxT70q4ZGQezOeKG+iSr+ZbbtWjEsR0isGwI5/Jb1Z24woWmpW9EXFU4yPLbmTKiUUIVBGp/+LVQVP0BLb9mYwL+SEZlEsyVlRbBnVlSsiHc98Lh0nMdNanun2xVoRkqZyZzQiOntJdv/aHdHfpvFy9rC/LEV/8Dc9V6fPEgvO7FSiR160Gx3H5rF72njkC2ubcjL0u85WNCtQ9rgcVTfzPs/Mf8PPBFfhVohZi4/5GhF9GtsormzaKg58gtmn0glqYtlUioOe9r5at8AAi77xGdobp7l45wCzfWVBuv6wAGihQH8x45Wvl92IKk7Et17xgZW9EPHVN6xIZiLZSLUqg4qoIB3XZiB12mTK3x/H+Rfl4BmvcePFUP/rjptdRI9qc29arsb0I+T9O3cKNjCy2w7U5jeu3Il2/VvDg5FmPPjfrqkNXv972158thrxkxf/+ycgdoYJnezF0U0ZqISpae3QZu/dC3U7w1ijOdWU3+jneEI726u2xratEa7e5L/u70LhBvhEBeHqPpn2XKu/v9H6yOXegSz7P8QPiMEpxLB1ANNPdhvKQFeW+1I7hm3JcQE/8zQzqO9TNFbIZQbvQkm9gkQ1RGTkSf023um3jOj8G53nrQVpYixOomMT5q/o6USnwyXtzHiBsq21J06rSXXCbXafjH76j1ks2hPd/rZPWeHjzLNekRkW6fi0Q/KAdBzuH4A+IsLTp7ZbXbQ53vYjmU7Eh6UPfD9/A6bEJBL8yyyvq51NXz6Htr49adgCV2/Ny22l4JoNir5n78mshBD4dxem2l9EevqlEGjz/eBoj4nkk9TyhoAprirLuUhlhU5Gobol22Wd5H6eWlbvvoLyJAuB+KTo2Qt5lSN4QoiHvLpvJ/lKZJPfK2ytGy1yFQcz3+lVaeDm7OT5RPluQm4Zv0je1nxIH/4xv3JAjLLeF5G0FtxZm/R8V5AJvjr+wFqmFSrT8Jd3HdYVYmeVeWjfboIXBFiqRsFJr7iz3ysIW6sJiC5WIiMgCDFQiIiILMFCJiIgswEAlIiKyAAOViIjIAgxUIiIiCzBQiYiILMBAJSIiskDObuwgLygmIiJaDLm4oQXvlEQk8M45KwvLTQuBXb5EREQWYKASERFZgIFKRERkAQYqERGRBRioREREFmCgEhERWYCBSkREZAEGKhERkQUYqERERBZgoBIREVmAgUpERGQBBioREZEFGKhEREQWYKASERFZgIFKRERkAQYqERGRBRioREREFmCgEhERWYCBSkREZAEGKhERkQUYqERERBZgoBIREVmAgUpERGQBBioREZEFGKhEREQWYKASERFZgIFKRERkAQYqERGRBRioREREFmCgEhERWYCBSkREZAEGKhERkQUYqERERBb4I6fT+Z/m/IKy2+3mHBERUW4FAgFzbuHkLFCJ8pms8OXiC5dvWO6VZaWWO1fY5UtERGQBBioREZEFGKhEREQWYKASERFZgIFKRERkAQYqERGRBRioREREFmCgEhERWYCBSkREZAEG6rJUh46BAQwM9KBlk7mIiIgWVG5vPVjfgYGtDvNBVOj2FPwfncaRrhFYflOsByqwt6EK7odDuFzbjD5z8fImA7UKDgTheasB7ZfMxTQjK27JVn6oB02lBvwXqtHcay5MSzlaupvgXmM+hB+D1bn5rPIWfCsLbz24sBathRq6E9LTV4BtTSGcW5rw9o/rUGT+3jKOMpStL4bdZj4mWhB12CbCNHOy8iPC9ItBVFdXq6lzrBBV7F0gWnIWJ1Bve/D2C7WolVPNHnRf0TUm20MV2L1FzRItKeWHKpDc9zI3/XeiRXow2h4dOXwSntsG3FV15hIiWgoWp8tXBGpnYztGzMVAFVpP1cG1Ggj88ij2HBkVy+wo33MQu55woHCN2bwMBTHxq/Po/h/vwBvUi7CpBT0vuWHIg9JrHpQc3AGnHfCfr4Z3/QCq1pnrxZirS85e3oiDuzbCWWi2OL4KIfjJWTT86B39ON1ti+16ffso/OV7UflIIYx7xK8Cfgx1taH7l+GVDZR991XU/bfY5wzA924nXjvl1Y+zed24Ll/z7/+bE+GiBSc9OH/y7/FO9I9XpHl1hanPYAnGL4yjZKsbUxl0+dYdEZ/RexO/DzMvtxq7PlcWdvkurDwZlDSNu3f1nO1rMiicqPvx22jaIg78IjjC3cOwGSgu3YXWYy2oSOpdM7DhRR2miijZ1Kd++D8NQPylEMTUdfFYTJO/UwtScorQf7upUoepCFL12uIJVhl/HF4ji21bhQdrX8WORwqwSj6ZZHeg8uVXsd1c193UgQPP6ucMTMrtnEDga3YU/X/CBcrmdWPF/P3qACbEfpgQ3yujyI1dr7aizmmuRhkqR0u9qNDdHEa731yUgRufi4rMmgI8aD7WylF0r/jxxeSChikRWSs/AvWBEhESenbqsyswnq9H5UMyWAPwdO3RXcNiamgbwoTMI7sbO3a71fpRhSi2+3CurUGdh5IthKG3mtH88xvQWT2F0VfEYzF1XlQLkjn3okm0oNUre/vwWo3ZLS2nV3SXXHbbZoP97iiONprrvu0R8S4XO/DYs3KmDBWuQjmDqQ9ew56X5XZ+H3sa23Dml7o2md3rRhk7zb8PetG3bw++L/bD9/e8hqFPZSg7UPF8pbkmZaL80G6418R32WZCd+86UNXdImJUm+9zEtHiWORANVD0+Ha0vLIZxfJhyIePzgI7Sp0q1ELe82i/GO2eCHq7ce5Xumuy0LkRLjUXFoLv3TdwZh5dl65nXSKWhVujONE2CJ9aGsvIetu873Zi1Ny04AeXMX5bzomgLZJrBhEyW+gFzs0ov0/Py/Ab+kB292b7umHi78v0309dOYfBW3opRAm7r06oOeMbLhHrlJH6DnNU73xG5I6gvbETHrjRpC51GhDPOZWzUb5EZJ3FCdQ14YNHD44d3AV3oTjUfxXAaNcbeCe4QXd3CRM3B/VMjJHPpvTM6q8j3BmqTWD8Z9mHqeQu1q3E4KcecYBLJdttu4u7KkCTGavlml6c/cCnWq22ogo0/cMAeo61oq48/CzZvm5Y9O8Ly1vVQTsyhS9j+ppNBS6lqw4dYt8FxzpnP18qz6/G7m81dYi/NslxBQNNKLikR/iq6a1pVIj1eg6F26xEtBQsWgs1fA4wFJiAb2wQnfv24OgH8wtEy3xlNhdzaPLsa9jX1o3h30wh+JUIWtFyrWp6Gx311p7cDE7p88jJ06T11wAvW/K60So4ROWm4fAcZzkvtaMhHJSRKdz6nCGU5d9c8MMo3c1LZ4iWkMUJ1NjLZvZ8H68d7sNIpBvyCqbMI3vxuio9E6N8rW5F4vcBZDEGZFbTX8qTkSLMih9F6hhb2G0Leodw4gf70NDYhtOq69oGx7d2oWrer+tH4Pfm7Kfn1XnkpOmNPtFOprTUb9M3YRDvRVzLU402BxxbE1qhM9lUpE4xTH2WIpT90wiKZyvI5locIloU+TEoKU4QQ7/R5/Vsrm1o2RLtxDRcjdj2TT2UdeLqeUyquXQVoLDUnJ3B4IfjerDQ2o3Y+xdl6uCo3FeJAy9tFzMLtW0uVGxxRV8v6MV7v5nUo5PvWSVidb6vO4nz4XOl39yGRlfklQQ7yl9sRRNbQunrbU5ocZrTW3qwmbwsK9oKncWlScjO+sK1Kbp2HQXi8xDEtNW1RiJaMHkYqOLw33UCgzfV0FW493Sh/1S/mnpaK+GwAaGbgzjRlWZkfezHpEomO8oO6Od5/QX1m2QXj6JvTDYFbSj+1gH09Ov1+483ouwb+rIZS7ctQmzb863o6TmON3/cgY6/PY7jz+lBRIFfvY/3xM/5vu5k/yA8qmgOVLb2oL/rTXT8+E109Xeh6WkHvq5Xo5zqw/kx0Q4tbUJHvblIkudd5blteSlO5BpiIsp3eRmocvRp38EX0XnRj8AdkQGrbWpCcAq+i5148WBfihG4MwieQe/PfQjILLpHPI/tLu5+qX+VLIjhwy/j6Ls+TKke1/DrTsBz+SO9ipXbFhHA5GcBhFYVovghBxzfKMQq8/kOHh5WrZ55v25QHJxfPipauvocrc1eDMdDxTD+Q/79SZzggXtRjBxuQPUFv9lNHO06xlgnqnnZDNGSkts7JRHlKd45Z2VhuWkh5GkLlYiIaGlhoBIREVmAgUpERGQBBioREZEFGKhEREQWYKASERFZgIFKRERkAQYqERGRBRioREREFuCdkoiIiCzAFioREZEFGKhEREQWYKASERFZgIFKRERkAQYqERGRBRioREREFmCgEhERWYCBSkREZAEGKhERkQUYqERERBZgoBIREVmAgUpERGQBBioREZEFGKhEREQWYKASERFZgIFKRERkAQYqERGRBRioREREFmCgEhERWYCBSkREZAEGKhERkQUYqERERBZgoBIREVmAgUpERGQBBioREZEFGKhERETzBvz/AeuDpysvAn5uAAAADmVYSWZNTQAqAAAACAAAAAAAAADSU5MAAAAASUVORK5CYII=;" vertex="1" parent="1">
          <mxGeometry x="927" y="-606" width="547.71" height="749" as="geometry" />
        </mxCell>
      </root>
    </mxGraphModel>
  </diagram>
</mxfile>
